<svg width="81" height="81" viewBox="0 0 81 81" fill="none" xmlns="http://www.w3.org/2000/svg">
<path d="M40.2695 80.1553C62.3607 80.1553 80.2695 62.2465 80.2695 40.1553C80.2695 18.0641 62.3607 0.155273 40.2695 0.155273C18.1783 0.155273 0.269531 18.0641 0.269531 40.1553C0.269531 62.2465 18.1783 80.1553 40.2695 80.1553Z" fill="#FDF1E6"/>
<path d="M40.1874 3.88867C50.1788 3.88867 59.2247 7.93881 65.773 14.4871C72.3207 21.0348 76.3709 30.0807 76.3709 40.0721C76.3709 50.0636 72.3207 59.1095 65.773 65.6577C59.2247 72.2055 50.1788 76.2556 40.1874 76.2556C30.1959 76.2556 21.15 72.2055 14.6023 65.6577C8.05351 59.1095 4.00391 50.0636 4.00391 40.0721C4.00391 30.0807 8.05404 21.0353 14.6023 14.4871C21.1495 7.93827 30.1959 3.88867 40.1874 3.88867ZM64.9015 15.3569C58.5767 9.03267 49.8391 5.12067 40.1874 5.12067C30.5356 5.12067 21.798 9.03321 15.4727 15.3575C9.14844 21.6828 5.23644 30.4204 5.23644 40.0721C5.23644 49.7239 9.14844 58.4615 15.4732 64.7863C21.798 71.1105 30.5356 75.0231 40.1879 75.0231C49.8391 75.0231 58.5767 71.1105 64.9015 64.7863C71.2263 58.4615 75.1389 49.7239 75.1389 40.0716C75.1389 30.4204 71.2263 21.6823 64.9015 15.358V15.3569Z" fill="#CD5C5C"/>
<path d="M11.7383 39.0886V38.6102L12.6647 38.487C12.8807 38.4561 13.0097 38.3734 13.0508 38.2396C13.102 38.0956 13.1329 37.9004 13.1436 37.6529L13.6529 29.5169C13.6732 29.2492 13.6476 29.0689 13.5756 28.9766C13.5036 28.8838 13.3697 28.822 13.174 28.7916L12.294 28.6678V28.174H15.2273L18.2993 36.3873L18.3463 36.3254L21.4183 28.174H24.3361V28.6678L23.3948 28.7761C23.2295 28.7964 23.1116 28.8529 23.0396 28.9457C22.9676 29.0385 22.9367 29.2444 22.9468 29.5633L23.4716 37.7457C23.4924 38.0236 23.5388 38.214 23.6103 38.3169C23.6828 38.4097 23.8113 38.4662 23.9964 38.487L24.9228 38.6102V39.0892H20.8625V38.6102L21.8508 38.487C22.0156 38.4657 22.1388 38.4097 22.2209 38.3169C22.3137 38.214 22.35 38.0081 22.3292 37.6993L21.8044 29.2236L21.7889 29.1772L18.6241 37.4833H17.6204L14.4401 29.1772L14.4247 29.2236L13.9153 37.7612C13.9047 37.9878 13.926 38.1574 13.9772 38.2705C14.0385 38.3734 14.1879 38.4406 14.4252 38.4716L15.3201 38.6102V39.0892L11.7383 39.0886ZM27.9036 39.0886V38.6102L28.83 38.487C29.0257 38.4561 29.1543 38.3889 29.2162 38.286C29.278 38.183 29.3089 37.9926 29.3089 37.7153V29.5164C29.3089 29.2486 29.2727 29.0684 29.2007 28.9761C29.1388 28.8732 29.0049 28.806 28.7991 28.7756L27.9036 28.6673V28.1734H31.8556V28.6673L30.9143 28.7756C30.7292 28.806 30.6055 28.8785 30.5436 28.9916C30.4823 29.0945 30.4513 29.2849 30.4513 29.5628V37.7606C30.4513 38.0182 30.4823 38.198 30.5436 38.3009C30.6162 38.3937 30.7495 38.4556 30.9452 38.486L31.8561 38.6097V39.0886H27.9042H27.9036ZM35.0492 39.0886V38.6102L35.9452 38.487C36.1404 38.4561 36.2689 38.3889 36.3308 38.286C36.3927 38.183 36.4236 37.9926 36.4236 37.7153V29.502C36.4236 29.2444 36.3873 29.0694 36.3153 28.9766C36.2535 28.8737 36.1196 28.8065 35.9138 28.7761L35.0497 28.6678V28.174H39.1868V28.6524L38.0599 28.791C37.8748 28.8124 37.7458 28.8684 37.6738 28.9612C37.6018 29.054 37.566 29.239 37.566 29.5169V38.4716H39.6807C40.0412 38.4716 40.3345 38.4454 40.5607 38.3942C40.7975 38.3425 40.998 38.2342 41.1634 38.07C41.3378 37.9052 41.4924 37.6582 41.6263 37.3286C41.7703 36.9996 41.925 36.5622 42.0892 36.0166H42.63L42.2439 39.0886H35.0492ZM44.7079 39.0886V38.6102L45.3874 38.487C45.5724 38.4454 45.7063 38.3788 45.7884 38.286C45.8812 38.1932 45.9788 37.9873 46.0818 37.6684L49.3858 28.174H50.4044L53.6471 37.6993C53.75 37.9569 53.8375 38.1366 53.9095 38.2396C53.9815 38.3425 54.1308 38.4198 54.357 38.4716L54.9436 38.5793V39.0892H51.285V38.6102L52.165 38.487C52.3602 38.4657 52.4786 38.399 52.5196 38.286C52.5612 38.1729 52.5404 37.9873 52.4583 37.7302L51.7015 35.43H47.6108L46.8535 37.6838C46.7714 37.9105 46.7458 38.0956 46.7767 38.2396C46.8178 38.3734 46.957 38.4609 47.1938 38.502L48.0887 38.6102V39.0892L44.7079 39.0886ZM47.8263 34.8124H51.485L49.6945 29.3318H49.6636L47.8263 34.8124ZM56.397 30.999L56.0882 30.6284C56.4588 30.3297 56.7212 30.047 56.8754 29.7793C57.03 29.5116 57.1122 29.2236 57.1223 28.9153H56.8599C56.685 28.9153 56.5356 28.8838 56.4124 28.8225C56.304 28.7656 56.2132 28.68 56.15 28.575C56.0977 28.4587 56.0714 28.3324 56.0727 28.2049C56.0727 27.9574 56.1548 27.7516 56.3196 27.5873C56.4844 27.422 56.6903 27.3398 56.9372 27.3398C57.2668 27.3398 57.5138 27.4481 57.678 27.6641C57.8428 27.87 57.9255 28.143 57.9255 28.4828C57.9255 28.7398 57.8684 29.0177 57.7554 29.3164C57.6524 29.6044 57.4876 29.8977 57.2615 30.1964C57.0455 30.4844 56.757 30.7521 56.397 30.999ZM64.8343 39.3052C64.2476 39.3052 63.7074 39.2022 63.2135 38.9958C62.7196 38.7804 62.3079 38.5073 61.9783 38.1782L61.7778 39.1969H61.3298L61.021 35.7852L61.5308 35.7388C61.685 36.2534 61.8754 36.6961 62.102 37.0668C62.3282 37.4369 62.5804 37.7404 62.8583 37.9772C63.1468 38.2038 63.4556 38.3686 63.7847 38.4716C64.1143 38.5745 64.4487 38.6262 64.7884 38.6262C65.2103 38.6262 65.5911 38.5537 65.9308 38.4097C66.2615 38.263 66.5409 38.021 66.7335 37.7148C66.9394 37.3958 67.0423 36.9948 67.0423 36.5105C67.0423 36.1094 66.9703 35.759 66.8263 35.4609C66.6823 35.1516 66.4247 34.8742 66.054 34.6273C65.6839 34.3798 65.1692 34.1537 64.5106 33.9478C63.9132 33.7521 63.414 33.5516 63.013 33.3457C62.6114 33.1297 62.2924 32.8977 62.0556 32.6508C61.8261 32.4054 61.6477 32.1167 61.5308 31.8017C61.4239 31.4674 61.3716 31.118 61.3762 30.767C61.3762 30.407 61.4279 30.0833 61.5308 29.7948C61.6439 29.4961 61.798 29.2337 61.9938 29.0076C62.1882 28.7821 62.4176 28.5892 62.6732 28.4364C62.9491 28.2786 63.2451 28.1591 63.5532 28.0812C63.8759 27.9983 64.2078 27.9567 64.541 27.9574C64.9836 27.9574 65.4007 28.0401 65.7916 28.2049C66.1932 28.3596 66.5586 28.575 66.8876 28.8529L67.0887 27.9574H67.5516L67.8759 31.03L67.3202 31.1073C67.1452 30.4998 66.9239 30.0161 66.6562 29.6561C66.389 29.2854 66.0802 29.0177 65.7298 28.8529C65.3799 28.678 64.9836 28.5905 64.541 28.5905C63.9239 28.5905 63.4295 28.7606 63.0594 29.1004C62.6887 29.4294 62.5031 29.8774 62.5031 30.4433C62.5031 30.814 62.5751 31.1382 62.7196 31.4161C62.8636 31.6934 63.1159 31.951 63.4759 32.1878C63.8466 32.4145 64.3559 32.6358 65.0044 32.8518C65.6114 33.0577 66.1159 33.2785 66.5175 33.5158C66.9292 33.742 67.2535 33.9889 67.4898 34.2566C67.7266 34.5244 67.8967 34.8124 67.9996 35.1212C68.1026 35.43 68.1538 35.7644 68.1538 36.1249C68.1538 36.5878 68.0764 37.015 67.9223 37.406C67.7692 37.7848 67.5377 38.1269 67.2428 38.4097C66.9396 38.6974 66.583 38.923 66.1932 39.0737C65.7916 39.2278 65.3388 39.3052 64.8343 39.3052Z" fill="#663300"/>
<path d="M41.0604 50.5576C40.2481 50.5576 39.5425 50.38 38.943 50.0253C38.3516 49.6626 37.8902 49.1576 37.5596 48.5112C37.2358 47.8568 37.0742 47.0882 37.0742 46.205C37.0742 45.5741 37.1649 44.9944 37.3462 44.4664C37.5276 43.9298 37.7835 43.4728 38.1153 43.0941C38.4411 42.7196 38.8448 42.4209 39.2982 42.2189C39.7633 42.0056 40.2758 41.8994 40.8358 41.8994C41.2694 41.8994 41.6556 41.9666 41.9948 42.1005C42.3178 42.2242 42.6118 42.4134 42.8582 42.6562L42.9766 41.876H43.4972L43.958 44.6317L43.3788 44.7501C43.2209 44.253 43.0241 43.8434 42.7868 43.5197C42.5585 43.1965 42.2865 42.956 41.9708 42.7981C41.6561 42.6408 41.2849 42.5618 40.8593 42.5618C40.3073 42.5618 39.846 42.7 39.4753 42.9757C39.1046 43.252 38.8209 43.6616 38.6236 44.2061C38.4348 44.7421 38.3398 45.4045 38.3398 46.1928C38.3398 46.7213 38.407 47.2061 38.5409 47.6477C38.6753 48.0893 38.8641 48.4717 39.1089 48.7949C39.3503 49.1092 39.6569 49.3676 40.0076 49.5522C40.3727 49.7281 40.7735 49.8171 41.1788 49.8125C41.5254 49.8125 41.8412 49.765 42.1249 49.6706C42.4176 49.5754 42.6903 49.427 42.9292 49.2328C43.1814 49.028 43.4145 48.7714 43.6268 48.4637L44.1121 48.8189C43.9542 49.0866 43.7654 49.3272 43.5441 49.5405C43.3313 49.7533 43.0908 49.9384 42.8225 50.0962C42.2838 50.3971 41.6774 50.5558 41.0604 50.5576ZM44.6764 50.3922V49.8834L45.2204 49.7885C45.3622 49.757 45.4684 49.7058 45.5393 49.6349C45.6102 49.556 45.6854 49.3949 45.7644 49.1496L48.2716 42.0648H49.4662L51.9382 49.1618C52.0172 49.3592 52.0801 49.501 52.1276 49.5874C52.183 49.6664 52.2929 49.7218 52.4588 49.7528L52.9441 49.8594V50.3917H49.7974V49.8834L50.4716 49.8008C50.6294 49.7768 50.7238 49.7218 50.7558 49.6349C50.7948 49.548 50.7793 49.4061 50.7078 49.2093L50.1761 47.636H47.0294L46.5094 49.1613C46.454 49.3272 46.4348 49.4696 46.4502 49.588C46.4662 49.6978 46.5766 49.765 46.7809 49.7885L47.4556 49.8952V50.3917H44.6758L44.6764 50.3922ZM47.2428 47.021H49.9628L48.6385 43.0349H48.6028L47.2428 47.021ZM60.5564 50.557C60.3361 50.557 60.1345 50.5341 59.9532 50.4866C59.7776 50.4417 59.6101 50.3697 59.4566 50.2733C59.2984 50.1716 59.1551 50.0483 59.031 49.9069C58.8935 49.7419 58.767 49.568 58.6524 49.3864L56.7718 46.3821L56.0854 47.0685V49.2328C56.0854 49.4301 56.1094 49.5677 56.1564 49.6466C56.2118 49.7176 56.3142 49.765 56.4641 49.7885L57.1857 49.8834V50.3917H53.8145V49.8834L54.5478 49.7885C54.6977 49.765 54.7964 49.7138 54.8438 49.6349C54.8913 49.556 54.9148 49.4061 54.9148 49.1853V43.2242C54.9148 43.0189 54.887 42.8813 54.8321 42.8104C54.7846 42.7314 54.6822 42.684 54.5244 42.6685L53.8145 42.5736V42.0648H57.1857V42.5736L56.4406 42.668C56.3062 42.684 56.2118 42.7272 56.1564 42.7986C56.1094 42.869 56.0854 43.0269 56.0854 43.2717V46.276L59.078 43.2717C59.1729 43.1768 59.2241 43.0904 59.2321 43.0114C59.2405 42.971 59.2384 42.9291 59.226 42.8897C59.2135 42.8503 59.1912 42.8147 59.1612 42.7864C59.0977 42.7154 58.999 42.676 58.8652 42.668L58.2977 42.5736L58.4038 42.0648H61.207V42.5853L60.7697 42.6685C60.6748 42.6845 60.5841 42.7154 60.4977 42.7629C60.4044 42.812 60.3171 42.8716 60.2374 42.9405C60.1207 43.0401 60.0101 43.1466 59.9062 43.2594L57.5761 45.6018L59.6694 48.7832C59.8508 49.0514 60.0086 49.2642 60.1425 49.4221C60.2844 49.5714 60.4305 49.6781 60.5804 49.7416C60.7382 49.7965 60.9196 49.8242 61.1244 49.8242C61.2033 49.8242 61.2822 49.8162 61.3612 49.8008C61.4396 49.7768 61.5425 49.7453 61.6684 49.7058L61.775 50.0845C61.6235 50.2404 61.437 50.358 61.231 50.4274C61.0177 50.5138 60.7932 50.557 60.5564 50.557ZM62.6972 50.3917V49.8834L63.383 49.7885C63.5329 49.765 63.6316 49.7138 63.679 49.6349C63.7265 49.556 63.75 49.4061 63.75 49.1853V43.2242C63.75 43.0189 63.7222 42.8813 63.6673 42.8104C63.6198 42.7314 63.5174 42.684 63.3596 42.6685L62.6972 42.5736V42.0648H68.15L68.5638 43.9928L68.0198 44.1704C67.9014 43.8472 67.7873 43.5869 67.6769 43.3896C67.5665 43.1922 67.4401 43.0386 67.2982 42.9282C67.1644 42.8178 66.9948 42.7432 66.7894 42.7037C66.5926 42.6562 66.3521 42.6328 66.0684 42.6328H64.9206V45.8264H65.9617C66.238 45.8264 66.4428 45.8066 66.5766 45.7672C66.6412 45.7493 66.7005 45.7163 66.7499 45.6711C66.7993 45.6259 66.8374 45.5696 66.8609 45.5069C66.9238 45.365 66.9905 45.1405 67.062 44.8328L67.5585 44.7741V47.4114L67.062 47.4941C67.0145 47.1864 66.959 46.9618 66.8961 46.82C66.8695 46.7538 66.8278 46.6948 66.7744 46.6476C66.721 46.6004 66.6573 46.5663 66.5884 46.548C66.4465 46.5005 66.238 46.477 65.9617 46.477H64.9206V49.8125H66.4348C66.7185 49.8125 66.9553 49.7928 67.1446 49.7533C67.3414 49.7058 67.5036 49.6269 67.6294 49.5165C67.7633 49.4061 67.878 49.2482 67.9724 49.0434C68.0673 48.8301 68.1537 48.5624 68.2326 48.2392H68.8124L68.5404 50.3917H62.6972Z" fill="#CD5C5C"/>
<path d="M37.0991 46.6085C36.9588 47.4063 36.3658 48.4399 35.8927 48.9167C35.4761 49.3379 34.9801 49.6722 34.4333 49.9001C33.8866 50.1281 33.3 50.2452 32.7076 50.2447C32.1153 50.2451 31.5287 50.128 30.982 49.9C30.4352 49.672 29.9392 49.3378 29.5226 48.9167C28.9949 48.386 28.607 47.7327 28.3935 47.0154C28.1798 47.7326 27.7917 48.3856 27.2639 48.9162C26.8474 49.3376 26.3514 49.672 25.8047 49.9002C25.2579 50.1283 24.6713 50.2456 24.0788 50.2453C23.4864 50.2455 22.8998 50.1282 22.3531 49.9C21.8063 49.6719 21.3103 49.3375 20.8938 48.9162C20.3618 48.3812 19.9719 47.7218 19.7594 46.9978C19.5469 47.7219 19.1567 48.3813 18.6244 48.9162C18.208 49.3376 17.712 49.672 17.1652 49.9002C16.6184 50.1283 16.0318 50.2456 15.4394 50.2453C14.847 50.2455 14.2605 50.1281 13.7139 49.8999C13.1672 49.6718 12.6713 49.3374 12.2548 48.9162C11.4092 48.0662 10.9354 46.9153 10.9375 45.7162C10.9375 44.6175 11.3802 43.6202 12.097 42.9002C12.4635 42.5294 12.9001 42.2351 13.3813 42.0343C13.8625 41.8335 14.3788 41.7303 14.9002 41.7306C15.9951 41.7306 16.986 42.1781 17.7034 42.9002C18.4478 43.6481 18.8649 44.661 18.8628 45.7162C18.8628 46.6655 18.4804 47.5247 17.8618 48.1482C17.5451 48.4683 17.168 48.7224 16.7523 48.8957C16.3367 49.069 15.8908 49.1581 15.4404 49.1578C14.9901 49.158 14.5442 49.0689 14.1286 48.8956C13.713 48.7223 13.3359 48.4683 13.0191 48.1482C12.3766 47.5025 12.0166 46.6282 12.018 45.7173C12.018 44.9178 12.3407 44.1941 12.8607 43.6703C13.1274 43.4004 13.445 43.1861 13.7951 43.0398C14.1453 42.8935 14.521 42.8182 14.9004 42.8182C15.2799 42.8182 15.6556 42.8935 16.0057 43.0398C16.3559 43.1861 16.6735 43.4004 16.9402 43.6703C17.4813 44.214 17.7844 44.9502 17.7828 45.7173C17.7836 46.3403 17.5371 46.9382 17.0975 47.3797C16.8807 47.5991 16.6226 47.7732 16.338 47.8921C16.0534 48.011 15.7481 48.0722 15.4396 48.0722C15.1312 48.0722 14.8259 48.011 14.5413 47.8921C14.2567 47.7732 13.9985 47.5991 13.7818 47.3797C13.3426 46.938 13.0963 46.3402 13.097 45.7173C13.097 45.2186 13.298 44.7663 13.6228 44.4389C13.7897 44.2702 13.9883 44.1363 14.2073 44.045C14.4262 43.9536 14.6611 43.9065 14.8983 43.9065C15.1355 43.9065 15.3704 43.9536 15.5894 44.045C15.8083 44.1363 16.0069 44.2702 16.1738 44.4389C16.4991 44.7663 16.7002 45.2175 16.7002 45.7173C16.7006 46.0526 16.5679 46.3744 16.3312 46.6119C16.0944 46.8494 15.7731 46.9832 15.4378 46.9839C15.1025 46.9831 14.7813 46.8492 14.5447 46.6117C14.3081 46.3742 14.1755 46.0525 14.1759 45.7173C14.1764 45.5746 14.2191 45.4352 14.2986 45.3167C14.3782 45.1982 14.491 45.1059 14.6229 45.0514C14.7547 44.9969 14.8998 44.9826 15.0398 45.0104C15.1798 45.0381 15.3084 45.1067 15.4095 45.2074C15.5386 45.3381 15.6196 45.5183 15.6196 45.7162H15.2554C15.2556 45.6189 15.2172 45.5255 15.1487 45.4565C15.1159 45.4231 15.0767 45.3967 15.0335 45.3786C14.9904 45.3605 14.944 45.3512 14.8972 45.3512C14.8504 45.3512 14.8041 45.3605 14.7609 45.3786C14.7178 45.3967 14.6786 45.4231 14.6458 45.4565C14.5774 45.5256 14.5393 45.619 14.5396 45.7162C14.5396 45.9679 14.641 46.1962 14.8036 46.3599C14.8865 46.4436 14.9851 46.5101 15.0939 46.5554C15.2026 46.6008 15.3192 46.6241 15.437 46.6241C15.5548 46.6241 15.6714 46.6008 15.7801 46.5554C15.8888 46.5101 15.9874 46.4436 16.0703 46.3599C16.2399 46.1887 16.3348 45.9572 16.3343 45.7162C16.3353 45.3307 16.1834 44.9605 15.9119 44.6869C15.7792 44.5525 15.6211 44.4458 15.4469 44.373C15.2726 44.3001 15.0857 44.2626 14.8968 44.2625C14.708 44.2625 14.521 44.2999 14.3467 44.3727C14.1724 44.4454 14.0143 44.552 13.8815 44.6863C13.6098 44.9599 13.4579 45.3301 13.4591 45.7157C13.4582 46.2452 13.6672 46.7534 14.0404 47.129C14.2231 47.3135 14.4406 47.4599 14.6803 47.5597C14.92 47.6595 15.1771 47.7107 15.4367 47.7103C15.9823 47.7103 16.4767 47.4874 16.834 47.129C17.2072 46.7534 17.4161 46.2451 17.4148 45.7157C17.4148 45.0133 17.1322 44.377 16.6762 43.9178C16.4435 43.6827 16.1665 43.4961 15.8612 43.3688C15.5558 43.2416 15.2283 43.1762 14.8975 43.1765C14.5667 43.176 14.2391 43.2413 13.9337 43.3686C13.6284 43.4958 13.3514 43.6825 13.1188 43.9178C12.6444 44.3955 12.3788 45.0419 12.3802 45.7151C12.3802 46.5674 12.7231 47.3397 13.2778 47.897C13.5602 48.1827 13.8966 48.4095 14.2674 48.5643C14.6382 48.719 15.036 48.7985 15.4378 48.7983C15.8397 48.7987 16.2377 48.7191 16.6087 48.5644C16.9797 48.4097 17.3162 48.1828 17.5988 47.897C18.1751 47.3175 18.498 46.533 18.4964 45.7157C18.4964 44.7125 18.0932 43.8047 17.4415 43.1482C17.109 42.8118 16.713 42.5449 16.2764 42.3629C15.8399 42.1809 15.3715 42.0874 14.8986 42.0879C14.4256 42.0877 13.9573 42.1813 13.5208 42.3634C13.0842 42.5455 12.6882 42.8124 12.3556 43.1487C11.678 43.8308 11.2987 44.7537 11.3007 45.7151C11.2985 46.8208 11.7348 47.8822 12.514 48.6666C12.8967 49.0531 13.3523 49.3599 13.8543 49.569C14.3564 49.7782 14.8949 49.8857 15.4388 49.8853C16.5812 49.8853 17.6148 49.4191 18.3631 48.6666C19.1246 47.9005 19.5594 46.8689 19.5759 45.7887L19.5748 45.7141C19.5748 44.6154 20.0175 43.6191 20.7343 42.8981C21.1009 42.5274 21.5375 42.2332 22.0187 42.0325C22.4999 41.8318 23.0161 41.7287 23.5375 41.729C24.6324 41.729 25.6234 42.1759 26.3412 42.8986C27.085 43.6469 27.5016 44.6596 27.4996 45.7146C27.4996 46.6634 27.1167 47.5231 26.4986 48.1455C26.1819 48.4657 25.8048 48.7198 25.3891 48.8931C24.9735 49.0664 24.5276 49.1555 24.0772 49.1551C23.6269 49.1554 23.181 49.0662 22.7654 48.8929C22.3498 48.7196 21.9727 48.4656 21.6559 48.1455C21.0134 47.4998 20.6534 46.6255 20.6548 45.7146C20.6548 44.9157 20.977 44.1914 21.4975 43.6677C21.7643 43.3981 22.082 43.184 22.432 43.038C22.7821 42.8919 23.1577 42.8167 23.537 42.8167C23.9163 42.8167 24.2919 42.8919 24.6419 43.038C24.992 43.184 25.3096 43.3981 25.5764 43.6677C26.1176 44.2113 26.4206 44.9476 26.4191 45.7146C26.4191 46.3637 26.1578 46.9509 25.7343 47.377C25.5175 47.5963 25.2594 47.7704 24.9749 47.8893C24.6903 48.0081 24.3851 48.0693 24.0767 48.0693C23.7684 48.0693 23.4631 48.0081 23.1785 47.8893C22.894 47.7704 22.6359 47.5963 22.4191 47.377C21.9799 46.9353 21.7336 46.3375 21.7343 45.7146C21.7343 45.2159 21.9354 44.7637 22.2607 44.4362C22.4275 44.2676 22.6261 44.1338 22.845 44.0425C23.0639 43.9512 23.2987 43.9041 23.5359 43.9041C23.7731 43.9041 24.0079 43.9512 24.2268 44.0425C24.4457 44.1338 24.6443 44.2676 24.8111 44.4362C25.1364 44.7637 25.3375 45.2159 25.3375 45.7146C25.3379 46.0499 25.2052 46.3717 24.9685 46.6092C24.7318 46.8468 24.4104 46.9806 24.0751 46.9813C23.7398 46.9806 23.4184 46.8468 23.1817 46.6092C22.945 46.3717 22.8123 46.0499 22.8127 45.7146C22.8127 45.5231 22.8888 45.3394 23.0242 45.204C23.1596 45.0686 23.3433 44.9925 23.5348 44.9925C23.7264 44.9925 23.91 45.0686 24.0455 45.204C24.1809 45.3394 24.257 45.5231 24.257 45.7146H23.8927C23.8931 45.6174 23.8549 45.524 23.7866 45.4549C23.7537 45.4216 23.7145 45.3952 23.6714 45.3772C23.6282 45.3591 23.5819 45.3499 23.5351 45.3499C23.4883 45.3499 23.442 45.3591 23.3989 45.3772C23.3557 45.3952 23.3165 45.4216 23.2836 45.4549C23.2151 45.5239 23.1767 45.6173 23.177 45.7146C23.177 45.9663 23.2783 46.1946 23.441 46.3583C23.5237 46.4422 23.6223 46.5089 23.7311 46.5543C23.8398 46.5998 23.9565 46.6232 24.0743 46.6232C24.1922 46.6232 24.3088 46.5998 24.4176 46.5543C24.5263 46.5089 24.6249 46.4422 24.7076 46.3583C24.8772 46.1871 24.9722 45.9556 24.9716 45.7146C24.9727 45.3291 24.8208 44.9589 24.5492 44.6853C24.4165 44.5511 24.2584 44.4446 24.0843 44.3719C23.9101 44.2992 23.7233 44.2617 23.5345 44.2616C23.3458 44.2615 23.1589 44.2988 22.9847 44.3713C22.8104 44.4439 22.6523 44.5502 22.5194 44.6842C22.2475 44.9577 22.0954 45.3279 22.0964 45.7135C22.0955 46.243 22.3045 46.7513 22.6778 47.1269C22.8605 47.3116 23.078 47.4582 23.3178 47.5583C23.5575 47.6583 23.8148 47.7099 24.0746 47.7099C24.3344 47.7099 24.5916 47.6583 24.8314 47.5583C25.0711 47.4582 25.2887 47.3116 25.4714 47.1269C25.8446 46.7513 26.0537 46.243 26.0527 45.7135C26.0527 45.0111 25.77 44.3749 25.3135 43.9162C25.0808 43.6811 24.8038 43.4945 24.4985 43.3672C24.1932 43.24 23.8656 43.1746 23.5348 43.1749C23.2041 43.1745 22.8766 43.2398 22.5714 43.3671C22.2661 43.4943 21.9892 43.681 21.7567 43.9162C21.2823 44.3939 21.0166 45.0403 21.018 45.7135C21.018 46.5669 21.3604 47.3375 21.9151 47.8949C22.1976 48.1806 22.5339 48.4074 22.9047 48.5622C23.2755 48.7169 23.6733 48.7964 24.0751 48.7962C24.477 48.7966 24.8749 48.7171 25.2458 48.5623C25.6167 48.4076 25.9532 48.1807 26.2356 47.8949C26.8119 47.3154 27.1345 46.5308 27.1327 45.7135C27.1327 44.7109 26.73 43.8026 26.0778 43.1466C25.7452 42.8104 25.3491 42.5435 24.9126 42.3615C24.4761 42.1795 24.0078 42.086 23.5348 42.0863C23.062 42.0861 22.5938 42.1796 22.1574 42.3616C21.7209 42.5436 21.325 42.8105 20.9924 43.1466C20.3147 43.8288 19.9353 44.7519 19.9375 45.7135L19.938 45.7877C19.955 46.8677 20.3896 47.8992 21.1508 48.6655C21.5334 49.0521 21.9888 49.3589 22.4908 49.5682C22.9928 49.7774 23.5313 49.885 24.0751 49.8847C25.218 49.8847 26.2511 49.4186 26.9999 48.6655C27.7236 47.9374 28.1535 46.9681 28.2074 45.9429C28.2038 45.8668 28.202 45.7907 28.202 45.7146C28.202 44.6159 28.6447 43.6197 29.3604 42.8986C29.727 42.5278 30.1636 42.2335 30.6448 42.0328C31.126 41.832 31.6422 41.7287 32.1636 41.729C33.2586 41.729 34.2495 42.1759 34.9668 42.8986C35.7112 43.6465 36.1283 44.6594 36.1263 45.7146C36.1263 46.6634 35.7439 47.5231 35.1258 48.1466C34.809 48.4667 34.4319 48.7207 34.0163 48.894C33.6006 49.0673 33.1548 49.1564 32.7044 49.1562C32.254 49.1564 31.808 49.0673 31.3923 48.8939C30.9765 48.7205 30.5994 48.4663 30.2826 48.1461C29.64 47.4999 29.28 46.6253 29.2815 45.7141C29.2815 44.9157 29.6042 44.1914 30.1242 43.6677C30.3909 43.3977 30.7085 43.1834 31.0586 43.0371C31.4087 42.8908 31.7844 42.8155 32.1639 42.8155C32.5434 42.8155 32.9191 42.8908 33.2692 43.0371C33.6193 43.1834 33.937 43.3977 34.2036 43.6677C34.7447 44.2113 35.0478 44.9476 35.0463 45.7146C35.0463 46.3637 34.785 46.9509 34.361 47.377C34.1442 47.5964 33.886 47.7706 33.6015 47.8894C33.3169 48.0083 33.0115 48.0695 32.7031 48.0695C32.3947 48.0695 32.0893 48.0083 31.8048 47.8894C31.5202 47.7706 31.262 47.5964 31.0452 47.377C30.606 46.9353 30.3598 46.3375 30.3604 45.7146C30.3604 45.2159 30.5615 44.7637 30.8863 44.4362C31.0531 44.2676 31.2518 44.1337 31.4707 44.0423C31.6897 43.9509 31.9245 43.9039 32.1618 43.9039C32.399 43.9039 32.6339 43.9509 32.8528 44.0423C33.0718 44.1337 33.2704 44.2676 33.4372 44.4362C33.7626 44.7637 33.9636 45.2159 33.9636 45.7146C33.9641 46.0499 33.8313 46.3717 33.5946 46.6092C33.3579 46.8468 33.0366 46.9806 32.7012 46.9813C32.535 46.9812 32.3705 46.9482 32.2172 46.8841C32.0638 46.82 31.9247 46.7262 31.8079 46.6079C31.5716 46.3707 31.439 46.0494 31.4394 45.7146C31.4394 45.5231 31.5154 45.3395 31.6507 45.204C31.786 45.0685 31.9695 44.9922 32.161 44.9919C32.3524 44.9921 32.536 45.0682 32.6714 45.2036C32.8068 45.339 32.883 45.5226 32.8831 45.7141H32.5188C32.5189 45.617 32.4806 45.5238 32.4122 45.4549C32.3793 45.4216 32.3402 45.3952 32.2971 45.3772C32.254 45.3592 32.2077 45.3499 32.161 45.3499C32.1142 45.3499 32.068 45.3592 32.0248 45.3772C31.9817 45.3952 31.9426 45.4216 31.9098 45.4549C31.8412 45.5239 31.8029 45.6173 31.8031 45.7146C31.8031 45.9663 31.9044 46.1946 32.0682 46.3583C32.151 46.4421 32.2496 46.5086 32.3583 46.554C32.4671 46.5994 32.5837 46.6228 32.7015 46.6228C32.8193 46.6228 32.936 46.5994 33.0447 46.554C33.1534 46.5086 33.252 46.4421 33.3348 46.3583C33.5044 46.1871 33.5994 45.9556 33.5988 45.7146C33.5997 45.329 33.4476 44.9589 33.1759 44.6853C33.0431 44.5511 32.885 44.4447 32.7108 44.372C32.5366 44.2993 32.3497 44.2619 32.161 44.2619C31.9722 44.2619 31.7853 44.2993 31.6111 44.372C31.4369 44.4447 31.2788 44.5511 31.146 44.6853C30.8744 44.9588 30.7224 45.3291 30.7236 45.7146C30.7227 46.2441 30.9317 46.7524 31.305 47.1279C31.4877 47.3126 31.7052 47.4593 31.945 47.5593C32.1847 47.6594 32.442 47.7109 32.7018 47.7109C32.9616 47.7109 33.2188 47.6594 33.4586 47.5593C33.6983 47.4593 33.9159 47.3126 34.0986 47.1279C34.4714 46.7522 34.6799 46.2439 34.6783 45.7146C34.6783 45.0122 34.3956 44.3759 33.9396 43.9173C33.707 43.6821 33.43 43.4955 33.1246 43.3683C32.8193 43.241 32.4918 43.1757 32.161 43.1759C31.8303 43.1756 31.5028 43.241 31.1976 43.3683C30.8923 43.4955 30.6154 43.6821 30.3828 43.9173C29.9082 44.3949 29.6424 45.0413 29.6436 45.7146C29.6436 46.5679 29.9866 47.3386 30.5412 47.8959C30.8237 48.1817 31.1601 48.4085 31.5309 48.5632C31.9017 48.7179 32.2995 48.7975 32.7012 48.7973C33.103 48.7976 33.5009 48.718 33.8717 48.5633C34.2425 48.4086 34.5788 48.1817 34.8612 47.8959C35.4375 47.3164 35.7604 46.5319 35.7588 45.7146C35.7609 44.7531 35.3815 43.8299 34.7039 43.1477C34.3714 42.8113 33.9754 42.5444 33.5388 42.3624C33.1023 42.1803 32.6339 42.0869 32.161 42.0874C31.688 42.0871 31.2197 42.1806 30.7832 42.3626C30.3467 42.5446 29.9506 42.8115 29.618 43.1477C28.9405 43.8295 28.5611 44.7523 28.5631 45.7135C28.5588 45.7765 28.5711 45.9109 28.5695 45.9418C28.6232 46.967 29.0531 47.9365 29.777 48.6645C30.1595 49.051 30.615 49.3578 31.1169 49.5671C31.6189 49.7764 32.1574 49.884 32.7012 49.8837C33.2452 49.884 33.7837 49.7764 34.2858 49.5671C34.7878 49.3578 35.2434 49.051 35.626 48.6645C36.2975 47.9887 36.6036 47.1871 36.9594 45.9871C37.0671 45.6218 37.1956 45.041 37.1956 45.041L37.0991 46.6085Z" fill="#CD5C5C"/>
</svg>
