<svg xmlns="http://www.w3.org/2000/svg" width="262" height="112" fill="none"><path fill="url(#a)" fill-rule="evenodd" d="M256.63 86.5c.65-.7 2.94-3.53 2.81-8.13-.17-6.24-4.52-13-12.92-20.07L200.7 43.77l-35.19-28.09-37.79-5.7-.32-.04-2.9-5.72c-.03-.04-3.1-4.22-8.2-4.22l-.72.03H20.7c-4.7 0-5.9 4.64-5.97 4.92-.17.43-16.77 43-10.14 81.55h252.05ZM126.87 11.88l37.73 4.1.19.02 33.84 27.94-65.16-2.07-.5-.02-6.1-29.97Z" clip-rule="evenodd"/><path fill="#595959" d="M220.22 107.72a18.42 18.42 0 1 0 0-36.85 18.42 18.42 0 0 0 0 36.85Zm-175.35-.27a18.43 18.43 0 1 0 0-36.85 18.43 18.43 0 0 0 0 36.85Z"/><path fill="#F66" d="M210.2 57.93c0 .11-.09.2-.2.2-.1 0-.18-.08-.18-.2h.37Zm-1.02-1.09h.1l.06.02.1.02.04.01.05.02.09.04.04.02.09.06.07.06.04.04.04.03.03.04.03.04.03.04.03.04.03.05.02.04.03.05.02.05.02.05.01.05.02.05.01.05.01.12v.11h-.37V57.83l-.03-.1-.02-.05-.04-.09-.02-.02-.01-.03-.09-.1-.05-.04-.02-.02-.06-.03-.05-.03h-.03l-.06-.03-.07-.01-.06-.01h-.03v-.43Zm-.64 1.09h-.38v-.11l.02-.11.01-.05.02-.06.01-.05.02-.05.02-.05.03-.04.02-.05.03-.05.03-.04.03-.04.03-.04.03-.04.04-.03.04-.04.07-.06.04-.03.05-.02.04-.02.1-.05.04-.01.05-.02.1-.02h.15v.4h-.1l-.06.02-.07.02-.02.01-.06.03-.03.02-.05.03-.04.04-.09.1-.02.02-.01.03-.04.09-.03.06-.02.1v.11Zm1.47 1.56v.4h-.2l-.08-.02-.1-.01-.08-.03-.09-.02-.08-.03-.09-.04-.08-.04-.08-.04-.08-.05-.07-.05-.08-.06-.07-.06-.06-.06-.07-.06-.11-.14-.06-.08-.05-.07-.05-.08-.05-.09-.04-.08-.04-.09-.03-.09-.03-.09-.02-.1-.02-.09-.02-.1-.01-.1v-.1l-.01-.1h.37v.09l.01.08.01.07.02.08.01.08.02.07.03.07.05.14.03.07.04.06.04.07.04.06.04.06.05.05.05.06.05.05.05.05.06.05.05.04.06.04.06.04.07.03.06.03.07.03.07.03.07.02.07.01.07.02h.07l.08.02h.07Zm1.46-1.56h.38v.1l-.01.1-.01.1-.02.1-.02.1-.03.09-.02.09-.04.09-.04.08-.04.09-.04.08-.05.08-.06.08-.05.07-.12.14-.06.07-.07.06-.07.06-.07.05-.08.05-.07.05-.08.04-.09.04-.08.04-.08.03-.1.02-.08.03-.1.01-.08.02h-.2v-.4h.09l.07-.01.07-.01.08-.02.06-.01.07-.02.07-.03.07-.03.07-.03.06-.03.06-.04.06-.04.06-.04.05-.05.05-.05.06-.05.05-.06.04-.05.04-.06.04-.06.04-.07.04-.06.03-.07.05-.14.03-.07.02-.07.02-.08.01-.08v-.07l.01-.08v-.08h.01Zm-2.29-2.44v-.4h.27l.14.02.13.03.13.03.12.04.13.04.12.06.12.05.11.06.11.07.11.08.1.08.1.08.1.1.1.09.08.1.09.1.08.1.07.12.07.11.06.12.06.12.05.13.05.13.04.13.04.13.03.14.03.14.01.14.01.15v.14h-.37v-.12l-.01-.13-.01-.12-.02-.12-.03-.12-.03-.11-.04-.12-.04-.11-.04-.1-.05-.11-.06-.1-.06-.1-.06-.1-.06-.09-.08-.09-.07-.08-.08-.08-.09-.08-.08-.07-.1-.07-.09-.06-.1-.06-.1-.06-.1-.04-.1-.05-.1-.04-.12-.03-.1-.03-.12-.02-.11-.02h-.12l-.12-.01v.01Zm-2.29 2.44h-.37V57.64l.03-.14.02-.14.03-.14.04-.14.04-.13.05-.13.05-.12.06-.12.06-.12.07-.12.07-.1.08-.12.09-.1.08-.1.1-.1.1-.08.1-.09.1-.08.1-.07.12-.07.12-.06.11-.06.13-.05.12-.04.13-.04.13-.03.13-.03.13-.02h.27v.4h-.12l-.12.01-.11.02-.11.02-.11.03-.11.03-.1.04-.11.04-.1.05-.1.05-.1.06-.1.07-.08.06-.1.08-.07.07-.08.08-.08.09-.07.09-.07.09-.06.1-.06.1-.06.1-.05.1-.04.1-.04.12-.04.11-.03.12-.02.12-.02.12-.02.12v.25-.01Zm3.12 3.32v.4h-.36l-.17-.03-.17-.04-.17-.04-.16-.05-.17-.05-.16-.07-.15-.07-.15-.09-.15-.09-.14-.1-.14-.1-.13-.11-.13-.12-.12-.12-.11-.13-.11-.14-.1-.14-.1-.14-.1-.15-.08-.16-.08-.16-.07-.16-.06-.17-.05-.18-.05-.17-.04-.18-.03-.19-.03-.19-.01-.19v-.19h.37v.17l.01.17.03.17.02.16.04.16.04.16.05.15.05.15.07.14.07.15.07.14.08.13.09.13.1.13.09.12.1.11.11.11.11.1.12.1.12.1.13.08.13.08.13.08.14.06.14.06.15.05.15.05.15.04.15.03.16.02.16.01h.16v.01Zm3.12-3.32h.37v.2l-.01.18-.03.2-.03.18-.04.18-.05.17-.05.18-.07.17-.07.16-.07.16-.09.16-.09.15-.1.14-.1.14-.1.14-.12.13-.13.12-.12.12-.13.11-.14.1-.14.1-.15.1-.15.08-.15.07-.16.07-.16.05-.17.05-.17.04-.17.04-.18.02-.17.01H210v-.4h.16l.16-.02.16-.02.15-.03.15-.03.15-.05.14-.05.15-.06.14-.07.13-.07.13-.08.13-.09.12-.1.12-.09.11-.1.1-.11.11-.12.1-.12.1-.12.08-.13.08-.14.07-.14.07-.14.07-.14.05-.15.05-.16.04-.15.04-.16.03-.17.02-.16v-.17l.01-.17v-.01Zm-3.95-4.2v-.4h.23l.22.02.21.02.21.05.21.05.2.06.21.07.2.09.19.09.18.1.18.11.18.12.17.13.16.13.16.15.15.15.14.16.14.17.12.17.13.19.1.18.11.2.1.2.08.2.08.21.07.22.06.22.05.22.04.22.02.23.02.24v.23h-.37v-.21l-.02-.21-.02-.21-.04-.2-.04-.21-.06-.2-.06-.2-.07-.18-.08-.2-.09-.17-.09-.18-.1-.17-.1-.17-.13-.16-.12-.15-.13-.14-.14-.14-.14-.14-.15-.12-.15-.12-.16-.1-.17-.1-.17-.1-.17-.09-.18-.07-.18-.07-.19-.05-.2-.05-.19-.04-.2-.03-.2-.01-.2-.01Zm-3.94 4.2h-.37v-.24l.02-.23.03-.23.04-.23.04-.22.06-.22.07-.21.08-.21.09-.2.1-.2.1-.2.1-.19.13-.18.13-.17.13-.17.15-.16.14-.15.16-.15.16-.14.18-.12.17-.12.18-.11.19-.1.19-.1.2-.08.2-.07.2-.06.2-.06.22-.04.22-.03.22-.01.22-.01v.4l-.2.01-.2.02-.2.03-.2.04-.2.04-.18.06-.19.06-.18.08-.17.08-.17.1-.17.1-.16.1-.15.13-.15.12-.14.13-.14.14-.13.15-.12.15-.12.16-.11.16-.1.18-.1.17-.09.18-.08.2-.07.18-.06.2-.05.2-.05.2-.03.2-.02.21-.02.21v.22Zm4.77 5.09v.4h-.26l-.27-.03-.25-.03-.26-.05-.25-.06-.24-.07-.24-.1L208 63l-.22-.11-.22-.12-.22-.13-.2-.15-.21-.15-.2-.16-.18-.18-.18-.18-.17-.19-.16-.2-.15-.2-.15-.22-.13-.23-.13-.23-.11-.23-.1-.25-.1-.25-.07-.25-.07-.26-.06-.27-.05-.27-.03-.27-.02-.28v-.28h.37v.26l.02.26.03.25.05.25.05.25.06.24.08.23.08.23.1.23.1.22.12.21.12.2.13.2.15.2.15.18.15.18.17.17.17.16.19.15.18.14.2.13.2.12.2.11.21.1.22.1.22.08.23.06.23.06.24.05.24.03.24.02h.25l-.01.02Zm4.77-5.09h.37v.28l-.02.28-.04.28-.04.27-.06.26-.07.26-.08.26-.1.25-.1.24-.11.24-.13.23-.13.22-.14.22-.15.2-.16.2-.17.2-.18.18-.19.17-.2.16-.2.16-.2.14-.22.13-.22.12-.23.11-.23.1-.24.09-.25.07-.25.06-.25.05-.26.04-.26.02h-.26v-.4h.24l.25-.03.24-.03.23-.05.23-.05.23-.07.22-.08.22-.1.21-.1.2-.1.2-.13.2-.13.19-.14.18-.15.17-.16.17-.17.16-.17.15-.19.14-.2.13-.19.13-.2.11-.22.1-.22.1-.22.09-.23.07-.24.07-.24.05-.25.04-.25.03-.25.02-.26v-.26Zm-5.6-5.96v-.41l.41.01.4.03.37.04.37.06.34.07.33.1.31.1.3.1.28.14.27.14.25.15.24.17.23.18.2.19.2.2.18.21.17.22.16.24.14.24.13.25.12.26.1.26.1.28.08.28.07.29.06.3.04.3.05.3.03.3.02.32.01.32v.32h-.37v-.3l-.01-.32-.02-.3-.03-.3-.04-.28-.05-.29-.05-.28-.07-.27-.08-.26-.08-.25-.1-.25-.11-.24-.12-.23-.13-.22-.14-.22-.15-.2-.17-.2-.18-.18-.19-.17-.2-.16-.22-.16-.24-.14-.24-.13-.27-.12-.28-.1-.3-.1-.3-.09-.33-.07-.34-.05-.37-.04-.38-.03-.4-.01Zm-6.04 6.02-.38-.02.01-.25.03-.26.03-.27.05-.27.05-.27.07-.27.08-.27.08-.28.1-.27.12-.27.12-.27.13-.26.15-.26.16-.26.18-.25.19-.25.2-.23.2-.23.23-.22.24-.2.26-.2.26-.18.29-.16.3-.16.3-.14.33-.12.34-.1.36-.09.36-.07.39-.05.4-.03h.41v.4l-.4.01-.37.03-.37.05-.35.06-.33.08-.32.1-.3.11-.3.13-.28.15-.27.15-.24.17-.24.18-.22.2-.22.2-.2.2-.18.23-.18.22-.16.24-.15.24-.14.24-.13.26-.11.25-.1.26-.1.25-.08.26-.08.26-.06.26-.05.25-.04.26-.04.25-.02.24-.01.24Zm6.86 6.79.02.4-.4.02h-.4l-.38-.04-.38-.05-.37-.08-.36-.1-.35-.12-.35-.13-.33-.16-.32-.17-.3-.2-.3-.2-.29-.22-.27-.23-.26-.25-.25-.26-.23-.27-.23-.28-.2-.28-.2-.3-.18-.3-.16-.32-.15-.31-.13-.32-.12-.33-.1-.32-.09-.33-.07-.34-.05-.33-.03-.33-.02-.33v-.32l.38.01v.3l.01.31.03.31.05.31.07.31.08.31.09.31.11.3.13.31.14.3.15.3.17.28.19.29.2.27.2.27.23.25.23.24.25.24.26.22.27.2.28.2.3.18.3.17.31.14.32.13.33.11.34.1.35.07.36.05.36.03h.38l.38-.01v-.01Zm6.51-6.88h.38l-.01.37-.02.37-.04.36-.05.35-.06.34-.08.34-.1.33-.1.32-.13.31-.13.3-.15.3-.17.3-.17.27-.19.26-.2.26-.22.25-.22.23-.24.22-.25.22-.27.2-.28.19-.29.17-.3.17-.3.15-.33.14-.34.12-.34.11-.36.1-.36.08-.38.07-.38.06-.4.03-.03-.4.38-.04.38-.05.36-.07.35-.08.34-.1.33-.1.32-.12.3-.13.3-.14.29-.16.27-.17.26-.17.25-.2.24-.19.22-.21.21-.22.2-.23.2-.24.17-.25.17-.26.15-.27.14-.27.12-.29.12-.3.1-.3.09-.3.07-.33.07-.32.04-.34.04-.34.02-.35v-.35h.01Zm0 0c0-.11.08-.2.19-.2.1 0 .19.08.19.2h-.38Z"/><path fill="#F66" d="M209.57 59.51c.82 0 1.47-.71 1.47-1.6 0-.88-.65-1.6-1.47-1.6s-1.46.72-1.46 1.6c0 .89.65 1.6 1.46 1.6Zm-178.12-2.8c0 .13-.1.24-.21.24-.12 0-.22-.1-.22-.23h.43Zm-1.16-.77v-.47H30.46l.06.02.06.01.06.02.1.04.05.02.05.03.1.07.04.03.05.04.04.04.04.04.04.04.04.05.03.04.03.05.04.06.02.05.05.1.02.06.04.12.01.07.01.06.01.06v.13h-.43V56.6l-.02-.08-.02-.07-.03-.07-.02-.03-.01-.03-.07-.1-.02-.03-.05-.05-.05-.05-.06-.04-.06-.04-.03-.01-.07-.03h-.03l-.07-.02-.08-.01h-.04Zm-.74.78h-.43v-.13l.01-.06.01-.06.02-.07.03-.12.02-.05.05-.11.03-.05.03-.06.03-.05.04-.04.03-.05.04-.04.04-.04.05-.04.04-.04.05-.03.1-.07.04-.03.05-.02.1-.04.06-.02.06-.01.06-.01.06-.01h.12v.47h-.12l-.07.02h-.03L30 56l-.1.05-.05.04-.06.05-.02.02-.05.06-.02.03-.04.06-.02.03-.02.03-.03.07-.02.07-.01.08v.13Zm1.69 1.79v.47h-.11l-.1-.01-.11-.02-.1-.02-.1-.02-.1-.03-.1-.04-.1-.04-.1-.04-.09-.05-.09-.06-.08-.06-.09-.06-.08-.07-.07-.07-.08-.07-.07-.08-.06-.09-.06-.08-.06-.1-.06-.08-.05-.1-.05-.1-.04-.1-.04-.1-.03-.1-.03-.11-.03-.11-.01-.11-.02-.12V56.71h.42v.1l.01.08.01.1.02.08.01.09.03.08.03.08.03.08.03.08.04.08.04.08.05.07.1.14.04.07.06.06.06.06.06.05.06.06.07.04.07.05.07.05.07.03.08.04.07.03.08.03.08.02.09.02.08.02.08.01h.1l.08.01h-.01Zm1.68-1.8h.43v.24l-.02.11-.02.11-.02.11-.03.11-.04.1-.03.11-.05.1-.04.1-.05.1-.06.08-.06.1-.06.08-.07.08-.07.08-.07.08-.08.07-.08.06-.08.07-.09.05-.08.06-.1.05-.09.04-.1.05-.09.03-.1.03-.1.03-.1.02-.11.01h-.1l-.12.01v-.47h.18l.08-.02.09-.02.08-.02.08-.02.07-.03.08-.03.07-.04.07-.03.07-.05.07-.04.07-.05.06-.05.07-.06.05-.06.06-.06.05-.07.05-.07.05-.06.04-.08.04-.07.04-.08.03-.08.03-.08.03-.08.03-.09.01-.09.02-.08v-.1l.02-.08v-.1Zm-2.64-2.8v-.47h.16l.16.01.15.03.15.02.15.04.15.04.14.06.14.05.13.07.14.07.12.08.13.09.12.09.11.1.11.1.11.1.1.12.1.12.1.13.08.13.08.13.07.14.07.14.06.15.06.15.05.15.04.15.03.17.03.16.02.16.01.17v.16h-.42v-.14l-.02-.14-.02-.14-.02-.14-.03-.14-.04-.13-.04-.13-.05-.13-.05-.12-.06-.12-.06-.12-.07-.12-.07-.1-.08-.11-.08-.1-.1-.1-.08-.1-.1-.08-.1-.09-.1-.08-.1-.07-.12-.07-.11-.06-.12-.06-.12-.05-.12-.04-.13-.04-.13-.03-.13-.02-.13-.02-.13-.01h-.14v-.01Zm-2.63 2.8h-.44v-.16l.02-.17.02-.16.03-.16.03-.16.04-.16.05-.15.06-.15.06-.15.07-.14.07-.14.08-.13.09-.13.09-.13.1-.11.1-.12.1-.1.12-.11.11-.1.12-.09.13-.08.13-.08.13-.08.14-.06.14-.06.14-.05.14-.05.15-.03.15-.03.16-.02.15-.02h.16v.47h-.14l-.13.01-.13.02-.13.03-.13.03-.13.04-.12.04-.12.05-.11.06-.12.06-.11.07-.1.07-.11.08-.1.08-.1.1-.09.09-.09.1-.08.1-.08.1-.07.11-.07.12-.06.12-.06.12-.05.12-.05.13-.04.13-.04.13-.03.14-.02.14-.02.14-.01.14v.14Zm3.58 3.83V61l-.2-.01-.2-.02-.2-.02-.2-.04-.2-.05-.2-.06-.18-.07-.18-.07-.18-.1-.17-.08-.17-.1-.16-.12-.16-.12-.15-.12-.15-.14-.14-.14-.13-.15-.13-.16-.12-.16-.1-.17-.11-.17-.1-.18-.09-.19-.08-.19-.07-.2-.07-.2-.05-.2-.05-.2-.03-.22-.03-.22v-.22l-.02-.21h.44v.19l.01.2.03.19.03.18.04.19.05.18.05.18.07.17.07.17.08.17.09.16.1.15.1.15.1.14.11.14.12.14.13.12.12.12.14.12.14.1.15.1.14.1.16.08.16.08.17.07.16.06.17.05.18.04.17.04.19.02.18.01h.18v.02Zm3.6-3.82h.42v.22l-.02.21-.02.22-.04.21-.04.21-.06.2-.06.2-.07.2-.08.2-.1.18-.1.18-.1.17-.1.17-.13.16-.12.16-.13.15-.14.14-.15.14-.15.12-.16.12-.16.11-.17.1-.17.1-.18.09-.18.07-.19.07-.19.06-.2.05-.2.04-.2.02-.2.02h-.2v-.46h.18l.18-.02.18-.02.18-.04.17-.04.17-.05.17-.06.16-.07.16-.08.16-.08.15-.1.15-.1.14-.1.13-.12.13-.12.13-.12.12-.14.1-.13.12-.15.1-.15.09-.15.09-.16.08-.17.07-.17.06-.17.06-.18.05-.18.04-.18.03-.2.03-.18v-.2l.01-.2Zm-4.55-4.84v-.47h.26l.25.03.25.03.24.05.24.06.24.07.23.08.23.1.21.1.22.12.2.13.21.14.2.15.18.15.18.17.18.17.16.19.16.19.15.2.13.21.13.22.12.22.11.23.1.23.1.24.07.25.06.25.06.26.04.26.04.26.02.27v.28h-.43v-.25l-.02-.25-.03-.24-.04-.24-.05-.23-.06-.23-.07-.23-.08-.22-.1-.21-.1-.21-.1-.2-.12-.2-.13-.19-.13-.18-.14-.17-.15-.17-.16-.16-.16-.16-.17-.14-.18-.13-.19-.13-.19-.12-.2-.1-.2-.1-.2-.09-.21-.08-.22-.06-.22-.05-.22-.05-.23-.03-.23-.01-.23-.01Zm-4.97 4.84.01-.28.02-.27.03-.26.05-.26.05-.26.07-.25.08-.25.09-.24.1-.23.1-.23.12-.22.13-.22.14-.2.15-.21.15-.2.17-.18.17-.17.18-.17.2-.15.19-.15.2-.14.2-.13.22-.12.22-.1.23-.1.23-.08.23-.07.24-.06.25-.05.25-.03.25-.02.25-.01v.47h-.23l-.23.02-.23.03-.22.05-.22.05-.21.06-.22.08-.2.09-.2.1-.2.1-.19.12-.18.13-.18.13-.17.14-.17.16-.15.16-.15.17-.14.17-.14.18-.13.2-.11.19-.11.2-.1.2-.1.22-.07.22-.07.23-.07.23-.04.23-.05.24-.02.24-.02.25v.25h-.45Zm5.92 5.85v.47l-.3-.01-.3-.03-.3-.04-.29-.05-.28-.07-.28-.09-.28-.1-.27-.1-.26-.13-.25-.14-.25-.15-.24-.17-.23-.17-.23-.2-.21-.19-.2-.2-.2-.23-.19-.23-.17-.24-.16-.24-.16-.26-.14-.27-.13-.27-.12-.28-.1-.29-.1-.29-.08-.3-.06-.3-.06-.31-.03-.32-.03-.32v-.33h.43v.3l.02.3.04.3.05.28.06.28.07.28.09.27.1.27.1.26.12.25.14.24.14.24.15.23.17.22.17.22.18.2.2.2.19.18.2.17.22.16.23.16.23.14.23.13.25.12.25.1.25.1.26.07.27.07.27.05.27.04.28.02.28.01v-.01Zm5.5-5.85h.42v.32l-.03.32-.04.32-.05.31-.06.3-.08.3-.1.3-.1.29-.12.27-.13.28-.15.26-.15.26-.16.25-.18.24-.18.23-.2.21-.2.21-.22.2-.22.19-.23.18-.24.16-.25.15-.25.14-.27.13-.26.11-.28.1-.28.08-.29.07-.29.06-.3.04-.3.02h-.3v-.46h.29l.27-.03.28-.04.27-.05.27-.07.26-.08.25-.09.25-.1.24-.12.24-.13.23-.14.22-.16.22-.16.2-.17.2-.19.2-.2.18-.2.17-.2.17-.23.15-.23.14-.24.13-.24.13-.25.1-.26.1-.27.09-.27.07-.28.06-.28.05-.29.03-.29.03-.3v-.3.02Zm-6.45-6.87v-.47l.48.01.45.03.44.05.41.07.4.08.38.1.36.12.34.13.33.15.31.16.3.18.27.19.26.2.24.22.22.24.21.24.2.26.17.27.17.28.15.28.13.3.12.31.11.32.1.32.08.33.07.34.06.34.04.35.04.36.02.36.02.37v.37h-.43v-.36L36.7 56l-.02-.35-.04-.34-.04-.33-.06-.33-.06-.32-.08-.31-.09-.3-.1-.3-.11-.28-.13-.28-.13-.26-.15-.26-.17-.24-.18-.23-.19-.22-.2-.22-.23-.2-.23-.19-.25-.17-.27-.17-.29-.15-.3-.14-.32-.13-.34-.1-.36-.1L32 50l-.4-.06-.42-.05-.44-.03-.46-.01Zm-6.96 6.93-.43-.02.02-.3.03-.29.04-.3.05-.32.06-.31.08-.31.09-.32.1-.31.12-.32.12-.3.15-.32.15-.3.17-.3.19-.3.2-.29.21-.28.23-.27.25-.26.26-.25.27-.24.3-.22.3-.2.33-.2.34-.18.36-.16.37-.14.4-.13.4-.1.43-.08.44-.05.46-.03.47-.01v.47h-.46l-.43.04-.43.05-.4.07-.39.1-.36.11-.36.13-.33.15-.32.17-.3.18-.3.2-.26.2-.26.23-.24.23-.23.24-.22.26-.2.26-.19.27-.17.27-.16.28-.15.3-.14.29-.12.29-.1.3-.1.29-.09.3-.07.3-.06.28-.05.3-.04.28-.02.28-.02.28.01.01Zm7.9 7.82.03.47-.46.02-.46-.01-.44-.04-.44-.06-.42-.09-.42-.1-.4-.14-.4-.16-.37-.18-.37-.2-.36-.22-.34-.23-.33-.26-.3-.27-.3-.28-.3-.3-.26-.31-.26-.32-.24-.34-.22-.34-.2-.35-.2-.36-.17-.37-.15-.36-.13-.38-.12-.38-.1-.38-.08-.38-.06-.38-.04-.39-.02-.38v-.37l.44.02v.35l.01.35.04.35.05.36.08.36.09.35.1.36.14.35.14.35.16.34.18.34.2.33.2.33.23.3.24.32.26.29.27.28.28.27.3.25.31.24.33.22.33.21.35.19.36.17.36.15.39.13.4.1.4.08.4.06.43.04h.43l.44-.02-.01.02Zm7.5-7.92h.43v.43l-.03.42-.05.4-.05.41-.08.4-.1.39-.1.38-.12.37-.14.36-.16.35-.17.34-.19.33-.2.32-.22.3-.23.3-.25.28-.26.27-.27.26-.3.24-.3.23-.32.22-.33.2-.34.19-.36.17-.37.16-.39.14-.4.13-.4.11-.43.1-.43.07-.45.06-.46.05-.03-.47.45-.04.42-.06.42-.08.4-.09.4-.1.38-.13.36-.13.36-.15.34-.17.33-.18.3-.19.3-.2.3-.22.27-.23.26-.24.25-.26.23-.26.22-.28.2-.3.2-.29.17-.31.16-.32.15-.33.13-.33.12-.35.1-.36.09-.37.07-.37.05-.39.05-.39.02-.4v-.4Zm0 0c0-.13.1-.24.21-.24.12 0 .22.1.22.24h-.43Z"/><path fill="#F66" d="M30.74 58.53c.93 0 1.69-.82 1.69-1.83s-.76-1.84-1.69-1.84c-.93 0-1.69.82-1.69 1.83s.76 1.84 1.69 1.84Zm90.34-3.97c0 .1-.08.2-.19.2-.1 0-.18-.1-.18-.2h.37Zm-.98-.65v-.4h.05l.05.01h.05l.1.03.04.01.05.02.04.02.04.02.09.05.07.05.04.03.04.04.06.07.03.04.03.04.02.04.03.04.02.04.04.1.04.1.01.04.01.05.02.1v.11h-.36v-.1l-.03-.1v-.02l-.02-.04v-.02l-.04-.06-.01-.02-.02-.03-.04-.05-.04-.05-.02-.02-.1-.07-.02-.01-.03-.02-.08-.03h-.03l-.03-.01-.06-.01h-.04Zm-.6.65h-.37v-.11l.02-.1.01-.05.01-.05.04-.1.04-.09.03-.04.02-.04.02-.04.03-.04.03-.04.07-.07.03-.03.04-.03.08-.06.08-.05.04-.02.1-.03.04-.02.1-.02h.14v.38h-.09l-.03.01-.03.01-.09.03-.02.02-.03.01-.03.02-.07.05-.02.02-.02.03-.02.02-.04.05-.01.02-.02.03-.03.05v.03l-.02.03-.01.03-.02.1v.09Zm1.4 1.5v.38h-.19l-.08-.02-.09-.02-.08-.02-.09-.02-.08-.03-.08-.04-.08-.03-.07-.05-.08-.04-.07-.05-.07-.05-.06-.06-.06-.06-.07-.06-.06-.07-.05-.06-.05-.08-.05-.07-.05-.08-.04-.08-.04-.08-.03-.08-.03-.09-.03-.09-.03-.09-.02-.09-.01-.09-.01-.1v-.09l-.01-.1h.36V54.78l.04.15.01.07.03.07.02.07.03.06.03.06.03.07.04.06.04.06.04.05.05.06.04.05.05.05.05.05.06.05.05.04.06.04.06.03.06.03.06.03.06.03.07.03.07.02.07.01.07.02h.06l.08.01h.07Zm1.4-1.5h.36v.1l-.02.09v.1l-.02.09-.02.09-.02.09-.03.09-.03.08-.04.09-.04.08-.04.08-.04.07-.05.08-.06.07-.05.07-.06.06-.06.07-.07.06-.06.05-.07.05-.07.05-.08.05-.07.04-.08.04-.08.03-.08.03-.09.03-.08.02-.09.01-.09.01-.09.01h-.09v-.39H121.04l.07-.02.07-.01.07-.02.06-.02.07-.02.06-.03.06-.03.06-.03.06-.04.06-.04.05-.04.06-.04.05-.05.05-.05.04-.05.05-.06.04-.05.04-.06.03-.07.04-.06.03-.06.03-.07.02-.06.02-.07.02-.07.03-.15.01-.15v-.08Zm-2.2-2.34v-.39h.13l.13.01.13.02.13.03.12.03.12.03.12.05.11.05.12.05.1.06.12.07.1.07.1.07.1.08.1.09.08.09.08.1.09.1.07.1.07.1.07.11.06.12.06.12.05.12.05.13.04.12.03.13.03.13.03.14.01.13.01.14v.14h-.35v-.12l-.01-.12-.02-.11-.02-.12-.02-.11-.03-.11-.04-.11-.04-.11-.04-.1-.05-.1-.05-.1-.06-.1-.06-.09-.07-.08-.07-.09-.07-.08-.08-.07-.08-.08-.08-.07-.09-.06-.09-.06-.09-.06-.1-.05-.09-.05-.1-.04-.1-.04-.1-.03-.11-.02-.11-.03-.11-.01-.11-.01h-.12v-.01Zm-2.2 2.34h-.35v-.14l.01-.14.02-.14.02-.13.03-.13.04-.13.04-.13.04-.12.05-.13.06-.11.06-.12.07-.11.07-.1.08-.11.08-.1.08-.1.09-.08.1-.1.09-.07.1-.08.1-.07.11-.06.11-.06.12-.06.11-.05.12-.04.12-.04.12-.03.13-.02.13-.02.13-.01h.13v.39h-.12l-.1.01-.12.01-.1.02-.12.03-.1.03-.1.04-.1.04-.1.05-.1.05-.09.06-.09.06-.08.06-.09.07-.08.07-.08.08-.07.08-.07.09-.06.08-.07.1-.05.09-.05.1-.05.1-.05.1-.04.1-.03.12-.03.1-.03.12-.02.12-.01.11v.12l-.01.12Zm3 3.18v.4l-.18-.01-.17-.02-.17-.02-.16-.03-.16-.04-.16-.05-.16-.05-.15-.07-.15-.07-.15-.08-.14-.09-.13-.09-.13-.1-.13-.1-.12-.12-.12-.12-.1-.12-.11-.13-.1-.14-.1-.14-.08-.14-.08-.15-.08-.16-.06-.16-.06-.16-.05-.17-.05-.17-.04-.17-.02-.18-.03-.18-.01-.18v-.18h.35v.16l.02.16.02.16.02.16.04.15.04.15.05.15.05.14.06.14.07.14.07.13.08.13.08.12.1.13.08.11.1.11.1.1.11.1.12.1.11.1.13.08.12.07.13.07.13.06.14.06.14.05.14.04.15.04.14.02.15.02.15.01h.16v.03Zm2.98-3.18h.36v.18l-.02.18-.02.18-.03.18-.04.17-.04.17-.06.17-.06.16-.06.16-.07.16-.08.15-.1.14-.08.14-.1.14-.11.13-.11.12-.12.12-.12.11-.13.1-.13.11-.14.1-.14.08-.14.08-.15.07-.15.07-.16.05-.16.05-.16.04-.16.03-.17.03h-.17l-.17.01v-.39h.15l.16-.01.15-.02.14-.03.15-.03.14-.05.14-.04.13-.06.14-.06.13-.07.12-.08.12-.08.12-.1.11-.09.1-.1.11-.1.1-.11.1-.12.09-.12.08-.13.08-.12.07-.14.06-.13.06-.14.06-.15.04-.14.05-.15.03-.16.03-.15.02-.16v-.16l.01-.17v-.02Zm-3.78-4.03v-.39h.21l.2.03.21.02.2.04.21.05.2.06.19.07.19.08.18.09.18.1.17.1.17.12.16.12.16.13.15.14.14.15.13.15.13.16.12.17.12.17.1.18.1.18.1.2.08.19.08.2.06.2.06.21.04.22.04.22.02.22.02.23v.22h-.35v-.2l-.02-.21-.02-.2-.04-.2-.04-.2-.05-.19-.06-.19-.06-.18-.08-.18-.09-.17-.09-.17-.1-.16-.1-.16-.1-.15-.13-.15-.12-.14-.13-.13-.14-.13-.14-.11-.15-.12-.16-.1-.16-.1-.16-.09-.17-.08-.17-.07-.17-.06-.18-.06-.18-.05-.2-.03-.18-.02-.2-.02h-.19Zm-3.78 4.03h-.36v-.23l.02-.22.03-.23.04-.21.04-.22.06-.2.06-.21.08-.2.08-.2.1-.2.1-.18.1-.18.11-.17.13-.17.13-.16.13-.15.14-.15.15-.14.16-.13.16-.12.17-.12.17-.1.18-.1.18-.09.2-.08.18-.07.2-.06.2-.05.2-.03.21-.03.2-.02h.22v.38l-.2.01-.19.02-.18.02-.2.03-.18.05-.17.06-.18.06-.17.07-.17.08-.16.1-.16.09-.15.1-.15.11-.14.12-.14.13-.13.13-.13.14-.12.15-.1.15-.11.16-.1.16-.09.17-.08.17-.08.18-.07.18-.06.19-.05.2-.04.19-.03.2-.03.2-.01.2v.21Zm4.57 4.87v.39h-.25l-.25-.03-.25-.03-.24-.05-.24-.06-.24-.07-.23-.08-.22-.1-.22-.1-.21-.11-.2-.13-.2-.13-.2-.15-.18-.16-.18-.16-.17-.17-.17-.19-.15-.19-.15-.2-.14-.2-.13-.21-.11-.22-.11-.23-.1-.23-.09-.24-.07-.25-.07-.25-.06-.25-.04-.26-.03-.27-.02-.26v-.27h.35v.25l.03.24.02.25.05.24.05.23.06.23.07.23.08.22.1.22.1.2.1.21.13.2.12.2.14.18.14.17.15.17.16.16.17.16.17.14.18.14.19.12.19.12.2.11.2.1.2.09.22.07.22.07.22.05.23.05.23.03.23.01.24.01h-.02Zm4.57-4.87h.36v.27l-.03.27-.03.26-.04.26-.06.26-.06.25-.08.24-.09.24-.1.23-.1.23-.12.22-.13.21-.14.2-.14.2-.16.2-.17.18-.17.17-.17.17-.19.15-.19.15-.2.13-.2.13-.22.11-.21.1-.23.1-.23.09-.23.07-.24.06-.24.04-.25.04-.25.02h-.26v-.39h.24l.24-.02.22-.03.23-.04.22-.06.22-.07.21-.07.21-.09.2-.1.2-.1.2-.12.18-.13.18-.13.17-.15.17-.15.16-.16.15-.17.14-.18.14-.19.12-.19.12-.2.11-.2.1-.21.1-.22.07-.22.08-.22.06-.23.05-.24.04-.24.03-.24.02-.25v-.25Zm-5.37-5.72v-.39l.4.01.38.03.36.04.35.06.33.07.31.08.3.1.29.1.27.13.26.14.24.15.23.16.22.17.2.18.19.2.17.2.16.2.15.23.14.24.12.24.11.24.1.26.1.26.07.27.07.27.06.28.05.3.04.28.03.3.02.3v.62h-.35v-.3l-.01-.3-.02-.28-.03-.28-.04-.28-.04-.27-.06-.27-.06-.26-.08-.25-.08-.24-.1-.24-.1-.23-.11-.22-.13-.21-.13-.2-.15-.2-.16-.19-.17-.17-.19-.17-.2-.16-.2-.14-.22-.14-.24-.12-.25-.12-.27-.1-.28-.1-.3-.07-.32-.07-.33-.05-.34-.04-.37-.03h-.38v-.02Zm-5.8 5.77-.35-.01.02-.25.02-.25.03-.25.05-.26.05-.26.06-.26.07-.26.09-.26.1-.26.1-.27.12-.25.13-.26.14-.25.16-.24.16-.24.18-.23.2-.23.2-.22.21-.2.23-.2.25-.2.25-.17.28-.16.28-.14.3-.13.3-.12.34-.1.34-.09.35-.06.37-.05.38-.03h.4v.39h-.38l-.37.03-.35.04-.33.07-.32.07-.3.1-.3.1-.28.13-.26.14-.26.15-.24.17-.22.17-.22.18-.2.2-.2.2-.17.21-.17.22-.15.23-.15.23-.13.23-.12.24-.11.25-.1.25-.1.24-.07.25-.07.25-.06.24-.05.25-.04.24-.03.24-.03.23-.01.23h-.01Zm6.58 6.5.03.4-.39.02-.38-.01-.37-.03-.36-.05-.36-.07-.34-.1-.34-.11-.33-.13-.31-.15-.3-.17-.3-.18-.29-.2-.27-.21-.27-.23-.25-.23-.23-.25-.23-.26-.21-.27-.2-.27-.18-.29-.18-.3-.15-.3-.14-.3-.13-.3-.11-.32-.1-.31-.08-.32-.07-.31-.05-.32-.03-.32-.01-.31v-.32l.36.02v.29l.01.3.03.29.04.3.06.29.08.3.09.3.1.28.13.3.14.28.14.28.17.28.17.27.19.26.2.25.21.25.23.23.24.23.24.21.26.2.27.19.28.17.29.15.3.15.3.12.32.1.33.1.33.07.35.04.35.03h.72Zm6.25-6.58h.36l-.01.35-.02.35-.04.34-.04.34-.07.33-.07.33-.1.31-.1.31-.12.3-.13.3-.14.28-.16.27-.16.27-.18.25-.2.25-.2.23-.22.23-.23.22-.25.2-.25.19-.26.18-.28.17-.29.16-.3.14-.3.13-.33.12-.33.1-.34.1-.35.08-.36.07-.38.05-.38.04-.02-.4.37-.03.35-.04.35-.07.34-.07.33-.1.31-.1.31-.11.3-.13.28-.13.27-.15.26-.16.25-.17.24-.18.23-.2.21-.2.2-.2.2-.23.18-.23.17-.24.16-.25.14-.26.14-.26.12-.27.1-.29.1-.29.09-.3.07-.3.06-.31.05-.32.03-.33.02-.34v-.33h.02Zm0 0c0-.11.08-.2.18-.2.1 0 .18.09.18.2h-.36Z"/><path fill="#F66" d="M120.48 56.07c.78 0 1.4-.69 1.4-1.53 0-.84-.62-1.53-1.4-1.53-.78 0-1.4.69-1.4 1.53 0 .84.62 1.53 1.4 1.53ZM107.71 24.2c0 .17-.12.3-.28.3-.15 0-.28-.13-.28-.3h.56Zm-1.5-1v-.6H106.36l.08.01.07.02.07.01.07.02.07.03.07.03.07.03.06.03.07.04.06.04.06.05.05.05.06.05.05.05.05.05.04.06.05.07.04.06.04.06.04.07.03.07.03.07.03.07.02.08.03.07.01.08.02.08v.08l.01.08v.08h-.55v-.1l-.02-.1v-.05l-.02-.05-.02-.04-.03-.1-.02-.03-.05-.09-.02-.04-.03-.03-.03-.04-.03-.04-.04-.03-.07-.06-.07-.06-.09-.05-.04-.02-.04-.01-.04-.02-.05-.02-.09-.02H106.21Zm-.95 1h-.56v-.08l.01-.08.02-.08v-.08l.03-.08.02-.07.02-.08.03-.07.03-.08.03-.07.04-.06.04-.07.04-.06.05-.06.04-.06.05-.06.06-.05.05-.05.06-.05.06-.05.06-.04.06-.04.06-.03.07-.03.07-.03.07-.03.07-.02.07-.01.07-.02h.08l.08-.02h.07v.6h-.04l-.05.01h-.05l-.1.03-.04.01-.04.02-.04.02-.05.02-.08.05-.08.05-.07.07-.06.06-.03.04-.02.04-.03.04-.05.08-.02.04-.04.1-.01.04-.01.05-.02.05v.1l-.01.05v.05Zm2.18 2.32v.6h-.14l-.14-.01-.14-.02-.13-.02-.14-.03-.12-.04-.13-.05-.13-.05-.12-.06-.12-.06-.11-.07-.11-.08-.11-.08-.1-.08-.1-.1-.1-.1-.09-.1-.08-.1-.08-.1-.08-.12-.07-.12-.06-.12-.06-.13-.06-.13-.05-.13-.04-.13-.04-.14-.03-.15-.03-.14-.01-.14-.01-.15v-.15h.55v.12l.01.11.02.12.01.11.03.11.02.11.04.11.04.1.04.1.05.1.05.1.06.1.06.09.06.09.07.08.07.08.08.08.08.07.08.07.1.06.08.06.09.06.1.05.09.05.1.04.1.04.1.03.1.02.11.02.11.02h.12l.1.01v-.01Zm2.17-2.32h.56v.15l-.02.15-.01.15-.03.14-.03.14-.04.14-.04.14-.05.13-.05.13-.06.13-.07.12-.07.12-.08.11-.08.11-.08.1-.1.1-.09.1-.1.1-.1.08-.1.08-.12.08-.11.07-.12.06-.12.06-.13.05-.12.05-.13.04-.13.03-.14.02-.14.02h-.14l-.13.01v-.6h.1l.12-.02.1-.01.11-.02.1-.03.11-.03.1-.04.1-.04.1-.04.1-.06.08-.05.1-.06.08-.07.08-.07.08-.07.07-.08.08-.08.07-.08.06-.09.06-.09.06-.09.05-.1.05-.1.04-.1.04-.1.03-.11.03-.11.03-.11.01-.12.02-.11v-.24l.01.01Zm-3.4-3.62v-.6h.2l.2.02.2.03.2.03.19.05.19.06.18.07.18.07.18.09.17.09.16.1.16.1.16.13.15.12.14.13.14.14.13.15.13.15.11.16.12.17.1.17.1.18.08.18.08.19.07.19.06.2.06.2.04.2.04.21.02.21.01.22.01.22h-.56v-.2l-.01-.18-.02-.18-.04-.17-.03-.18-.05-.17-.05-.17-.06-.16-.07-.16-.07-.16-.09-.15-.08-.15-.1-.14-.1-.13-.1-.14-.12-.12-.12-.12-.12-.12-.13-.1-.13-.1-.14-.1-.14-.09-.15-.08-.15-.07-.15-.07-.16-.05-.16-.05-.17-.04-.16-.03-.17-.03-.18-.01h-.17v-.01Zm-3.96 3.62.01-.21.01-.22.03-.21.03-.21.05-.2.05-.2.06-.2.07-.2.08-.18.1-.19.08-.17.1-.17.12-.17.12-.16.12-.15.14-.15.14-.14.14-.13.15-.12.15-.12.17-.11.16-.1.17-.1.18-.08.18-.07.18-.07.19-.06.2-.05.19-.03.2-.03.2-.02h.2v.6h-.18l-.17.02-.17.02-.17.03-.16.04-.16.05-.16.06-.15.07-.15.07-.15.08-.14.09-.14.09-.13.1-.13.1-.13.12-.11.12-.12.13-.1.13-.1.14-.1.14-.09.15-.08.15-.08.16-.06.16-.06.16-.05.17-.05.17-.04.17-.03.18-.02.18-.01.18v.2h-.58Zm5.19 4.93v.61h-.27l-.26-.03-.26-.03-.25-.05-.25-.06-.25-.08-.24-.08-.24-.1-.22-.11-.23-.12-.21-.14-.21-.14-.2-.15-.2-.17-.19-.17-.18-.18-.17-.2-.16-.2-.16-.2-.14-.22-.14-.23-.12-.23-.12-.24-.1-.25-.1-.25-.08-.25-.07-.27-.05-.27-.05-.27-.03-.28-.03-.28v-.28h.55l.01.25.02.25.03.25.04.24.05.24.06.23.08.23.08.23.09.22.1.2.11.21.12.2.13.2.14.19.15.17.15.17.16.17.17.15.17.15.18.14.19.13.2.12.2.1.2.1.2.09.22.08.22.06.22.06.23.04.23.03.24.02h.24Zm4.63-4.93h.56l-.01.29-.02.28-.04.28-.04.27-.06.27-.07.26-.08.26-.1.25-.1.24-.12.24-.12.24-.14.22-.14.22-.16.2-.16.21-.17.2-.18.18-.19.17-.2.16-.2.16-.2.14-.22.13-.22.12-.23.12-.24.1-.24.08-.25.07-.25.07-.25.04-.26.04-.26.02h-.27v-.6h.24l.24-.02.23-.03.23-.05.22-.05.22-.07.22-.07.2-.1.21-.09.2-.1.2-.13.18-.12.18-.14.18-.15.16-.16.16-.16.16-.17.14-.18.14-.19.13-.2.12-.19.11-.2.1-.22.1-.22.08-.22.07-.23.06-.23.05-.24.05-.25.02-.24.02-.25v-.26Zm-5.85-6.23v-.6h.33l.32.03.32.04.32.06.3.07.31.1.3.1.3.12.28.14.27.15.27.16.26.18.25.2.25.2.23.2.22.23.22.24.2.25.19.26.18.26.16.28.16.29.14.3.13.3.12.3.1.32.08.33.08.33.05.34.04.34.03.35v.35h-.55v-.32l-.03-.32-.04-.31-.05-.3-.07-.31-.08-.3-.09-.28-.1-.29-.12-.27-.13-.27-.14-.26-.15-.25-.16-.25-.18-.24-.18-.22-.2-.22-.2-.2-.21-.2-.22-.18-.23-.18-.24-.16-.24-.15-.25-.14-.26-.12-.27-.11-.27-.1-.28-.09-.28-.07-.29-.05-.29-.04-.3-.02-.3-.01h-.02Zm-5.86 6.23h-.56l.01-.35.03-.35.04-.34.05-.34.08-.33.08-.32.1-.32.12-.31.13-.3.14-.3.16-.28.16-.28.18-.27.2-.26.2-.24.2-.24.23-.23.23-.21.25-.2.25-.2.26-.17.27-.17.27-.15.28-.13.3-.12.3-.11.3-.1.3-.07.32-.06.32-.04.33-.03h.33v.6h-.3l-.3.03-.29.04-.29.06-.28.06-.28.09-.27.1-.27.1-.25.13-.26.14-.24.15-.24.17-.23.17-.22.18-.21.2-.2.2-.2.22-.18.23-.18.23-.16.25-.15.25-.14.26-.13.27-.12.27-.1.29-.1.28-.08.3-.06.3-.05.31-.04.31-.03.32v.32Zm7.08 8.15h-.4l-.38-.04-.38-.05-.38-.07-.37-.1-.36-.1-.35-.13-.35-.15-.34-.16-.33-.18-.32-.2-.31-.21-.3-.23-.29-.24-.28-.26-.26-.27-.26-.28-.24-.3-.22-.3-.22-.32-.2-.33-.18-.34-.17-.35-.15-.37-.14-.37-.12-.37-.1-.4-.09-.38-.06-.4-.05-.42-.03-.4-.01-.43h.55l.01.39.03.38.05.38.06.37.08.37.1.35.1.36.13.34.14.33.16.32.17.32.19.3.2.3.2.29.23.27.23.26.25.26.25.23.27.22.28.21.29.2.3.18.3.17.31.15.32.13.33.12.34.1.34.08.35.07.36.05.35.03h.37v.62Zm7.08-8.15h.56l-.02.42-.03.42-.05.4-.06.4-.09.4-.1.39-.12.38-.14.37-.15.36-.17.35-.19.34-.2.33-.2.32-.23.3-.24.3-.26.29-.26.27-.28.26-.29.24-.3.22-.3.21-.33.2-.32.18-.34.16-.35.15-.36.13-.36.11-.37.09-.37.07-.38.06-.4.03h-.38v-.6h.36l.36-.04.35-.05.35-.06.34-.08.34-.1.33-.12.32-.14.32-.15.3-.17.3-.18.29-.2.27-.2.27-.22.26-.24.25-.25.23-.26.22-.28.21-.28.2-.3.18-.3.18-.32.15-.33.15-.33.12-.34.11-.35.1-.36.08-.37.06-.37.04-.37.03-.39.01-.39Zm-8.31-8.85v-.6l.62.01.58.04.56.06.54.1.51.1.49.13.46.15.44.17.43.19.4.2.37.24.35.25.34.26.31.28.3.3.27.32.25.33.23.34.2.36.2.37.17.39.16.4.14.4.12.42.1.43.1.43.07.45.06.45.04.46.04.47.01.47v.48h-.55v-.46l-.02-.46-.03-.45-.04-.44-.06-.43-.07-.42-.08-.41-.1-.4-.12-.39-.12-.38-.15-.37-.16-.35-.18-.34-.2-.33-.2-.32-.24-.3-.24-.29-.27-.28-.28-.25-.3-.25-.34-.22-.34-.21-.37-.2-.4-.18-.4-.16-.45-.14-.46-.12-.49-.1-.5-.09-.55-.06-.56-.04-.6-.02Zm-8.98 8.94-.56-.02.03-.38.03-.39.06-.4.06-.39.09-.4.1-.4.1-.41.14-.41.15-.4.17-.41.18-.4.2-.4.22-.38.24-.38.26-.37.27-.36.3-.35.31-.34.34-.32.35-.3.38-.3.4-.26.41-.25.44-.23.46-.2.49-.19.5-.16.53-.12.55-.1.57-.08.59-.04.61-.01v.6l-.6.02-.56.03-.54.07-.52.1-.5.12-.47.15-.45.17-.43.19-.41.21-.4.23-.36.25-.36.27-.33.29-.31.3-.3.31-.27.33-.26.33-.24.35-.22.36-.2.37-.2.37-.17.37-.15.38-.14.39-.13.38-.1.38-.1.39-.08.37-.06.38-.05.37-.04.36-.02.36Zm10.18 10.08.04.6-.6.03-.58-.01-.58-.05-.56-.08-.55-.1-.54-.15-.52-.18-.5-.2-.5-.23-.47-.26-.46-.28-.44-.3-.42-.34-.41-.34-.39-.37-.37-.38-.34-.4-.33-.42-.3-.43-.3-.44-.26-.45-.24-.46-.23-.47-.2-.48-.17-.48-.15-.49-.12-.5-.1-.48-.08-.5-.05-.49-.03-.49.01-.48.56.02v.45l.02.45.04.46.07.46.1.46.11.46.15.45.16.46.19.45.2.45.24.43.25.43.27.42.29.4.31.4.33.38.35.36.36.35.39.33.4.31.42.3.43.26.45.24.46.22.48.2.49.16.5.13.52.11.53.08.54.04h.56l.57-.02Zm9.68-10.22h.55v.55l-.04.55-.05.53-.08.52-.1.51-.12.5-.13.5-.16.47-.19.47-.2.45-.22.44-.24.42-.26.41-.28.4-.3.38-.32.37-.34.34-.36.33-.37.32-.4.3-.4.28-.43.26-.45.24-.46.22-.48.2-.5.2-.5.16-.54.14-.54.12-.56.1-.58.08-.59.06-.04-.6.57-.06.56-.08.54-.1.52-.12.5-.14.5-.15.47-.18.46-.2.43-.2.43-.23.4-.25.39-.26.36-.29.36-.3.33-.3.32-.33.3-.34.28-.36.26-.37.25-.4.22-.39.21-.4.19-.43.17-.44.15-.45.13-.46.11-.47.1-.49.07-.5.05-.5.03-.51.01-.53v.01Zm0 0c0-.16.12-.3.28-.3.15 0 .27.14.27.3h-.55Z"/><path fill="#F66" d="M106.8 26.56c1.2 0 2.17-1.07 2.17-2.37s-.97-2.38-2.18-2.38c-1.2 0-2.18 1.07-2.18 2.37s.98 2.38 2.18 2.38Zm-78.5-3.92c0 .11-.08.2-.17.2-.1 0-.18-.1-.18-.2h.35Zm-.95-.64v-.38h.14l.1.03.04.01.09.04.08.04.04.02.08.06.07.06.03.04.04.03.03.04.03.04.02.04.03.04.02.04.04.1.02.04.03.1v.04l.01.05.01.06v.1h-.35v-.03l-.01-.1-.02-.06v-.03l-.03-.06-.03-.05v-.03l-.06-.07-.06-.06-.03-.02-.05-.04-.05-.02-.02-.02-.06-.02-.06-.01-.03-.01h-.09Zm-.96.64v-.1l.01-.05v-.05l.02-.05.02-.1.02-.04.04-.1.02-.04.03-.04.03-.04.02-.04.04-.04.03-.03.03-.04.07-.06.08-.05.04-.03.08-.04.1-.03.04-.02.09-.02h.05l.05-.01h.05v.39H27.26l-.04.01-.05.01-.06.03h-.02l-.05.04-.05.03-.03.02-.06.07-.05.07-.02.02-.02.06-.02.05-.01.04-.02.06V22.64h-.37Zm1.74 1.47v.39h-.1l-.08-.01-.09-.01-.08-.02-.09-.02-.08-.03-.08-.02-.08-.04-.08-.04-.07-.04-.08-.04-.07-.05-.06-.05-.07-.06-.06-.06-.06-.06-.06-.06-.06-.07-.05-.07-.05-.07-.04-.08-.05-.08-.03-.08-.04-.08-.03-.08-.03-.09-.02-.09-.02-.09-.02-.09v-.1l-.01-.09v-.09h.35V22.79l.03.15.01.07.02.06.02.07.03.07.02.07.07.12.03.06.04.06.04.05.04.05.05.06.05.05.04.04.06.04.05.04.06.04.06.04.06.03.06.03.06.03.07.02.06.02.07.02.07.01.07.01.07.01h.07Zm1.38-1.47h.35v.2l-.02.09-.01.09-.02.09-.03.08-.03.09-.03.08-.03.09-.04.08-.04.07-.05.08-.05.07-.05.07-.05.07-.06.07-.06.05-.06.06-.07.06-.07.05-.07.05-.07.05-.08.04-.08.04-.08.03-.08.03-.08.02-.08.02-.09.02-.08.01h-.1l-.08.01v-.38h.07l.07-.02h.07l.07-.02.07-.02.06-.02.07-.02.06-.03.06-.03.06-.03.06-.04.06-.04.05-.04.06-.04.05-.04.04-.05.05-.06.04-.05.04-.05.04-.06.04-.06.06-.12.03-.07.02-.07.02-.07.02-.06.01-.07.02-.15.01-.07v-.08Zm-2.16-2.3v-.38h.12l.13.01.13.02.12.02.13.03.11.04.12.04.12.05.1.05.12.06.1.07.1.07.1.07.1.08.08.09.1.09.07.09.08.1.08.1.07.1.06.11.06.11.06.12.05.12.05.12.03.12.04.13.03.13.02.13.02.14v.13l.01.14h-.35v-.12l-.01-.11-.02-.12-.01-.11-.03-.11-.03-.1-.03-.12-.04-.1-.04-.1-.05-.1-.05-.1-.06-.1-.06-.09-.06-.08-.07-.09-.07-.08-.08-.07-.08-.08-.08-.06-.08-.07-.09-.06-.09-.05-.1-.05-.1-.05-.09-.04-.1-.04-.1-.03-.1-.02-.12-.02-.1-.02h-.12l-.1-.01Zm-2.17 2.3h-.35v-.14l.01-.13.02-.14.03-.13.02-.13.04-.13.04-.12.04-.12.05-.12.06-.12.06-.1.06-.12.07-.1.08-.1.08-.1.08-.1.09-.08.09-.09.1-.08.09-.07.1-.07.1-.07.11-.06.11-.05.12-.05.12-.04.12-.04.12-.03.12-.02.13-.02.13-.01h.13v.38h-.12l-.1.02-.11.01-.11.02-.1.03-.11.03-.1.03-.1.04-.1.05-.1.05-.08.06-.09.06-.08.06-.09.07-.07.07-.08.08-.07.08-.07.08-.06.09-.06.09-.06.1-.05.09-.05.1-.04.1-.04.1-.03.11-.03.11-.03.11-.01.12-.02.11v.24Zm2.95 3.14v.38h-.17l-.17-.02-.17-.02-.16-.03-.16-.04-.15-.05-.16-.05-.15-.07-.14-.07-.14-.07-.14-.09-.14-.09-.12-.1-.13-.1-.12-.11-.11-.11-.11-.13-.1-.13-.1-.13-.1-.14-.08-.14-.08-.15-.07-.15-.07-.16-.06-.16-.05-.16-.05-.17-.03-.17-.03-.17-.02-.18-.02-.18v-.18h.35v.16l.02.16.02.16.02.15.03.16.04.15.05.14.05.14.06.14.06.14.07.13.08.13.08.12.09.12.1.11.1.11.1.1.1.1.11.1.12.08.11.08.13.08.12.07.13.06.13.06.14.05.14.04.14.03.15.03.14.02.15.02h.16Zm2.94-3.14h.35v.18l-.02.18-.02.18-.02.17-.04.17-.05.17-.05.16-.06.16-.07.16-.07.15-.08.15-.09.14-.09.14-.1.13-.1.13-.1.13-.12.11-.12.11-.12.1-.13.1-.14.1-.13.08-.15.07-.14.07-.15.07-.16.05-.15.05-.16.04-.16.03-.17.02-.16.02h-.17v-.38h.15l.15-.02.14-.02.15-.03.14-.04.14-.04.14-.05.13-.05.13-.06.12-.07.13-.08.12-.08.11-.09.11-.1.1-.09.11-.1.1-.11.1-.12.08-.11.08-.13.08-.13.07-.13.06-.13.06-.14.06-.14.04-.15.04-.15.03-.15.02-.16.02-.15.01-.16v-.16h.02Zm-3.72-3.96v-.39l.2.01.21.02.2.02.2.04.2.05.2.06.18.07.19.08.18.08.17.1.17.1.17.11.16.13.15.12.15.14.14.14.14.15.13.16.12.16.11.17.11.18.1.18.09.19.08.2.07.19.07.2.05.2.05.22.03.21.03.22.01.23v.22h-.35v-.2l-.01-.2-.03-.2-.03-.2-.04-.2-.05-.18-.06-.18-.07-.19-.07-.17-.08-.17-.1-.17-.09-.16-.1-.15-.12-.15-.11-.15-.13-.14-.12-.13-.14-.12-.14-.12-.15-.11-.15-.1-.16-.1-.16-.09-.16-.08-.17-.07-.17-.06-.18-.05-.18-.05-.19-.03-.18-.03-.2-.01h-.18Zm-3.72 3.96h-.36v-.22l.02-.22.03-.22.03-.21.05-.22.05-.2.06-.2.08-.2.08-.2.1-.18.09-.18.1-.18.12-.17.12-.16.13-.16.14-.15.14-.14.15-.14.15-.13.16-.12.17-.11.17-.1.18-.1.18-.09.18-.07.19-.07.19-.06.2-.05.2-.04.2-.03.2-.01.22-.01v.39h-.2l-.18.02-.2.02-.18.04-.18.04-.17.05-.18.07-.17.07-.16.08-.16.08-.16.1-.15.1-.14.11-.14.12-.14.13-.13.13-.12.14-.12.14-.11.15-.1.16-.1.16-.1.16-.08.17-.07.18-.07.18-.05.18-.05.2-.04.18-.04.2-.02.2-.01.2v.2Zm4.5 4.8v.39l-.25-.01-.25-.02-.25-.04-.24-.04-.23-.06-.23-.07-.22-.08-.22-.1-.22-.1-.2-.11-.21-.13-.2-.14-.19-.14-.18-.15-.18-.16-.17-.18-.16-.18-.15-.18-.15-.2-.13-.2-.13-.21-.11-.22-.11-.22-.1-.23-.09-.23-.07-.25-.07-.24-.06-.25-.04-.26-.03-.25-.02-.27v-.27h.35v.25l.03.24.02.24.04.24.05.23.06.23.07.22.08.22.1.21.1.21.1.2.12.2.13.18.13.19.14.17.15.17.16.16.16.15.17.14.18.13.18.13.19.11.2.11.2.1.2.09.2.07.22.07.22.05.22.04.23.04.23.01.23.01v-.01Zm4.5-4.8h.35v.27l-.02.27-.03.25-.05.26-.05.25-.07.25-.08.24-.08.23-.1.23-.1.22-.13.22-.12.2-.14.21-.14.2-.15.18-.16.18-.17.18-.18.16-.18.15-.2.14-.2.14-.2.13-.2.11-.22.1-.22.1-.22.08-.23.07-.24.06-.24.04-.24.04-.25.02h-.25v-.38h.24l.23-.03.22-.03.22-.04.22-.05.22-.07.2-.07.21-.09.2-.1.2-.1.18-.12.18-.13.18-.13.17-.14.16-.15.16-.16.15-.17.14-.17.13-.19.13-.18.12-.2.1-.2.1-.2.1-.22.08-.22.07-.22.06-.23.05-.23.04-.24.02-.24.02-.24v-.25.01Zm-5.28-5.62v-.4l.39.02.37.03.36.04.34.05.33.07.3.09.3.1.28.1.27.12.25.13.24.15.23.16.21.16.2.18.19.2.17.2.16.2.14.23.14.23.12.23.11.25.1.25.09.25.08.27.06.27.06.28.05.28.04.29.02.29.02.3.01.3v.3h-.35v-.29l-.01-.29-.02-.28-.03-.28-.03-.28-.05-.26-.05-.27-.06-.25-.08-.25-.08-.24-.1-.23-.1-.23-.1-.21-.13-.21-.13-.2-.15-.2-.15-.18-.17-.17-.19-.16-.2-.16-.2-.15-.22-.13-.23-.13-.25-.1-.26-.1-.28-.1-.3-.08-.3-.06-.33-.05-.34-.04-.36-.03h-.37l-.01-.01Zm-5.7 5.68-.36-.02.01-.24.03-.25.03-.25.04-.25.05-.25.06-.26.08-.26.08-.26.1-.25.1-.26.12-.26.13-.25.13-.24.16-.24.16-.24.18-.23.18-.22.2-.22.22-.2.22-.2.24-.18.26-.17.26-.16.28-.15.3-.13.3-.11.32-.1.33-.08.35-.06.36-.05.38-.02.4-.01-.01.39h-.38l-.36.03-.34.04-.33.06-.32.07-.3.1-.29.1-.27.13-.26.13-.25.15L24 18l-.22.17-.21.18-.2.2-.19.2-.17.2-.17.22-.15.22-.14.23-.14.23-.12.24-.1.24-.11.24-.09.24-.08.25-.07.24-.06.24-.05.24-.04.24-.03.23-.02.23-.02.23h.02Zm6.47 6.4.02.39-.38.01h-.37l-.37-.03-.36-.05-.34-.07-.35-.1-.33-.1-.32-.13-.3-.15-.31-.16-.3-.18-.27-.2-.27-.2-.26-.23-.25-.23-.23-.24-.22-.26-.21-.26-.2-.27-.18-.29-.16-.29-.16-.29-.14-.3-.12-.3-.12-.3-.09-.32-.08-.3-.06-.32-.05-.32-.03-.3-.02-.32v-.3h.36v.3l.01.28.03.3.05.28.05.3.08.29.1.3.1.28.11.29.14.28.14.28.16.27.18.26.18.26.2.25.2.24.23.23.23.22.25.2.25.2.27.2.27.16.29.15.29.14.3.13.32.1.32.09.33.06.33.05.35.03h.35l.36-.01Zm6.14-6.48h.36l-.01.34-.02.35-.04.34-.04.33-.07.32-.07.32-.1.31-.1.3-.1.3-.14.29-.13.28-.16.27-.16.26-.18.25-.2.24-.2.24-.21.22-.23.21-.23.2-.25.19-.27.17-.27.17-.28.15-.3.15-.3.13-.31.11-.33.1-.34.1-.34.08-.36.06-.36.05-.38.04-.02-.38.36-.04.35-.05.34-.06.33-.08.32-.08.31-.1.3-.12.29-.12.28-.14.26-.14.26-.16.25-.17.24-.17.22-.2.21-.2.2-.2.2-.22.17-.22.17-.24.16-.25.14-.25.13-.26.12-.27.1-.28.1-.29.08-.29.07-.3.06-.3.05-.32.03-.32.02-.32v-.34h.02Zm0 0c0-.11.08-.2.18-.2.1 0 .18.1.18.2h-.36Z"/><path fill="#F66" d="M27.72 24.13c.76 0 1.38-.67 1.38-1.5 0-.84-.62-1.51-1.38-1.51-.77 0-1.39.67-1.39 1.5 0 .84.62 1.51 1.39 1.51Z"/><path fill="#A29F9D" fill-rule="evenodd" d="M40.08 93.5a6.56 6.56 0 1 0 9.58-8.97 6.56 6.56 0 0 0-9.58 8.97Zm175.35 0a6.56 6.56 0 1 0 9.57-8.96 6.56 6.56 0 0 0-9.57 8.96Z" clip-rule="evenodd"/><path fill="url(#b)" fill-rule="evenodd" d="m175.12 40.65 8.1-7.78-18.95-15.65-35.82-3.89L129.6 19l2.8.37s2.15.17 3.02 2.62c.55 1.5.63 3.64.63 3.64s-.48.87-2.37 1.26c.46-.1.88-.13 1.26-.13 1.57 0 2.41.64 2.41.64l10.44 12.4 19.81.62 5.57-5.23 1.63 1.73-3.84 3.6 4.16.14Zm-36.6-25.22c2.91 0 6.26.2 10.04.6a87.5 87.5 0 0 1 12 1.99c3.29.83 4.89 1.58 4.82 2.26-.07.66-1.8 1.07-5.18 1.19-.73.02-1.48.04-2.26.04-2.89 0-6.19-.2-9.9-.59a86.21 86.21 0 0 1-12-2c-3.3-.82-4.9-1.57-4.83-2.24.07-.67 1.8-1.08 5.19-1.21.68-.02 1.38-.04 2.11-.04Z" clip-rule="evenodd"/><path fill="url(#c)" fill-rule="evenodd" d="m164.27 17.22 30.7 25.34L134 40.62l-5.55-27.29 35.82 3.9Zm34.35 26.73L164.78 16l-.19-.02-37.72-4.1 6.1 29.96.5.02 65.15 2.08Z" clip-rule="evenodd"/><path fill="url(#d)" fill-rule="evenodd" d="m242.29 95.5 17.2-2.31c1.58-5.27 2.34-13.7.05-21.44-9.94-1.52-26.87-3.3-26.87-3.3 13.14 10.2 9.62 27.06 9.62 27.06Z" clip-rule="evenodd"/><path fill="url(#e)" fill-rule="evenodd" d="M22.88 93.38 2.13 90.25C.55 85-.21 76.55 2.08 68.82l29.48-.95c-13.13 10.2-8.68 25.5-8.68 25.5v.01Z" clip-rule="evenodd"/><path fill="url(#f)" fill-rule="evenodd" d="M29.52 68.84c-9.86 8.79-8.14 20.39-7.46 23.78L2.63 89.69C1.26 84.86.48 76.88 2.56 69.44l26.96-.6Zm-5.76 25.31-.27-.95c-2.38-13.4 6.5-22.92 17.16-25.52L1.6 68.2l-.13.44a40.4 40.4 0 0 0 .05 21.8l.11.38 22.12 3.33Z" clip-rule="evenodd"/><path fill="url(#g)" fill-rule="evenodd" d="M60.98 93.52H204.2l.3-13.37H60.68l.3 13.37Z" clip-rule="evenodd"/><path fill="#F49911" d="m250.34 61.1-11.97-.14-5.2 7.12 24.55 2.64s-1.16-6.23-7.38-9.63Z"/><path fill="#FEFEFE" d="M250.74 61.55h-5.29l3.22 7.57 8.74 1.12s-1.05-5.62-6.67-8.69Z"/><path fill="#F49911" d="m2.71 68.3 8.93-.25 5.3-12.4H2.7c-3.48 5.27 0 12.66 0 12.66Z"/><path fill="#E53324" d="m3.32 67.17 3.9-.25v-6.96s-3.5.1-4.65 0c-1.25 1.26.75 7.22.75 7.22Z"/><path fill="#252422" d="m128.69 18.88 3.71.49s2.15.17 3.02 2.62c.55 1.5.63 3.64.63 3.64s-.47.86-2.37 1.26c2.37-.48 3.67.5 3.67.5l10.44 12.4 19.81.63 5.57-5.24 1.63 1.73-3.84 3.62 4.16.13 8.24-7.93 3.23 2.47 10.2 8.06-27.8-.89-.45.42-.42-.45-34.64-1.1-4.8-22.36Z"/><path fill="url(#h)" fill-rule="evenodd" d="M157.94 21.5c.78 0 1.53 0 2.26-.04 3.38-.12 5.1-.52 5.18-1.19.07-.67-1.53-1.42-4.82-2.26a88.05 88.05 0 0 0-12-1.98c-3.78-.4-7.13-.6-10.05-.6-.73 0-1.43.01-2.11.04-3.39.13-5.11.54-5.19 1.2-.07.68 1.54 1.42 4.82 2.25 3.29.83 7.29 1.5 12 2 3.72.4 7.02.59 9.91.59Z" clip-rule="evenodd"/><path fill="#FEFEFE" fill-rule="evenodd" d="M15.86 6.7c0 1.89 22.94 3.42 51.24 3.42s51.24-1.53 51.24-3.42S95.39 3.29 67.1 3.29c-28.3 0-51.24 1.52-51.24 3.41ZM130.6 45.16c-.04 1.32 15.5 2.91 34.7 3.57 19.21.65 34.82.11 34.87-1.2.04-1.32-15.5-2.9-34.7-3.56-19.22-.66-34.83-.11-34.87 1.2Z" clip-rule="evenodd"/><path fill="#252422" fill-rule="evenodd" d="M148.99 49.45h-14.14V45.7H149v3.74Z" clip-rule="evenodd"/><path fill="#FEFEFE" fill-rule="evenodd" d="M238.97 72.9c-.04.7 4.45 1.49 10.01 1.74s10.1-.12 10.13-.84c.03-.7-4.46-1.49-10.01-1.74-5.57-.25-10.1.13-10.14.83ZM3.5 71.62c.01.7 4.54 1.2 10.1 1.09 5.57-.11 10.07-.78 10.06-1.5-.01-.7-4.54-1.2-10.1-1.08-5.58.11-10.08.78-10.06 1.49Z" clip-rule="evenodd"/><path fill="#252422" fill-rule="evenodd" d="M231.33 89.28c0 .89.14 1.65.41 2.3.3.6.65.91 1.06.91.4 0 .75-.3 1.02-.92.28-.64.41-1.4.41-2.29 0-.91-.13-1.67-.4-2.29-.28-.64-.62-.95-1.03-.95-.41 0-.76.32-1.06.96a5.64 5.64 0 0 0-.41 2.28Zm-7.79 12.6c0-.41-.31-.76-.95-1.06a5.28 5.28 0 0 0-2.29-.44c-.89 0-1.66.15-2.32.44-.61.3-.92.65-.92 1.06 0 .41.31.75.92 1.03.66.27 1.43.4 2.32.4.91 0 1.68-.13 2.3-.4.63-.28.94-.62.94-1.03Zm3.32-2.86c-.2.66-.17 1.12.13 1.4.28.27.72.3 1.33.06a5.44 5.44 0 0 0 1.98-1.33 5.15 5.15 0 0 0 1.3-1.94c.25-.62.23-1.07-.07-1.34-.27-.27-.75-.3-1.43-.1a5.3 5.3 0 0 0-1.91 1.3 6.03 6.03 0 0 0-1.33 1.95Zm-20.66-9.73c0 .88.14 1.65.41 2.29.3.6.65.92 1.06.92.41 0 .75-.31 1.03-.92.3-.65.44-1.4.44-2.3 0-.9-.15-1.67-.44-2.28-.28-.64-.62-.96-1.03-.96-.4 0-.76.32-1.06.96a5.59 5.59 0 0 0-.4 2.29Zm7.62 9.8a4.88 4.88 0 0 0-1.26-1.91 5.1 5.1 0 0 0-1.98-1.3c-.62-.25-1.07-.24-1.37.03-.27.31-.3.78-.07 1.4.25.68.7 1.33 1.33 1.95a4.6 4.6 0 0 0 1.91 1.26c.64.27 1.11.27 1.4 0 .3-.32.31-.8.04-1.44Zm-1.44-21.04c-.65.2-1.3.64-1.9 1.3a5.26 5.26 0 0 0-1.34 1.94c-.23.62-.2 1.07.07 1.37.3.27.75.3 1.37.07a6.35 6.35 0 0 0 1.94-1.3 5.6 5.6 0 0 0 1.3-1.94c.25-.64.24-1.1-.04-1.37-.3-.3-.76-.31-1.4-.07Zm7.92-2.76c-.88 0-1.66.15-2.32.44-.61.27-.92.63-.92 1.06 0 .41.31.75.92 1.03.66.27 1.44.4 2.32.4.92 0 1.68-.13 2.3-.4.63-.28.95-.62.95-1.03 0-.43-.32-.79-.96-1.06a5.26 5.26 0 0 0-2.29-.44Zm8.1 2.8c-.66-.21-1.14-.16-1.44.13-.27.25-.3.69-.06 1.3a5.4 5.4 0 0 0 1.3 1.94 5.03 5.03 0 0 0 1.94 1.3c.65.27 1.12.27 1.4 0 .31-.27.35-.75.1-1.43a5.36 5.36 0 0 0-1.34-1.88 6.28 6.28 0 0 0-1.9-1.37Z" clip-rule="evenodd"/><path fill="#FEFEFE" fill-rule="evenodd" d="M205.56 89.15c0-4.06 1.43-7.53 4.3-10.41 2.9-2.87 6.36-4.3 10.41-4.3s7.53 1.43 10.42 4.3c2.86 2.89 4.3 6.35 4.3 10.4 0 4.08-1.44 7.54-4.3 10.38-2.9 2.92-6.37 4.38-10.42 4.38s-7.52-1.46-10.41-4.38a14.07 14.07 0 0 1-4.3-10.37Zm-.79 0c0 4.28 1.51 7.93 4.54 10.95a14.92 14.92 0 0 0 10.96 4.54 14.9 14.9 0 0 0 10.95-4.54 14.92 14.92 0 0 0 4.55-10.95c0-4.28-1.52-7.93-4.55-10.93a14.93 14.93 0 0 0-10.95-4.54c-4.28 0-7.93 1.51-10.96 4.54-3.03 3-4.54 6.65-4.54 10.93Z" clip-rule="evenodd"/><path fill="url(#i)" fill-rule="evenodd" d="M205.01 104.34a20.87 20.87 0 0 0 15.26 6.31c5.94 0 11.01-2.1 15.23-6.31 4.2-4.2 6.31-9.25 6.31-15.2 0-5.93-2.1-11.01-6.31-15.22a20.76 20.76 0 0 0-15.23-6.31c-5.94 0-11.03 2.1-15.26 6.3a20.8 20.8 0 0 0-6.28 15.24c0 5.94 2.1 11 6.28 15.19Zm-.24-15.2c0-4.27 1.51-7.92 4.54-10.92a14.94 14.94 0 0 1 10.96-4.54c4.28 0 7.93 1.51 10.95 4.54 3.03 3 4.55 6.65 4.55 10.93 0 4.28-1.52 7.93-4.55 10.95a14.9 14.9 0 0 1-10.95 4.54c-4.28 0-7.93-1.5-10.96-4.54a14.92 14.92 0 0 1-4.54-10.95Z" clip-rule="evenodd"/><path fill="url(#j)" fill-rule="evenodd" d="M29.28 104.73a20.86 20.86 0 0 0 15.26 6.32c5.94 0 11.01-2.1 15.22-6.31a20.65 20.65 0 0 0 6.32-15.2c0-5.93-2.1-11.01-6.32-15.22A20.76 20.76 0 0 0 44.54 68c-5.94 0-11.03 2.1-15.26 6.32A20.8 20.8 0 0 0 23 89.54c0 5.95 2.09 11 6.28 15.2Zm-.24-15.19c0-4.27 1.51-7.92 4.54-10.92a14.94 14.94 0 0 1 10.96-4.54c4.28 0 7.93 1.51 10.95 4.54 3.03 3 4.55 6.64 4.55 10.92s-1.52 7.94-4.55 10.96a14.9 14.9 0 0 1-10.95 4.54 14.9 14.9 0 0 1-10.96-4.54 14.92 14.92 0 0 1-4.54-10.96Z" clip-rule="evenodd"/><path fill="#252422" d="M220.27 74.75a14 14 0 0 1 10.19 4.2 14 14 0 0 1 4.2 10.2c0 3.96-1.41 7.37-4.2 10.14a13.9 13.9 0 0 1-10.2 4.28c-3.93 0-7.36-1.44-10.18-4.27a13.83 13.83 0 0 1-4.2-10.16 14 14 0 0 1 4.2-10.18 14 14 0 0 1 10.19-4.21Zm0 29.46c4.12 0 7.7-1.5 10.64-4.46 2.91-2.9 4.4-6.46 4.4-10.6 0-4.12-1.49-7.7-4.4-10.64a14.63 14.63 0 0 0-10.64-4.4c-4.12 0-7.7 1.48-10.64 4.4a14.64 14.64 0 0 0-4.4 10.64c0 4.14 1.49 7.7 4.4 10.6a14.5 14.5 0 0 0 10.64 4.47Zm0-30.2c4.17 0 7.78 1.49 10.73 4.44a14.58 14.58 0 0 1 4.45 10.7c0 4.17-1.5 7.78-4.45 10.73s-6.56 4.45-10.73 4.45-7.78-1.5-10.73-4.45a14.7 14.7 0 0 1-4.45-10.73c0-4.18 1.5-7.77 4.45-10.7A14.67 14.67 0 0 1 220.27 74Zm0 30.95a15.3 15.3 0 0 0 11.18-4.63 15.32 15.32 0 0 0 4.64-11.18c0-4.35-1.56-8.1-4.64-11.15a15.3 15.3 0 0 0-11.18-4.64c-4.35 0-8.11 1.56-11.18 4.64a15.18 15.18 0 0 0-4.63 11.15c0 4.34 1.55 8.1 4.63 11.18a15.3 15.3 0 0 0 11.18 4.63Zm0-37.03c5.82 0 10.87 2.1 15 6.22a20.54 20.54 0 0 1 6.22 15c0 5.83-2.1 10.86-6.22 14.97a20.55 20.55 0 0 1-15 6.22c-5.82 0-10.88-2.1-15.04-6.22a20.48 20.48 0 0 1-6.18-14.97 20.6 20.6 0 0 1 6.19-15 20.66 20.66 0 0 1 15.03-6.22Zm0 43.05c6 0 11.2-2.16 15.45-6.41a21.03 21.03 0 0 0 6.4-15.42c0-6-2.14-11.2-6.4-15.45a21.14 21.14 0 0 0-15.45-6.4c-6 0-11.21 2.15-15.49 6.4a21.22 21.22 0 0 0-6.37 15.45c0 6 2.14 11.19 6.37 15.42a21.27 21.27 0 0 0 15.49 6.4ZM44.86 75.46a14 14 0 0 1 10.19 4.21 14 14 0 0 1 4.2 10.18c0 3.97-1.41 7.38-4.2 10.15a13.9 13.9 0 0 1-10.2 4.28c-3.94 0-7.36-1.44-10.18-4.27a13.83 13.83 0 0 1-4.2-10.16 14 14 0 0 1 4.2-10.18 14 14 0 0 1 10.19-4.21Zm0 29.46c4.12 0 7.7-1.5 10.64-4.46 2.91-2.9 4.39-6.46 4.39-10.6 0-4.12-1.48-7.7-4.4-10.64a14.63 14.63 0 0 0-10.63-4.4c-4.12 0-7.7 1.48-10.64 4.4a14.63 14.63 0 0 0-4.4 10.64c0 4.14 1.49 7.7 4.4 10.6a14.5 14.5 0 0 0 10.64 4.47Zm0-30.2c4.17 0 7.78 1.49 10.73 4.44a14.58 14.58 0 0 1 4.45 10.7c0 4.17-1.5 7.78-4.45 10.73a14.67 14.67 0 0 1-10.73 4.45 14.7 14.7 0 0 1-10.74-4.45 14.7 14.7 0 0 1-4.44-10.73c0-4.18 1.5-7.77 4.44-10.7a14.67 14.67 0 0 1 10.74-4.45Zm0 30.96c4.35 0 8.1-1.56 11.18-4.64a15.31 15.31 0 0 0 4.64-11.18c0-4.35-1.56-8.1-4.64-11.15a15.3 15.3 0 0 0-11.18-4.64c-4.35 0-8.11 1.56-11.18 4.64a15.18 15.18 0 0 0-4.64 11.15c0 4.34 1.56 8.1 4.64 11.18a15.3 15.3 0 0 0 11.18 4.64Zm0-37.04c5.82 0 10.87 2.1 15 6.22a20.54 20.54 0 0 1 6.22 15c0 5.83-2.1 10.86-6.22 14.97a20.55 20.55 0 0 1-15 6.22c-5.82 0-10.88-2.1-15.04-6.22a20.48 20.48 0 0 1-6.18-14.97 20.6 20.6 0 0 1 6.19-15 20.66 20.66 0 0 1 15.03-6.22Zm0 43.05c6 0 11.2-2.16 15.45-6.41a21.03 21.03 0 0 0 6.4-15.42c0-6-2.15-11.2-6.4-15.45a21.14 21.14 0 0 0-15.45-6.4c-6 0-11.21 2.15-15.49 6.4A21.22 21.22 0 0 0 23 89.86c0 6 2.14 11.19 6.37 15.42a21.27 21.27 0 0 0 15.49 6.4Z"/><path fill="#252422" d="M215.9 84.4a6.35 6.35 0 1 1 8.65 9.28 6.35 6.35 0 0 1-8.66-9.3v.01Zm8.95 9.57a6.78 6.78 0 1 0-9.28-9.9 6.78 6.78 0 0 0 9.28 9.9Z"/><path fill="#252422" fill-rule="evenodd" d="M55.98 89.28c0 .89.14 1.65.41 2.3.3.6.65.91 1.06.91.41 0 .75-.3 1.02-.92.28-.64.42-1.4.42-2.29 0-.91-.14-1.67-.42-2.29-.27-.64-.6-.95-1.02-.95-.4 0-.76.32-1.06.96a5.59 5.59 0 0 0-.4 2.28Zm-7.78 12.6c0-.41-.32-.76-.96-1.06a5.28 5.28 0 0 0-2.29-.44c-.88 0-1.66.15-2.32.44-.61.3-.92.65-.92 1.06 0 .41.3.75.92 1.03a6 6 0 0 0 2.32.4c.92 0 1.68-.13 2.3-.4.63-.28.95-.62.95-1.03Zm3.31-2.86c-.2.66-.16 1.12.14 1.4.27.27.72.3 1.33.06.68-.25 1.34-.69 1.98-1.33s1.07-1.28 1.3-1.94c.24-.62.22-1.07-.08-1.34-.27-.27-.74-.3-1.43-.1-.63.23-1.27.66-1.91 1.3a6.03 6.03 0 0 0-1.33 1.95Zm-20.66-9.73c0 .88.14 1.65.42 2.29.3.6.65.92 1.06.92.4 0 .75-.31 1.02-.92.3-.65.44-1.4.44-2.3 0-.9-.14-1.67-.44-2.28-.27-.64-.62-.96-1.02-.96-.41 0-.77.32-1.06.96a5.65 5.65 0 0 0-.42 2.29Zm7.62 9.8a4.84 4.84 0 0 0-1.26-1.91 5.12 5.12 0 0 0-1.98-1.3c-.62-.25-1.08-.24-1.37.03-.27.31-.3.78-.07 1.4.25.68.7 1.33 1.33 1.95a4.6 4.6 0 0 0 1.92 1.26c.63.27 1.1.27 1.4 0 .29-.32.3-.8.03-1.44Zm-1.43-21.04c-.67.2-1.3.64-1.92 1.3a5.26 5.26 0 0 0-1.33 1.94c-.22.62-.2 1.07.07 1.37.3.27.75.3 1.37.07a6.3 6.3 0 0 0 1.94-1.3 5.6 5.6 0 0 0 1.3-1.94c.25-.64.24-1.1-.04-1.37-.3-.3-.76-.31-1.4-.07Zm7.91-2.76c-.88 0-1.66.15-2.32.44-.61.27-.92.63-.92 1.06 0 .41.3.75.92 1.03.66.27 1.44.4 2.32.4.92 0 1.68-.13 2.3-.4.63-.28.95-.62.95-1.03 0-.43-.32-.79-.96-1.06a5.27 5.27 0 0 0-2.29-.44Zm8.1 2.8c-.66-.21-1.14-.16-1.44.13-.27.25-.3.69-.07 1.3a5.4 5.4 0 0 0 1.3 1.94 5.03 5.03 0 0 0 1.94 1.3c.66.27 1.13.27 1.4 0 .32-.27.35-.75.1-1.43a5.37 5.37 0 0 0-1.33-1.88 6.24 6.24 0 0 0-1.9-1.37Z" clip-rule="evenodd"/><path fill="#FEFEFE" fill-rule="evenodd" d="M30.2 89.15c0-4.06 1.44-7.53 4.3-10.41 2.9-2.87 6.37-4.3 10.42-4.3s7.53 1.43 10.42 4.3c2.86 2.89 4.3 6.35 4.3 10.4 0 4.08-1.44 7.54-4.3 10.38a14.14 14.14 0 0 1-10.42 4.38c-4.05 0-7.52-1.46-10.41-4.38a14.07 14.07 0 0 1-4.3-10.37Zm-.78 0c0 4.28 1.51 7.93 4.54 10.95a14.92 14.92 0 0 0 10.96 4.54 14.9 14.9 0 0 0 10.95-4.54 14.92 14.92 0 0 0 4.55-10.95c0-4.28-1.52-7.93-4.55-10.93a14.93 14.93 0 0 0-10.95-4.54c-4.28 0-7.93 1.51-10.96 4.54-3.03 3-4.54 6.65-4.54 10.93Z" clip-rule="evenodd"/><path fill="#252422" d="M40.54 84.4a6.35 6.35 0 1 1 8.66 9.28 6.35 6.35 0 0 1-8.66-9.3v.01Zm8.96 9.57a6.79 6.79 0 0 0-9.26-9.9 6.78 6.78 0 0 0 9.26 9.9Z"/><path fill="url(#k)" fill-rule="evenodd" d="M44.93 86.34a2.56 2.56 0 0 0-1.94.73 2.5 2.5 0 0 0-.83 1.85 2.5 2.5 0 0 0 .68 1.98c.52.55 1.16.82 1.93.81.74.06 1.38-.17 1.93-.68.55-.5.83-1.14.84-1.9.02-.74-.22-1.38-.74-1.93s-1.13-.84-1.87-.86Z" clip-rule="evenodd"/><path fill="#7B4315" d="M74.42 52.97a2.7 2.7 0 0 1-1.3-.35 2.42 2.42 0 0 1-1.28-1.65h4.7l-.7 1.28c-.26.47-.8.72-1.42.72Z"/><path fill="#FDF1E6" d="M68.42 59.46a20.77 20.77 0 1 0 0-41.55 20.77 20.77 0 0 0 0 41.55Z"/><path fill="#E5213D" d="M68.38 19.85c5.19 0 9.88 2.1 13.28 5.5 3.4 3.4 5.51 8.1 5.51 13.3s-2.1 9.88-5.5 13.28c-3.4 3.4-8.1 5.5-13.3 5.5s-9.88-2.1-13.28-5.5c-3.4-3.4-5.5-8.1-5.5-13.29s2.1-9.89 5.5-13.29c3.4-3.4 8.1-5.5 13.29-5.5ZM81.2 25.8a18.1 18.1 0 0 0-12.83-5.31 18.1 18.1 0 0 0-12.84 5.31 18.1 18.1 0 0 0-5.32 12.84 18.1 18.1 0 0 0 5.32 12.83 18.1 18.1 0 0 0 12.84 5.32 18.1 18.1 0 0 0 12.83-5.32 18.1 18.1 0 0 0 5.32-12.83 18.1 18.1 0 0 0-5.32-12.84Z"/><path fill="#630" d="M53.6 38.13v-.25l.48-.06c.11-.02.18-.06.2-.13.03-.07.05-.18.05-.3l.27-4.23c0-.14 0-.23-.04-.28-.04-.05-.11-.08-.21-.1l-.46-.06v-.26h1.53L57 36.73l.02-.03 1.6-4.24h1.51v.26l-.49.06a.27.27 0 0 0-.18.08c-.04.05-.06.16-.05.33l.27 4.24c.01.15.03.25.07.3.04.05.1.08.2.09l.48.06v.25h-2.1v-.25l.5-.06a.3.3 0 0 0 .2-.09c.05-.05.06-.16.05-.32l-.27-4.4v-.03l-1.65 4.32h-.52L55 32.98v.03l-.27 4.43c-.01.12 0 .2.03.27.03.05.1.08.23.1l.47.07v.25H53.6Zm8.4 0v-.25l.48-.06c.1-.02.16-.05.2-.1a.64.64 0 0 0 .05-.3v-4.26c0-.13-.02-.23-.06-.28-.03-.05-.1-.08-.2-.1l-.47-.06v-.26h2.05v.26l-.5.06c-.09.02-.15.05-.18.1a.64.64 0 0 0-.05.3v4.26c0 .13.02.23.05.28.04.05.1.08.2.1l.48.06v.25H62Zm3.7 0v-.25l.47-.06c.1-.02.17-.05.2-.1a.64.64 0 0 0 .05-.3v-4.27c0-.13-.01-.22-.05-.27-.03-.05-.1-.08-.21-.1l-.45-.06v-.26h2.15v.25l-.59.07c-.1.02-.16.05-.2.1-.04.04-.05.13-.05.28v4.65h1.1a2 2 0 0 0 .45-.04.65.65 0 0 0 .31-.17c.1-.09.17-.21.24-.38.08-.18.16-.4.24-.69h.29l-.2 1.6H65.7Zm5.02 0v-.25l.35-.06c.1-.02.17-.05.21-.1.05-.05.1-.16.16-.32l1.71-4.94h.53l1.68 4.95.14.29c.04.05.12.09.23.12l.31.05v.27h-1.9v-.25l.46-.06c.1-.01.16-.05.18-.1.02-.07.01-.16-.03-.3l-.4-1.19h-2.12l-.4 1.17a.58.58 0 0 0-.04.29c.02.07.1.11.22.13l.47.06v.25h-1.76Zm1.62-2.22h1.9l-.93-2.85h-.02l-.95 2.85Zm4.45-1.98-.16-.2c.2-.15.33-.3.4-.43a.97.97 0 0 0 .14-.45h-.14a.54.54 0 0 1-.23-.05.35.35 0 0 1-.14-.13.44.44 0 0 1-.04-.2c0-.12.04-.23.13-.31.09-.09.2-.13.32-.13.17 0 .3.06.39.17.08.1.13.24.13.42 0 .13-.04.28-.1.43-.04.15-.13.3-.25.46-.11.15-.26.29-.45.42Zm4.38 4.32a2.03 2.03 0 0 1-1.48-.58l-.1.52h-.24l-.16-1.77.27-.03c.08.27.18.5.3.7.11.18.24.34.39.47a1.53 1.53 0 0 0 1 .33c.22 0 .42-.03.6-.1.17-.09.3-.2.4-.37.12-.17.17-.38.17-.63 0-.2-.04-.39-.11-.54-.08-.16-.21-.3-.4-.43-.2-.13-.46-.25-.8-.36a5.1 5.1 0 0 1-.78-.3c-.2-.12-.38-.24-.5-.37a1.33 1.33 0 0 1-.27-.44 1.73 1.73 0 0 1 0-1.04 1.37 1.37 0 0 1 .6-.71 1.82 1.82 0 0 1 .96-.25 1.98 1.98 0 0 1 1.22.47l.1-.47h.25l.16 1.6-.29.04c-.09-.32-.2-.57-.34-.76a1.29 1.29 0 0 0-1.1-.55c-.32 0-.57.09-.77.27-.19.17-.28.4-.28.7 0 .18.03.35.1.5.08.14.21.27.4.4.2.11.46.23.8.34.31.1.57.22.78.35.21.11.38.24.5.38.13.14.22.29.27.45a1.8 1.8 0 0 1-.04 1.19 1.52 1.52 0 0 1-.9.86c-.2.08-.44.13-.7.13Z"/><path fill="#E5213D" d="M68.83 44.09c-.42 0-.78-.1-1.1-.28-.3-.19-.54-.45-.72-.79a2.68 2.68 0 0 1-.25-1.2c0-.32.05-.62.14-.9.1-.27.23-.51.4-.7a1.88 1.88 0 0 1 2.02-.52c.17.06.33.16.45.28l.06-.4h.27l.24 1.43-.3.06a2.24 2.24 0 0 0-.3-.64c-.12-.17-.27-.3-.43-.38a1.25 1.25 0 0 0-.58-.12c-.28 0-.52.07-.72.22-.2.14-.34.35-.44.64a3.16 3.16 0 0 0-.04 1.79c.07.22.16.42.3.59.12.17.28.3.46.4a1.55 1.55 0 0 0 1.1.06c.15-.05.3-.13.42-.23.13-.1.25-.24.36-.4l.25.18a1.83 1.83 0 0 1-1.11.85c-.16.04-.31.06-.48.06Zm1.88-.1v-.26l.28-.04a.34.34 0 0 0 .17-.08.7.7 0 0 0 .12-.26l1.3-3.67h.62l1.28 3.68c.04.1.07.18.1.22.03.05.09.07.17.1l.25.05V44h-1.64v-.26l.35-.04c.09-.01.14-.05.15-.1.02-.04.01-.1-.02-.21l-.28-.82h-1.63l-.27.8a.54.54 0 0 0-.03.21c0 .06.06.1.17.1l.35.06V44H70.7h.01Zm1.33-1.74h1.42l-.7-2.07-.72 2.07Zm6.92 1.84a1.1 1.1 0 0 1-.57-.15 1.02 1.02 0 0 1-.22-.2 1.96 1.96 0 0 1-.2-.27L77 41.91l-.35.36v1.12c0 .1.01.18.04.22.02.04.08.06.16.07l.37.05V44h-1.75v-.27l.38-.05c.08 0 .13-.04.15-.08a.5.5 0 0 0 .04-.23v-3.1c0-.1-.01-.18-.04-.21-.02-.05-.08-.07-.16-.08l-.37-.05v-.26h1.75v.26l-.38.05c-.07 0-.12.03-.15.07-.02.04-.04.12-.04.25v1.55l1.56-1.55c.05-.05.07-.1.08-.14 0-.05 0-.08-.04-.12-.03-.04-.08-.06-.15-.06l-.3-.05.06-.26h1.45v.27l-.23.04c-.04 0-.1.02-.14.05a.83.83 0 0 0-.13.09l-.17.17-1.22 1.21 1.09 1.65.25.33c.07.08.15.14.22.17a.89.89 0 0 0 .4.03l.17-.05.05.2a.72.72 0 0 1-.28.17.91.91 0 0 1-.35.07v.02Zm1.11-.1v-.26l.36-.04c.07-.02.12-.04.15-.08a.5.5 0 0 0 .04-.24v-3.1c0-.1-.02-.17-.05-.21-.02-.04-.07-.07-.16-.07l-.34-.05v-.27h2.83l.22 1-.28.1a3.2 3.2 0 0 0-.18-.4.81.81 0 0 0-.2-.25.56.56 0 0 0-.26-.12c-.1-.02-.23-.04-.38-.04h-.6v1.67h.55c.14 0 .25-.02.32-.04a.22.22 0 0 0 .14-.13c.03-.08.07-.2.1-.35l.26-.03v1.37l-.25.04a1.42 1.42 0 0 0-.1-.35.24.24 0 0 0-.15-.15 1.08 1.08 0 0 0-.33-.03h-.54v1.73h.79c.14 0 .27-.01.37-.03.1-.03.19-.07.25-.12a.65.65 0 0 0 .18-.25c.04-.11.09-.25.13-.42h.3L83.1 44h-3.03Z"/><path fill="#E5213D" d="M66.77 42.04a2.7 2.7 0 0 1-.62 1.2 2.33 2.33 0 0 1-3.9-1 2.33 2.33 0 0 1-2.24 1.68 2.32 2.32 0 0 1-2.24-1.68 2.33 2.33 0 0 1-3.9 1 2.36 2.36 0 0 1-.68-1.67 2.06 2.06 0 0 1 3.51-1.46c.37.37.6.89.6 1.46a1.79 1.79 0 0 1-1.77 1.79 1.79 1.79 0 0 1-1.77-1.79 1.5 1.5 0 1 1 2.98 0 1.22 1.22 0 1 1-2.42 0 .94.94 0 0 1 .93-.94.93.93 0 0 1 .94.94c0 .18-.08.34-.2.46a.66.66 0 0 1-.46.2.64.64 0 0 1-.46-.2.65.65 0 0 1-.2-.46c0-.1.05-.2.12-.27a.37.37 0 0 1 .26-.1c.1 0 .2.04.27.1.06.07.1.16.1.27h-.18c0-.05-.02-.1-.06-.14s-.08-.05-.13-.05-.1.02-.13.05-.06.09-.06.14c0 .13.05.25.14.33a.47.47 0 0 0 .79-.33c0-.2-.08-.4-.22-.54a.74.74 0 0 0-1.05 0 .76.76 0 0 0-.22.54 1.04 1.04 0 0 0 1.03 1.04 1.03 1.03 0 0 0 1.03-1.04 1.32 1.32 0 0 0-1.3-1.32 1.32 1.32 0 0 0-1.3 1.32 1.58 1.58 0 0 0 2.7 1.13c.28-.28.46-.69.46-1.13a1.89 1.89 0 0 0-1.87-1.88 1.89 1.89 0 0 0-1.87 1.88 2.16 2.16 0 0 0 2.15 2.16c.6 0 1.13-.24 1.52-.63.38-.38.62-.91.63-1.5v-.03a2.06 2.06 0 0 1 3.51-1.46c.38.37.6.89.6 1.46a1.79 1.79 0 0 1-1.77 1.79 1.79 1.79 0 0 1-1.77-1.79 1.5 1.5 0 1 1 2.99 0 1.22 1.22 0 0 1-2.08.86 1.22 1.22 0 0 1-.35-.86.94.94 0 0 1 .93-.94.94.94 0 0 1 .94.94.66.66 0 0 1-.65.66.64.64 0 0 1-.47-.2.65.65 0 0 1-.19-.46c0-.1.04-.2.11-.27a.37.37 0 0 1 .26-.1c.1 0 .2.04.27.1.07.07.1.16.1.27h-.18a.2.2 0 0 0-.06-.14.18.18 0 0 0-.13-.05c-.05 0-.1.02-.13.05s-.05.09-.05.14c0 .13.05.25.13.33a.46.46 0 0 0 .66 0c.08-.08.13-.2.13-.33a.75.75 0 0 0-.74-.75c-.2 0-.4.08-.53.22a.76.76 0 0 0-.22.53 1.04 1.04 0 0 0 1.03 1.04 1.03 1.03 0 0 0 1.03-1.04 1.31 1.31 0 0 0-1.3-1.32 1.32 1.32 0 0 0-1.3 1.32 1.6 1.6 0 0 0 1.57 1.6c.44 0 .84-.17 1.12-.46.3-.3.47-.7.47-1.14a1.89 1.89 0 0 0-1.87-1.88 1.86 1.86 0 0 0-1.86 1.88v.04a2.15 2.15 0 0 0 3.66 1.5c.36-.37.6-.87.63-1.42v-.12a2.06 2.06 0 0 1 3.5-1.46c.38.38.6.9.6 1.46a1.79 1.79 0 0 1-1.77 1.8 1.79 1.79 0 0 1-1.77-1.79 1.5 1.5 0 1 1 3 0 1.22 1.22 0 0 1-2.08.86 1.22 1.22 0 0 1-.36-.87.94.94 0 0 1 .28-.66.93.93 0 0 1 1.32 0c.17.17.27.4.27.66a.65.65 0 0 1-.65.66.64.64 0 0 1-.46-.2.65.65 0 0 1-.2-.46c0-.1.05-.2.11-.26a.37.37 0 0 1 .27-.11c.1 0 .2.04.26.1.07.08.11.17.11.27h-.19a.2.2 0 0 0-.05-.13.18.18 0 0 0-.13-.06c-.05 0-.1.02-.13.06s-.06.08-.06.13c0 .14.05.25.14.34a.47.47 0 0 0 .65 0c.09-.09.14-.2.14-.34a.75.75 0 0 0-.75-.75.75.75 0 0 0-.74.75 1.03 1.03 0 1 0 2.06 0 1.32 1.32 0 0 0-1.3-1.32 1.32 1.32 0 0 0-1.3 1.32c-.01.44.16.85.45 1.14a1.58 1.58 0 0 0 2.71-1.14 1.89 1.89 0 0 0-1.87-1.88 1.86 1.86 0 0 0-1.86 1.88v.12a2.16 2.16 0 0 0 2.14 2.05c.6 0 1.13-.25 1.52-.64.35-.35.5-.76.7-1.39l.11-.49-.04.82h-.03Z"/><path fill="#FDF1E6" d="M86.5 74.8c-.61 0-1.21-.13-1.8-.37a3.5 3.5 0 0 1-1.53-1.28c0-.16.09-.24.25-.24.05 0 .1.01.15.05.05.03.09.06.12.1a317.39 317.39 0 0 0 1.1-3.3c.2-.58.4-1.14.63-1.7.22-.55.46-1.07.71-1.55.02-.05.07-.1.15-.16l.26-.15a2.22 2.22 0 0 1 .5-.18c.04 0 .08.02.11.05.04.02.06.05.06.1 0 .1-.05.18-.14.26l-.2.18-.11.23a110.26 110.26 0 0 0-.4 1.02 39.7 39.7 0 0 1-.21.59 17.85 17.85 0 0 0-.29.82l.55.07.57.03c.39 0 .73-.12 1.03-.38a4.49 4.49 0 0 0 1.47-2.9 2.46 2.46 0 0 0-.99-1.99 3.43 3.43 0 0 0-1.19-.6 5.33 5.33 0 0 0-1.62-.23c-.58 0-1.15.07-1.72.22a5.1 5.1 0 0 0-1.51.65c-.45.28-.81.64-1.1 1.08a2.72 2.72 0 0 0-.27 2.29c.08.22.2.4.33.54a1.56 1.56 0 0 0 1.08.43c.3 0 .57-.06.79-.18a2 2 0 0 0 1.06-1.78c0-.31-.08-.59-.24-.82-.16-.23-.42-.35-.76-.35-.27 0-.53.1-.76.3a.94.94 0 0 0-.35.78c0 .15.04.29.11.41.08.11.2.17.38.17.07 0 .1-.06.1-.17l-.01-.1v-.1c0-.1.04-.19.12-.24.1-.05.18-.08.27-.08.12 0 .2.05.28.16.07.09.1.2.1.31a.6.6 0 0 1-.2.43c-.11.13-.34.2-.66.2a.97.97 0 0 1-.6-.22c-.19-.15-.28-.41-.28-.78 0-.23.04-.42.14-.6s.22-.33.37-.45c.17-.13.34-.23.54-.29.2-.07.4-.1.59-.1.46 0 .8.15 1.03.45.23.3.35.66.35 1.06a2.34 2.34 0 0 1-1.35 2.11c-.3.14-.64.21-1.03.21-.27 0-.52-.04-.78-.13a1.89 1.89 0 0 1-1.12-1.1 2.49 2.49 0 0 1-.18-.98c0-.63.15-1.18.47-1.64.3-.47.7-.86 1.2-1.17.5-.32 1.05-.56 1.68-.71a7.56 7.56 0 0 1 3.93.04c.59.2 1.07.45 1.46.76a3.05 3.05 0 0 1 1.18 2.32c0 .65-.22 1.28-.67 1.88a4.47 4.47 0 0 1-1.92 1.45c.51.12.95.27 1.32.47.37.19.68.4.92.63.25.23.42.46.53.7.11.24.17.48.17.71 0 .36-.11.7-.33 1.04-.23.32-.53.61-.91.88a5.42 5.42 0 0 1-2.93.83Zm.9-4.97a4.58 4.58 0 0 0-.73-.08h-.61c-.11 0-.24 0-.37.02l-1.3 3.91c.24.27.55.46.94.58.38.11.76.17 1.12.17a3.4 3.4 0 0 0 2.22-.8c.28-.25.5-.52.66-.83a1.7 1.7 0 0 0-.26-2.12 3.4 3.4 0 0 0-1.68-.85Zm9.57 4.04c0 .08-.04.17-.12.27a1.51 1.51 0 0 1-.66.47.78.78 0 0 1-.35.09c-.46 0-.8-.17-1.01-.52a4.02 4.02 0 0 1-1.08.41 3.01 3.01 0 0 1-1.21.02 1.33 1.33 0 0 1-.82-.58.98.98 0 0 1-.14-.51c0-.27.08-.48.23-.66.15-.18.33-.32.54-.42.23-.11.46-.19.72-.23a4.44 4.44 0 0 1 1.26-.01c.16.03.34.08.54.16l.53-.95c.19-.32.28-.66.28-1.03 0-.39-.1-.7-.3-.93-.18-.24-.48-.36-.87-.36-.21 0-.43.04-.65.13a2.02 2.02 0 0 0-1.07.9c-.1.2-.16.42-.16.67 0 .15.04.3.12.44a.1.1 0 0 0 .09.04h.06a.13.13 0 0 1 .06-.01c.12 0 .18.05.18.15s-.04.18-.13.24c-.1.05-.21.08-.35.08a.63.63 0 0 1-.55-.3c-.13-.18-.2-.38-.2-.58 0-.36.08-.67.23-.93a2.4 2.4 0 0 1 1.46-1.08c.31-.09.62-.13.92-.13a2.86 2.86 0 0 1 1.45.4c.2.12.36.3.48.5.13.2.2.46.2.75 0 .3-.06.58-.17.85-.1.27-.23.55-.36.82-.13.27-.26.55-.37.83-.1.29-.16.59-.16.9 0 .11.02.23.06.35.04.11.13.17.27.17.1 0 .2-.03.27-.08l.25-.18.2-.18c.08-.07.14-.1.2-.1.02 0 .05.02.08.05.03.02.05.05.05.08Zm-2.34-.78a1.11 1.11 0 0 0-.4-.45 1.1 1.1 0 0 0-.57-.14 1.73 1.73 0 0 0-.93.29c-.13.09-.24.2-.33.33a.72.72 0 0 0-.12.41c0 .21.09.4.27.55.2.14.4.21.64.21.3 0 .58-.07.83-.21.26-.15.45-.29.58-.4v-.28l.03-.3Zm7.22-8.97c0-.17-.02-.31-.05-.42-.03-.11-.09-.17-.17-.17-.1 0-.22.08-.36.23a3.8 3.8 0 0 0-.55.82 15.3 15.3 0 0 0-1.04 2.58 38.96 38.96 0 0 0-.72 2.53l-.13.73c.26-.15.52-.37.77-.65a9.82 9.82 0 0 0 1.32-2.15 11.4 11.4 0 0 0 .8-2.46c.09-.39.13-.73.13-1.04Zm4.34 12.96a3.5 3.5 0 0 1-1.44 2.66c-.3.19-.62.29-.96.29-.49 0-.92-.13-1.3-.38a3.82 3.82 0 0 1-1.02-1c-.3-.42-.54-.89-.75-1.42a12.98 12.98 0 0 1-.85-4.47c0-.07.03-.12.08-.14a.3.3 0 0 1 .15-.04l.62.06c.2 0 .4-.05.61-.16a2.1 2.1 0 0 0 .94-.95c.1-.21.15-.42.15-.62 0-.5-.21-.75-.65-.75-.35 0-.69.14-1 .41-.3.28-.59.61-.85 1-.25.4-.48.81-.68 1.25a44.39 44.39 0 0 0-.69 1.55.8.8 0 0 1-.15.2c-.05.07-.1.1-.17.1a.39.39 0 0 1-.28-.1.91.91 0 0 1-.16-.26 4.96 4.96 0 0 1-.08-.74 21.51 21.51 0 0 1 .28-3.32 23.05 23.05 0 0 1 .88-3.73c.2-.59.41-1.12.65-1.6.26-.5.54-.91.84-1.24.2-.22.41-.4.64-.53.23-.14.45-.21.65-.21s.37.09.52.26c.14.17.2.47.2.9 0 .54-.1 1.15-.3 1.83a11.1 11.1 0 0 1-1.94 3.8c-.43.54-.9.95-1.38 1.22a15.05 15.05 0 0 0-.23 2.3 9.61 9.61 0 0 1 1.26-2.37c.3-.38.63-.7.99-.94.36-.27.76-.4 1.18-.4.35 0 .65.11.9.33.26.23.4.52.4.87 0 .4-.1.74-.31 1.03a3.07 3.07 0 0 1-2.14 1.3 19.36 19.36 0 0 0 .35 2.41c.11.47.25.95.4 1.42.17.48.36.9.57 1.28.22.38.47.69.74.92a1.36 1.36 0 0 0 1.7.12 2.66 2.66 0 0 0 1.12-2.17c0-.5-.14-.9-.43-1.17-.29-.26-.67-.4-1.16-.4-.13 0-.29.02-.47.05-.17.04-.33.09-.48.16-.16.08-.29.17-.4.28a.69.69 0 0 0-.15.46c0 .17.07.31.21.43.15.1.31.16.47.16.13 0 .22-.04.28-.13.05-.09.09-.18.12-.3l.13-.28c.06-.1.17-.14.32-.14a.6.6 0 0 1 .4.14c.1.09.16.22.16.38a.5.5 0 0 1-.12.35 1.1 1.1 0 0 1-.68.36 1.63 1.63 0 0 1-.84-.01c-.15-.03-.3-.09-.44-.17a.96.96 0 0 1-.33-.3.77.77 0 0 1-.12-.44c0-.26.06-.47.18-.66.13-.17.29-.32.47-.44.2-.1.4-.19.64-.24.23-.05.45-.08.67-.08.6 0 1.1.19 1.48.55.4.38.6.87.6 1.47Z"/><path fill="#FDF1E6" d="M104.89 70.92a1.48 1.48 0 0 0 .47.06c.33 0 .62-.04.86-.13.25-.1.46-.23.62-.37.16-.14.28-.3.35-.47.08-.18.12-.35.12-.5a.66.66 0 0 0-.15-.44c-.09-.12-.23-.18-.4-.18-.15 0-.31.06-.5.18a3.23 3.23 0 0 0-1.03 1.12c-.15.25-.26.49-.34.73Zm3.41 2.44c0 .04-.01.07-.03.1a2.1 2.1 0 0 1-.55.56 3.32 3.32 0 0 1-1.32.6 3 3 0 0 1-.72.1c-.28 0-.54-.04-.8-.13-.24-.08-.45-.2-.65-.38a2.04 2.04 0 0 1-.44-.68c-.1-.27-.16-.6-.16-.98a5 5 0 0 1 .88-2.84c.28-.42.6-.75.98-1 .39-.27.8-.4 1.26-.4a.9.9 0 0 1 .76.35c.2.23.29.51.29.84 0 .22-.05.45-.15.68-.1.22-.25.43-.46.62-.21.18-.48.33-.82.46a3.34 3.34 0 0 1-1.64.13 2.83 2.83 0 0 0 .05 2.28c.09.16.21.3.36.4.15.1.34.14.55.14.38 0 .78-.08 1.18-.25.4-.19.74-.4.99-.63l.12-.07c.05-.04.12-.06.2-.06s.12.05.12.16Zm5.26-3.36c-.1 0-.18-.03-.23-.08a1.4 1.4 0 0 1-.1-.15 2.09 2.09 0 0 0-.1-.17c-.02-.05-.06-.07-.11-.07-.16 0-.33.07-.53.22-.2.16-.4.35-.6.6a11.73 11.73 0 0 0-1.79 3.03c-.05.15-.09.32-.12.52l-.1.53c-.07.24-.24.36-.52.36a.62.62 0 0 1-.3-.06c-.06-.04-.1-.13-.1-.27s.01-.29.04-.43l.07-.42c.05-.34.1-.67.12-1l.1-1.04v-.45l.04-.68.04-.67c.02-.2.05-.33.07-.38.08-.21.24-.32.48-.32.14 0 .25.03.33.1.09.04.13.14.13.3 0 .43-.03.87-.1 1.32l-.16 1.32a10.45 10.45 0 0 1 1.35-2.02c.3-.35.6-.64.94-.87.33-.24.66-.36.99-.36.2 0 .37.05.5.16.14.12.2.28.2.5 0 .15-.05.27-.16.35a.6.6 0 0 1-.38.13Zm6.14 3.91c0 1.3-.11 2.41-.33 3.32a7.84 7.84 0 0 1-.87 2.25c-.35.58-.75 1-1.2 1.26-.43.26-.87.4-1.3.4-.4 0-.76-.1-1.08-.28a3.01 3.01 0 0 1-1.38-1.7c-.13-.36-.2-.72-.2-1.08 0-.28.05-.55.14-.82.08-.26.22-.5.4-.7.2-.19.42-.34.7-.46.3-.11.65-.17 1.05-.17.24 0 .46.02.69.06.22.05.42.13.59.24.18.11.33.26.44.44.11.18.17.41.17.69a.8.8 0 0 1-.14.47c-.1.13-.2.23-.35.31a1.94 1.94 0 0 1-1.32.2 1.66 1.66 0 0 1-.4-.13.87.87 0 0 1-.28-.26.64.64 0 0 1-.1-.38c0-.14.05-.26.17-.37.12-.09.26-.13.4-.13.16 0 .27.04.33.13.07.1.13.2.17.3.04.1.08.2.13.28.05.1.15.14.3.14.16 0 .32-.06.46-.17a.52.52 0 0 0 .23-.44.64.64 0 0 0-.17-.45c-.1-.13-.22-.22-.38-.3s-.31-.11-.5-.15a4.06 4.06 0 0 0-.47-.03c-.31 0-.58.05-.8.14-.22.1-.41.23-.56.38-.14.16-.25.35-.3.56-.08.21-.11.43-.11.65a2.86 2.86 0 0 0 .56 1.68c.17.25.38.45.62.6.24.15.5.23.8.23.34 0 .7-.12 1.05-.37.36-.24.68-.62.97-1.15.3-.53.53-1.2.72-2.05a14.4 14.4 0 0 0-.26-6.66 25.32 25.32 0 0 1-.7 1.75c-.16.33-.34.66-.55 1-.2.33-.42.62-.66.88-.37.37-.68.56-.94.56a.7.7 0 0 1-.47-.17 1.52 1.52 0 0 1-.34-.47 3.51 3.51 0 0 1-.26-1.47 9.72 9.72 0 0 1 .47-2.9c.04-.06.11-.1.2-.14.1-.04.18-.06.26-.06.08 0 .17.02.27.06.1.04.15.1.15.2 0 .18-.02.37-.07.55a9.44 9.44 0 0 0-.24 1.47 67.16 67.16 0 0 0-.1 1.41c0 .27.02.5.05.68.04.19.12.28.23.28.15 0 .33-.14.54-.41.23-.28.44-.6.64-.97a13.2 13.2 0 0 0 .96-2.05c.06-.18.1-.38.15-.58a2.06 2.06 0 0 1 .4-.79c.05-.05.15-.07.27-.07.16 0 .31.17.45.51.14.34.27.75.37 1.25a16.72 16.72 0 0 1 .33 3Zm10.24-.04c0 .08-.04.17-.12.27a1.5 1.5 0 0 1-.66.47.78.78 0 0 1-.34.09c-.47 0-.8-.17-1.02-.52a4.04 4.04 0 0 1-1.08.41 3 3 0 0 1-1.21.02 1.32 1.32 0 0 1-.82-.58.98.98 0 0 1-.14-.51c0-.27.08-.48.23-.66.15-.18.33-.32.55-.42.22-.11.46-.19.7-.23a4.44 4.44 0 0 1 1.27-.01c.16.03.34.08.54.16.18-.32.35-.64.54-.95.18-.32.27-.66.27-1.03 0-.39-.1-.7-.29-.93-.2-.24-.49-.36-.88-.36a2.04 2.04 0 0 0-1.72 1.03c-.1.2-.16.42-.16.67 0 .15.04.3.12.44.02.03.05.04.1.04h.05a.14.14 0 0 1 .06-.01c.12 0 .18.05.18.15s-.04.18-.13.24c-.1.05-.2.08-.35.08a.63.63 0 0 1-.55-.3c-.13-.18-.2-.38-.2-.58 0-.36.08-.67.23-.93a2.4 2.4 0 0 1 1.46-1.08c.31-.09.62-.13.93-.13a2.86 2.86 0 0 1 1.44.4c.2.12.36.3.48.5.13.2.2.46.2.75 0 .3-.06.58-.17.85-.1.27-.23.55-.36.82l-.37.83c-.1.29-.16.59-.16.9 0 .11.02.23.06.35.04.11.13.17.27.17.1 0 .2-.03.27-.08l.25-.18.21-.18c.07-.07.13-.1.18-.1.03 0 .06.02.1.05.02.02.04.05.04.08Zm-2.34-.78a1.12 1.12 0 0 0-.4-.45 1.1 1.1 0 0 0-.57-.14 1.72 1.72 0 0 0-.93.29c-.13.09-.24.2-.33.33a.72.72 0 0 0-.12.41c0 .21.1.4.27.55.2.14.4.21.64.21.3 0 .58-.07.83-.21.26-.15.45-.29.58-.4v-.28l.03-.3Zm7.95 1.12c0 .07-.03.12-.08.17a1.15 1.15 0 0 1-.56.21.79.79 0 0 1-.53-.2 1.6 1.6 0 0 1-.38-.5c-.1-.2-.18-.42-.23-.68-.05-.25-.07-.5-.07-.74a9.71 9.71 0 0 1 .03-1.02 6.3 6.3 0 0 0-.6.69 47.4 47.4 0 0 0-1.01 1.5c-.17.25-.34.5-.53.73l-.3.28c-.1.1-.24.14-.39.14-.19 0-.33-.06-.4-.2-.08-.14-.11-.32-.11-.54 0-.27.04-.56.12-.88a22.66 22.66 0 0 1 .55-1.84l.2-.54a.4.4 0 0 1-.05-.19c0-.08.03-.18.1-.3a2.53 2.53 0 0 1 .64-.7c.12-.09.22-.13.3-.13.12 0 .21.04.3.12.07.07.11.16.11.27a1.35 1.35 0 0 1-.14.44 35.1 35.1 0 0 0-.8 1.79c-.25.6-.43 1.22-.54 1.87a41.5 41.5 0 0 0 1.41-1.9c.2-.27.4-.52.6-.74.22-.23.42-.4.61-.55.2-.15.39-.23.55-.23.3 0 .44.12.44.35v.1c0 .02 0 .05-.02.08a4.97 4.97 0 0 0-.14.79l-.05.6-.03.6c0 .33.03.6.09.84.07.22.2.33.4.33.05 0 .1-.03.11-.1.03-.05.1-.08.2-.08.05 0 .1.01.14.04.04.03.06.07.06.12Zm8.57-10.07c0 .37-.06.8-.18 1.27s-.28.96-.48 1.48a25.38 25.38 0 0 1-1.47 3.05 36.33 36.33 0 0 1-1.46 2.4 6.63 6.63 0 0 0 .26 1.01c.08.16.18.3.3.4a.7.7 0 0 0 .47.18c.12 0 .23-.03.34-.08.1-.05.22-.09.34-.1.1 0 .16.04.16.15 0 .07-.04.13-.13.2-.07.05-.16.11-.27.16a3.47 3.47 0 0 1-.54.15c-.23 0-.42-.04-.58-.13-.15-.1-.28-.23-.4-.38-.1-.16-.2-.32-.27-.5l-.17-.57a5.64 5.64 0 0 1-2.15 1.72c-.26.11-.52.17-.76.17a.99.99 0 0 1-.8-.4c-.22-.26-.32-.72-.32-1.36a4.62 4.62 0 0 1 .62-2.3c.21-.36.47-.63.76-.85.3-.22.62-.33.98-.33a1.07 1.07 0 0 1 .79.36c.12.1.21.22.3.35l.23.38c.05.08.08.16.08.25a.3.3 0 0 1-.12.25c-.07.06-.16.1-.26.1s-.19-.07-.26-.19a9.3 9.3 0 0 0-.2-.4 1.89 1.89 0 0 0-.31-.39.6.6 0 0 0-.47-.18.8.8 0 0 0-.6.29c-.18.18-.33.41-.47.7a4.93 4.93 0 0 0-.42 1.9c0 .46.05.79.17.98.1.2.25.29.44.29.18 0 .4-.1.66-.32.28-.21.54-.46.8-.74a13.43 13.43 0 0 0 1.22-1.5 14.24 14.24 0 0 1 2.08-7.57c.12-.18.25-.34.4-.5.14-.14.29-.27.45-.37.17-.1.35-.15.52-.15.15 0 .27.03.36.1.1.07.16.16.21.28.06.1.1.23.13.36l.03.38Zm-.74-.29c0-.23-.05-.35-.16-.35-.09 0-.19.06-.3.17a4.23 4.23 0 0 0-.65.79l-.15.27a15.16 15.16 0 0 0-1.2 3.1 16.9 16.9 0 0 0-.36 1.7 9.9 9.9 0 0 0-.14 1.56 21.95 21.95 0 0 0 2.66-5.5c.2-.68.3-1.25.3-1.74Zm11.8 5.2-.14.02c-.09.63-.23 1.23-.44 1.8s-.46 1.1-.77 1.58-.68.9-1.1 1.25c-.42.34-.9.6-1.43.77a5.48 5.48 0 0 1-2.75.14c-.35-.1-.67-.23-.94-.43a2.3 2.3 0 0 1-.67-.72 2.3 2.3 0 0 1-.24-1.1c0-.47.1-.9.29-1.3a3.55 3.55 0 0 1 3.25-1.99c.17 0 .34.02.53.05.18.02.34.07.48.15a.89.89 0 0 1 .49.83c0 .28-.1.55-.32.84a4.21 4.21 0 0 1-2.63 1.53.7.7 0 0 1-.51-.2.7.7 0 0 1-.2-.51c0-.11.01-.23.03-.34l.12-.32c.06-.1.13-.18.21-.24.1-.06.2-.09.34-.09.13 0 .23.05.3.14.07.08.1.18.1.3 0 .1-.02.18-.07.24-.04.05-.1.1-.16.12l-.22.08a.6.6 0 0 0-.22.08l-.07.09a.29.29 0 0 0-.01.09c0 .09.04.15.12.18.08.03.16.05.23.05.22 0 .48-.07.77-.2a4 4 0 0 0 1.53-1.19c.2-.25.3-.5.3-.74 0-.14-.04-.25-.11-.32a.67.67 0 0 0-.26-.18.91.91 0 0 0-.33-.09 3.53 3.53 0 0 0-2.58.79 2.54 2.54 0 0 0-1.02 2.1c0 .35.05.65.17.9.1.26.26.46.47.63.2.15.44.26.7.34a3.74 3.74 0 0 0 1.85-.01 4.2 4.2 0 0 0 2.23-1.38c.35-.43.63-.88.85-1.37.22-.5.4-1.01.53-1.56.13-.56.25-1.11.36-1.67.12-.57.25-1.12.4-1.65a8.6 8.6 0 0 1 .97-2.2c.14-.2.3-.4.48-.6.11-.13.22-.2.32-.2.05 0 .1.03.17.08.06.04.09.09.09.14 0 .08-.02.15-.05.21a5.52 5.52 0 0 0-.96 1.94l-.2.9-.16.93-.16.92c.58 0 1.09-.09 1.51-.26.43-.17.78-.4 1.05-.66.28-.29.5-.6.62-.95a3 3 0 0 0 .2-1.04 2.14 2.14 0 0 0-.97-1.8c-.3-.19-.63-.33-1.02-.42a5.78 5.78 0 0 0-4 .6c-.38.24-.7.53-.96.87a1.98 1.98 0 0 0-.26 1.8c.08.17.18.31.3.43.14.12.28.2.45.26.17.05.34.08.51.08.23 0 .44-.04.6-.12.18-.1.33-.2.45-.34a1.48 1.48 0 0 0 .36-1c0-.27-.08-.51-.25-.73a.82.82 0 0 0-.69-.33.96.96 0 0 0-.63.24.87.87 0 0 0-.28.69c0 .13.03.24.1.34.06.1.17.14.31.14.05 0 .08-.03.08-.09l-.02-.17c0-.23.12-.35.37-.35.12 0 .2.06.22.19.03.1.05.21.05.31s-.03.19-.1.25a.57.57 0 0 1-.2.15c-.08.04-.17.07-.26.09l-.23.02a.61.61 0 0 1-.3-.08 1.07 1.07 0 0 1-.22-.21c-.05-.1-.09-.19-.12-.3a1.19 1.19 0 0 1-.04-.31c0-.38.13-.68.4-.9.26-.2.56-.31.92-.31.42 0 .75.13.98.4.25.27.37.59.37.96 0 .22-.04.45-.12.67-.07.22-.2.42-.35.6-.15.19-.35.34-.58.45a2.24 2.24 0 0 1-1.5.06 1.78 1.78 0 0 1-1.03-.93c-.1-.23-.15-.5-.15-.82 0-.51.13-.97.4-1.36.29-.4.65-.75 1.1-1.02.44-.28.94-.5 1.5-.64a7.04 7.04 0 0 1 1.71-.21c.51 0 1 .06 1.46.18.48.11.9.29 1.26.53.37.24.65.53.87.9.22.36.33.8.33 1.29a2.94 2.94 0 0 1-1.05 2.23c-.34.3-.77.55-1.29.74-.51.18-1.12.28-1.82.28Zm9.38 4.82c0 .08-.04.17-.13.27a1.53 1.53 0 0 1-.65.47.78.78 0 0 1-.35.09c-.46 0-.8-.17-1.01-.52a4.04 4.04 0 0 1-1.08.41 3.01 3.01 0 0 1-1.22.02 1.34 1.34 0 0 1-.82-.58.98.98 0 0 1-.13-.51c0-.27.08-.48.23-.66.15-.18.33-.32.54-.42.23-.11.46-.19.72-.23a4.43 4.43 0 0 1 1.26-.01c.16.03.34.08.54.16l.53-.95c.19-.32.28-.66.28-1.03 0-.39-.1-.7-.3-.93-.18-.24-.48-.36-.87-.36-.21 0-.43.04-.65.13a2.01 2.01 0 0 0-1.07.9c-.1.2-.16.42-.16.67 0 .15.04.3.12.44a.1.1 0 0 0 .09.04h.06a.13.13 0 0 1 .06-.01c.12 0 .18.05.18.15s-.04.18-.13.24c-.1.05-.21.08-.35.08a.62.62 0 0 1-.55-.3c-.13-.18-.2-.38-.2-.58 0-.36.08-.67.23-.93a2.4 2.4 0 0 1 1.46-1.08c.31-.09.62-.13.92-.13a2.85 2.85 0 0 1 1.44.4 1.5 1.5 0 0 1 .69 1.25c0 .3-.06.58-.17.85-.11.27-.23.55-.36.82-.14.27-.26.55-.37.83-.11.29-.16.59-.16.9 0 .11.02.23.06.35.04.11.13.17.27.17.1 0 .2-.03.27-.08l.25-.18.2-.18c.08-.07.14-.1.19-.1.03 0 .06.02.09.05.03.02.05.05.05.08Zm-2.34-.78a1.12 1.12 0 0 0-.4-.45 1.1 1.1 0 0 0-.57-.14 1.73 1.73 0 0 0-.93.29c-.13.09-.24.2-.33.33a.72.72 0 0 0-.12.41c0 .21.09.4.27.55.2.14.4.21.64.21.3 0 .58-.07.83-.21.26-.15.45-.29.58-.4v-.28c0-.1 0-.2.03-.3Zm7.37-4.14c0 .13-.04.22-.11.27a.69.69 0 0 1-.26.12c-.14.04-.3.07-.5.1a10.17 10.17 0 0 1-.99.07h-.25c-.1.25-.18.58-.26.97a20.05 20.05 0 0 0-.41 3.5l.03.26c.02.09.03.17.03.26 0 .06-.04.12-.1.17a.35.35 0 0 1-.2.08c-.13 0-.23-.05-.3-.16a.7.7 0 0 1-.08-.33c0-.8.04-1.6.13-2.4.1-.8.22-1.59.34-2.36h-1.63c-.12 0-.18-.07-.18-.2 0-.12.04-.2.12-.26.1-.06.2-.1.3-.12a4.37 4.37 0 0 1 .68-.06l.42-.02a6 6 0 0 1 .42-.01c.04-.16.07-.38.11-.65a42.91 42.91 0 0 0 .32-1.93 55.3 55.3 0 0 1 .36-1.87c.06-.25.12-.44.16-.56.04-.11.12-.2.24-.26a.8.8 0 0 1 .38-.1c.13 0 .22.04.29.12.07.07.1.16.1.29l-.01.1c0 .03 0 .07-.02.1a59.41 59.41 0 0 1-.53 2.4c-.2.78-.38 1.57-.56 2.36l.4.04h.95c.11 0 .2 0 .29-.03a.58.58 0 0 1 .18-.04c.1 0 .14.05.14.15Zm1.8-1.18c0 .08 0 .18-.04.3a1.64 1.64 0 0 1-.35.67.38.38 0 0 1-.27.12.3.3 0 0 1-.26-.14.68.68 0 0 1-.07-.3 2.07 2.07 0 0 1 .12-.67.8.8 0 0 1 .2-.27c.09-.08.2-.12.32-.12.1 0 .2.04.25.12.07.08.1.17.1.29Zm-.31 2.65c0 .28-.06.6-.17.96-.1.35-.2.66-.3.92a5.33 5.33 0 0 0-.35 1.95c0 .14-.04.24-.14.3-.09.06-.17.09-.25.09-.13 0-.2-.05-.23-.15a1.18 1.18 0 0 1-.05-.3c0-.3.03-.6.08-.89a22 22 0 0 1 .35-1.74c.05-.3.07-.59.07-.88v-.55c0-.13.06-.21.17-.26a.97.97 0 0 1 .33-.06c.18 0 .3.07.37.2.08.12.12.26.12.41Zm4.12.29-.27-.03c-.1-.02-.18-.05-.26-.1a.68.68 0 0 1-.18-.14.44.44 0 0 1-.08-.26c0-.06.03-.11.08-.15.05-.05.1-.08.17-.08s.1.02.12.06l.06.12c.02.04.06.08.1.12.06.04.15.06.3.06.2 0 .35-.06.46-.2a.68.68 0 0 0 .17-.45c0-.2-.08-.39-.26-.56-.16-.17-.42-.26-.77-.26-.17 0-.34.04-.52.1a1.6 1.6 0 0 0-.75.7c-.09.16-.13.33-.13.5 0 .18.06.34.17.5.12.14.27.28.46.42l.57.44c.2.14.4.3.58.47.18.17.33.36.44.56.12.2.18.44.18.7 0 .3-.07.55-.21.77-.13.22-.31.41-.53.56a2.67 2.67 0 0 1-2.12.38 1.6 1.6 0 0 1-.57-.22c-.16-.1-.3-.24-.4-.4-.1-.17-.16-.37-.16-.6 0-.4.13-.7.4-.96.26-.27.58-.4.95-.4.23 0 .45.07.64.2.2.13.3.33.3.6 0 .2-.07.4-.21.57a.7.7 0 0 1-.55.24.54.54 0 0 1-.3-.09.36.36 0 0 1-.12-.29c0-.1.04-.18.13-.26.1-.08.2-.12.3-.12.08 0 .13.02.14.05.01.03.05.06.11.1.06-.06.1-.12.1-.18a.36.36 0 0 0-.2-.33.69.69 0 0 0-.37-.1c-.23 0-.44.09-.62.28a.88.88 0 0 0-.14 1.06c.1.11.2.2.34.28.14.07.28.12.44.15.16.03.3.04.44.04.17 0 .32-.03.47-.1a1.46 1.46 0 0 0 .77-1.22.75.75 0 0 0-.17-.47 4.84 4.84 0 0 0-.97-.83c-.2-.14-.37-.29-.54-.44-.17-.16-.3-.33-.41-.5a1.13 1.13 0 0 1-.17-.6c0-.31.06-.59.2-.83.13-.24.3-.44.51-.6a2.5 2.5 0 0 1 1.58-.54c.24 0 .46.04.64.11a1.1 1.1 0 0 1 .7.64c.06.14.09.29.09.44 0 .27-.1.52-.3.76-.18.22-.46.33-.83.33Zm4.94 0a1.11 1.11 0 0 1-.53-.12.67.67 0 0 1-.19-.15.43.43 0 0 1-.07-.26c0-.06.02-.11.08-.15.05-.05.1-.08.16-.08.07 0 .11.02.12.06l.06.12c.02.04.06.08.11.12.05.04.15.06.29.06.2 0 .36-.06.47-.2a.69.69 0 0 0 .17-.45c0-.2-.09-.39-.26-.56-.16-.17-.42-.26-.78-.26-.17 0-.34.04-.51.1a1.57 1.57 0 0 0-.76.7c-.08.16-.12.33-.12.5 0 .18.05.34.17.5.12.14.27.28.45.42l.58.44c.2.14.4.3.57.47.19.17.33.36.44.56.13.2.19.44.19.7 0 .3-.07.55-.22.77-.13.22-.3.41-.53.56a2.67 2.67 0 0 1-2.12.38 1.6 1.6 0 0 1-.97-.62c-.1-.17-.15-.37-.15-.6 0-.4.13-.7.39-.96.26-.27.58-.4.96-.4.23 0 .44.07.63.2.2.13.3.33.3.6 0 .2-.06.4-.2.57a.7.7 0 0 1-.55.24.53.53 0 0 1-.3-.09.36.36 0 0 1-.13-.29c0-.1.05-.18.14-.26.1-.08.2-.12.29-.12.09 0 .14.02.15.05 0 .03.04.06.1.1.07-.06.1-.12.1-.18 0-.15-.06-.26-.19-.33a.7.7 0 0 0-.37-.1c-.24 0-.44.09-.63.28a.88.88 0 0 0-.13 1.06c.09.11.2.2.33.28.14.07.29.12.44.15.16.03.3.04.44.04.17 0 .33-.03.47-.1a1.46 1.46 0 0 0 .77-1.22.74.74 0 0 0-.16-.47 4.67 4.67 0 0 0-.97-.83 3.1 3.1 0 0 1-.96-.94 1.14 1.14 0 0 1-.17-.6c0-.31.07-.59.2-.83s.3-.44.52-.6a2.5 2.5 0 0 1 1.58-.54c.24 0 .45.04.63.11a1.1 1.1 0 0 1 .7.64c.06.14.1.29.1.44 0 .27-.1.52-.3.76-.19.22-.47.33-.83.33Zm2.9.21a1.52 1.52 0 0 0 .47.06c.33 0 .62-.04.86-.13.26-.1.46-.23.63-.37.16-.14.28-.3.35-.47.08-.18.12-.35.12-.5a.66.66 0 0 0-.15-.44c-.1-.12-.23-.18-.41-.18a.9.9 0 0 0-.49.18 3.23 3.23 0 0 0-1.03 1.12c-.15.25-.27.49-.35.73Zm3.41 2.44c0 .04 0 .07-.03.1a2.1 2.1 0 0 1-.55.56 3.32 3.32 0 0 1-1.32.6 3 3 0 0 1-.72.1c-.28 0-.54-.04-.8-.13-.23-.08-.45-.2-.64-.38a2.04 2.04 0 0 1-.44-.68c-.11-.27-.17-.6-.17-.98a5 5 0 0 1 .88-2.84c.28-.42.61-.75.99-1 .38-.27.8-.4 1.26-.4.32 0 .57.12.75.35.2.23.3.51.3.84 0 .22-.06.45-.16.68-.09.22-.24.43-.45.62-.22.18-.49.33-.82.46a3.33 3.33 0 0 1-1.64.13 2.83 2.83 0 0 0 .04 2.28c.1.16.22.3.37.4.15.1.33.14.54.14.39 0 .78-.08 1.19-.25.4-.19.73-.4.98-.63l.12-.07c.06-.04.12-.06.2-.06s.12.05.12.16Zm5.27-3.36c-.1 0-.18-.03-.23-.08a1.55 1.55 0 0 1-.2-.32c-.03-.05-.07-.07-.12-.07-.15 0-.33.07-.53.22-.2.16-.4.35-.6.6a11.4 11.4 0 0 0-1.78 3.03c-.05.15-.1.32-.13.52l-.1.53c-.06.24-.23.36-.52.36a.62.62 0 0 1-.3-.06c-.06-.04-.1-.13-.1-.27s.02-.29.04-.43l.07-.42c.05-.34.1-.67.13-1l.09-1.04.01-.45a351.33 351.33 0 0 0 .08-1.35c.02-.2.04-.33.06-.38.08-.21.24-.32.48-.32.15 0 .26.03.34.1.08.04.12.14.12.3 0 .43-.03.87-.1 1.32l-.16 1.32a10.74 10.74 0 0 1 1.35-2.02c.3-.35.6-.64.94-.87.34-.24.66-.36.99-.36.2 0 .37.05.5.16.14.12.21.28.21.5 0 .15-.05.27-.17.35a.59.59 0 0 1-.37.13Zm2.8-2.23a1.8 1.8 0 0 1-.18.67l-.22.3a.38.38 0 0 1-.27.12.3.3 0 0 1-.26-.14.67.67 0 0 1-.07-.3 2.07 2.07 0 0 1 .12-.67.8.8 0 0 1 .2-.27c.09-.08.2-.12.31-.12.11 0 .2.04.26.12.07.08.1.17.1.29Zm-.32 2.65c0 .28-.06.6-.17.96-.1.35-.2.66-.3.92a5.33 5.33 0 0 0-.35 1.95c0 .14-.05.24-.14.3-.09.06-.18.09-.26.09-.12 0-.2-.05-.22-.15a1.18 1.18 0 0 1-.05-.3c0-.3.03-.6.08-.89a24.02 24.02 0 0 1 .34-1.74c.06-.3.08-.59.08-.88v-.55c0-.13.06-.21.17-.26a.98.98 0 0 1 .33-.06c.17 0 .3.07.37.2.08.12.12.26.12.41Zm2.09.5a1.52 1.52 0 0 0 .47.06c.33 0 .62-.04.86-.13.26-.1.46-.23.63-.37.16-.14.27-.3.34-.47.09-.18.13-.35.13-.5a.66.66 0 0 0-.16-.44c-.09-.12-.22-.18-.4-.18a.9.9 0 0 0-.5.18 3.23 3.23 0 0 0-1.02 1.12c-.15.25-.27.49-.35.73Zm3.41 2.44c0 .04 0 .07-.03.1a2.1 2.1 0 0 1-.55.56 3.32 3.32 0 0 1-1.32.6 3 3 0 0 1-.72.1c-.28 0-.54-.04-.8-.13-.24-.08-.45-.2-.65-.38a2.04 2.04 0 0 1-.44-.68 2.6 2.6 0 0 1-.16-.98 5.03 5.03 0 0 1 .88-2.84c.28-.42.61-.75.98-1 .39-.27.8-.4 1.26-.4a.9.9 0 0 1 .76.35c.2.23.3.51.3.84 0 .22-.06.45-.16.68-.1.22-.24.43-.46.62-.2.18-.48.33-.82.46a3.33 3.33 0 0 1-1.63.13 2.83 2.83 0 0 0 .04 2.28c.1.16.21.3.36.4.16.1.34.14.55.14.39 0 .78-.08 1.18-.25.41-.19.74-.4 1-.63l.11-.07c.05-.04.12-.06.2-.06s.12.05.12.16Z"/><defs><linearGradient id="a" x1="128.35" x2="128.35" y1="112.5" y2="-.81" gradientUnits="userSpaceOnUse"><stop stop-color="#AD2424"/><stop offset=".62" stop-color="#FF3633"/><stop offset="1" stop-color="#FF6461" stop-opacity=".86"/></linearGradient><linearGradient id="b" x1="100.29" x2="100.29" y1="122.28" y2="-2.97" gradientUnits="userSpaceOnUse"><stop stop-color="#1F1B20"/><stop offset=".73" stop-color="#4C7384"/><stop offset=".89" stop-color="#9BB5C3"/><stop offset="1" stop-color="#9BB5C3"/></linearGradient><linearGradient id="c" x1="132.72" x2="132.72" y1="109.27" y2="2.5" gradientUnits="userSpaceOnUse"><stop stop-color="#4C7384"/><stop offset=".15" stop-color="#4C7384"/><stop offset=".89" stop-color="#9BB5C3"/><stop offset="1" stop-color="#9BB5C3"/></linearGradient><linearGradient id="d" x1="134.62" x2="134.62" y1="111.69" y2="0" gradientUnits="userSpaceOnUse"><stop stop-color="#1F1B20"/><stop offset=".53" stop-color="#4A4A4A"/><stop offset="1" stop-color="#A19F9F"/></linearGradient><linearGradient id="e" x1="127.34" x2="127.34" y1="111.69" y2=".02" gradientUnits="userSpaceOnUse"><stop stop-color="#1F1B20"/><stop offset=".53" stop-color="#232323"/><stop offset="1" stop-color="#A19F9F"/></linearGradient><linearGradient id="f" x1="132.26" x2="132.26" y1="108.48" y2="2.88" gradientUnits="userSpaceOnUse"><stop stop-color="#585554"/><stop offset=".53" stop-color="#6E6C6B"/><stop offset="1" stop-color="#A19F9F"/></linearGradient><linearGradient id="g" x1="130.81" x2="130.81" y1="111.69" y2="0" gradientUnits="userSpaceOnUse"><stop stop-color="#6B4326"/><stop offset=".08" stop-color="#4D453F"/><stop offset=".7" stop-color="#E41C3C"/><stop offset=".92" stop-color="#FC5B5B"/><stop offset="1" stop-color="#E41C3C"/></linearGradient><linearGradient id="h" x1="24.61" x2="24.61" y1="511.12" y2="-51.91" gradientUnits="userSpaceOnUse"><stop stop-color="#BED2DB"/><stop offset=".15" stop-color="#BED2DB"/><stop offset=".89" stop-color="#D0E2EC"/><stop offset="1" stop-color="#D0E2EC"/></linearGradient><radialGradient id="i" cx="0" cy="0" r="1" gradientTransform="matrix(131.737 0 0 56.2204 129.79 56.13)" gradientUnits="userSpaceOnUse"><stop stop-color="#2B2927"/><stop offset=".75" stop-color="#2B2927"/><stop offset=".81" stop-color="#6E6C6B"/><stop offset="1" stop-color="#262523"/></radialGradient><radialGradient id="j" cx="0" cy="0" r="1" gradientTransform="matrix(131.737 0 0 56.2204 129.79 56.13)" gradientUnits="userSpaceOnUse"><stop stop-color="#2B2927"/><stop offset=".75" stop-color="#2B2927"/><stop offset=".81" stop-color="#6E6C6B"/><stop offset="1" stop-color="#262523"/></radialGradient><radialGradient id="k" cx="0" cy="0" r="1" gradientTransform="matrix(104.14965 -41.57468 28.6922 71.87748 138.95 55.26)" gradientUnits="userSpaceOnUse"><stop stop-color="#7F7B7B"/><stop offset=".43" stop-color="#7F7B7B"/><stop offset=".91" stop-color="#252422"/><stop offset="1" stop-color="#6E6C6B"/></radialGradient></defs></svg>