<svg width="76" height="80" viewBox="0 0 763 801" fill="none" xmlns="http://www.w3.org/2000/svg">
<path d="M515.113 79.1493C508.985 85.861 508.696 93.7399 511.903 99.868C501.397 100.163 490.6 101.622 479.512 104.245C417.353 120.003 339.734 198.209 323.684 261.243C319.015 261.824 314.054 262.118 309.385 262.994C241.685 276.417 199.955 338.865 185.365 401.605C145.387 417.946 93.7359 459.092 92.8604 504.614C92.8604 508.992 95.4868 514.536 99.5721 516.287C101.031 516.87 102.198 517.454 103.657 518.041C45.0032 541.966 -1.97851 604.125 0.0641757 684.079C4.73317 884.846 247.521 777.167 337.107 713.555C451.5 632.428 543.421 508.408 630.378 400.149C691.954 323.402 752.939 249.573 761.113 147.439C776.284 -39.0346 621.043 -33.1983 515.113 79.1493ZM709.754 207.255C674.737 332.15 547.798 445.082 462.878 539.626C385.253 626.294 304.132 705.083 194.995 749.147C107.451 784.459 23.9928 742.435 42.3769 633.881C62.8038 512.488 208.71 534.373 266.78 602.949C274.659 612.287 288.375 600.323 283.122 590.401C242.268 514.822 175.443 495.562 117.081 513.363C115.914 483.89 168.148 450.623 189.158 439.534C253.941 405.101 308.218 434.865 370.082 455C384.673 459.672 393.719 440.705 384.381 430.491C344.986 387.595 276.41 379.716 219.799 391.677C239.35 347.03 269.115 312.013 319.89 298.592C380.879 282.834 423.189 323.396 475.715 342.656C486.515 346.741 496.437 332.737 490.6 323.396C462.878 280.208 406.85 260.657 354.616 259.489C389.925 228.265 415.605 184.785 455.878 157.063C532.913 104.537 591.862 166.693 644.388 220.095C657.812 233.81 681.157 216.012 670.943 199.668C641.181 151.814 597.409 113 545.464 102.494C583.983 62.8079 684.953 -28.5294 720.843 72.7295C734.85 115.042 721.132 166.401 709.754 207.255Z" fill="#EADDFF"/>
</svg>
