<svg width="86" height="78" viewBox="0 0 860 787" fill="none" xmlns="http://www.w3.org/2000/svg">
<path d="M827.881 354.033C787.868 277.267 706.063 230.436 630.779 193.684C556.681 157.82 517.26 162.859 460.649 196.351C455.314 188.052 449.093 180.642 441.087 175.307C427.453 166.415 411.151 165.823 395.442 169.379C394.553 162.562 393.071 156.042 391.589 149.225C383.883 104.469 356.022 66.5306 319.269 37.7804C303.264 25.0355 280.738 47.5614 296.743 60.3063C335.867 90.8349 359.875 127.291 361.654 175.9C344.759 179.753 329.347 189.534 319.269 207.021C306.228 229.547 299.411 252.37 306.524 274.303C216.124 307.203 134.023 359.664 50.4399 407.084C43.3264 411.234 41.548 418.94 43.9192 425.76C21.0969 518.232 32.6562 610.707 35.0274 705.26C35.3238 715.633 42.7336 721.858 52.5146 722.744C183.817 737.267 315.12 741.713 447.311 743.791C535.34 744.973 631.668 761.574 718.811 748.533C750.229 743.791 765.049 712.966 774.827 687.18C811.286 592.633 781.94 482.078 819.286 385.157C820.178 382.786 820.471 380.415 820.471 378.34C829.07 374.188 832.624 363.221 827.881 354.033ZM316.305 293.568C317.194 295.05 318.084 296.236 319.269 297.718C360.468 345.734 453.239 328.246 471.023 268.079C473.987 257.705 474.58 246.145 473.397 234.586C541.864 197.833 590.173 212.949 667.236 255.037C705.471 275.785 739.259 302.46 770.677 332.1C802.391 362.035 675.238 376.855 671.385 377.744C490.286 412.719 301.779 407.68 117.425 405.902C183.817 368.556 250.802 332.1 316.305 293.568ZM677.017 715.337C634.04 715.93 590.173 710.002 547.496 709.113C415.004 705.852 282.813 706.742 150.621 698.443C91.935 694.293 67.9271 654.873 59.3317 604.186C181.15 642.718 332.607 653.684 460.353 656.355C553.717 658.429 646.785 667.321 739.259 671.471C730.664 696.664 713.177 714.744 677.017 715.337ZM754.971 507.861C752.897 505.789 750.226 504.307 746.969 503.415C730.368 495.116 708.734 493.934 691.836 497.191C690.354 497.487 689.465 498.08 688.283 498.673C592.844 486.224 469.247 512.9 386.551 507.861C338.831 504.897 217.902 481.485 131.948 489.781C130.17 488.299 128.391 487.114 126.02 486.521C105.866 480.593 84.8216 479.701 63.7776 479.701C61.4064 479.701 59.3317 480.294 57.5533 480.886C58.4425 465.474 59.6281 450.358 60.2209 436.724C300.893 437.317 542.157 445.026 777.494 389.6C764.749 428.131 758.821 467.848 754.971 507.861Z" fill=" #663300"/>
</svg>
