<svg width="80" height="68" viewBox="0 0 800 685" fill="none" xmlns="http://www.w3.org/2000/svg">
<path d="M794.924 257.885C783.715 218.56 768.438 170.476 719.898 116.197C644.282 34.7632 535.768 0 399.322 0C274.013 0 162.666 37.4598 87.9252 116.197C-34.6587 244.751 -2.28003 322.486 27.0433 350.566C31.0753 354.426 41.3375 363.022 46 366L40.1363 433.125C40.1363 503.555 78.3926 569.3 147.856 618.257C215.277 665.775 304.611 685 399.345 685C494.08 685 583.36 665.775 650.783 618.257C720.249 569.3 758.505 503.553 758.505 433.125V362.144C758.562 362.114 758.608 362.096 758.667 362.065C768.837 356.685 777.745 349.215 784.43 340.462C795.731 325.654 806.727 299.309 794.924 257.885ZM399.322 653.491C227.334 653.491 86.5539 559.998 78.9283 443.104C85.6106 463.982 97.9834 484.608 125.987 498.429C126.358 498.613 126.738 498.785 127.12 498.944C171.051 517.184 194.41 509.296 218.543 494.442C238.377 482.234 255.512 464.998 275.756 468.788C296.001 472.577 277.451 469.131 277.451 469.131C287.944 470.769 291.707 483.552 297.792 512.327C306.277 552.439 351 609.22 394 609.22C437 609.22 436.712 604.307 453.5 597C470.288 589.693 480.124 581.849 508 532C516.862 516.152 511.571 470.633 521.232 469.141C521.816 469.052 522.39 468.936 522.965 468.793C540.618 464.381 553.672 471.638 573.504 483.849C597.639 498.711 609.099 533.745 653.043 515.5C675.543 506.158 677.67 503.884 685.543 500C713.605 486.156 713.241 462.062 719.898 439.831C714.715 558.252 572.912 653.491 399.322 653.491ZM759.797 305.271C754.932 325.916 733.337 331.034 732.701 331.268C699.023 341.69 717.501 359.89 713 386.442C707.702 417.706 678.753 452.324 656.289 463.689C632.048 473.537 617.374 465.712 593.661 451.117C573.437 438.67 548.32 423.198 514.473 431.298C477.324 437.588 485.352 482.719 479.5 512.327C470.747 556.606 447.606 575.618 399.345 578.084C352.84 575.733 344.735 548.491 335.41 504.378C329.115 474.614 321.295 437.626 284.261 431.29C250.424 423.18 236.184 444.189 205.06 451.109C180.715 456.521 166.683 473.524 142.448 463.676C119.11 451.909 114.749 433.559 109.61 404.717C105.178 379.836 98.9433 361.387 68 345C67.8847 344.936 45.5268 324.16 41.1052 300.609C37.1783 279.69 40.6029 231.696 122.678 142.165C122.762 142.073 122.836 141.968 122.918 141.873C122.97 141.819 155.451 110.059 155.5 110C213.285 42.9151 286.709 32.9536 399.322 32.9536C523.905 32.9536 621.754 71.2662 674.854 140.837C674.977 140.999 675.115 141.135 675.241 141.289C675.433 141.527 675.608 141.768 675.815 141.996C681.339 148.166 750.605 237.773 698.543 289.442C658.457 329.224 563.156 351.691 458.133 358.743C362.158 365.184 249.652 351.421 205.06 325.442C158.676 298.421 151.176 264.272 151.176 228.113C151.178 191.956 172.161 143.836 218.543 116.82C299.967 69.3797 439.803 69.3797 521.232 116.82C548.702 132.822 579.543 162.376 579.543 182.949C579.543 203.524 554.513 234.5 527.043 250.5C477.711 279.247 385.742 272.336 336.397 243.582C321.256 234.765 312.569 223.712 312.569 213.264C312.569 202.816 321.254 191.766 336.397 182.949C365.354 166.072 417.583 161.974 444.13 181.754C449.5 185.756 458.522 194.56 458.133 198.948C457.866 201.927 456.359 213.059 452.33 215.071C443.34 219.567 420.712 226.055 414.043 213.259C409.137 203.837 388.169 184.23 378.76 189.142C369.342 194.045 365.685 205.654 370.593 215.071C388.856 250.136 436.855 250.572 463.059 237.471C479.123 229.441 489.171 215.399 490.627 198.948C492.214 181.031 483.417 163.076 467.096 150.919C425.857 120.201 357.098 126.383 317.04 149.722C289.362 165.842 274.118 188.406 274.118 213.259C274.118 238.115 289.362 260.684 317.042 276.804C378.939 312.866 475.906 312.871 537.793 276.804C577.577 253.63 599.485 221.689 599.485 186.863C599.485 152.036 577.574 120.096 537.793 96.9216C492.872 70.751 433.554 56.338 370.768 56.338C307.981 56.338 248.665 70.751 203.747 96.9216C145.055 131.115 112.73 177.704 112.727 228.108C112.727 278.516 145.049 325.111 203.747 359.307C246.735 384.352 264.734 386.442 350.043 386.442C366.881 386.442 449.851 396.101 467.096 394.942C583.006 387.16 669.805 357.502 716.376 309.808C731.314 294.511 745.202 273.915 750.275 247.714C763.283 276.766 762.273 294.76 759.797 305.271Z" fill="#663300"/>
</svg>
