<svg width="80" height="78" viewBox="0 0 80 78" fill="none" xmlns="http://www.w3.org/2000/svg">
<path d="M63.3368 15.7577C62.9732 15.7577 62.6026 15.7697 62.2377 15.7929C62.2286 15.7937 62.2191 15.7942 62.21 15.795C61.938 15.8182 61.5549 15.5952 61.3754 15.1744C57.8052 6.50282 49.4391 0.899902 40.0616 0.899902C40.0408 0.899902 40.0205 0.901146 40.0002 0.901146C39.9795 0.901146 39.9592 0.899902 39.9388 0.899902C30.5617 0.899902 22.1953 6.50282 18.625 15.1744C18.4455 15.5952 18.062 15.8178 17.7909 15.795C17.7813 15.7942 17.7722 15.7933 17.7627 15.7929C17.397 15.7697 17.0272 15.7577 16.6632 15.7577C7.47511 15.7577 0 23.2328 0 32.4209C0 41.0274 4.65106 47.5322 13.1 48.3999L16.9501 55.2927L21.9685 70.9457C22.6757 73.1503 24.756 75.0142 27.9847 76.3363C28.4594 76.5312 28.9561 76.709 29.4693 76.8752C29.4813 76.8794 29.4933 76.8831 29.5054 76.8869C31.2602 77.4515 33.2286 77.852 35.3525 78.0758C35.3599 78.0767 35.3674 78.0775 35.3748 78.0783C36.9237 78.2558 42.4972 78.3959 44.6247 78.0783C44.6322 78.0771 44.6397 78.0767 44.6475 78.0758C46.7722 77.852 48.7398 77.4515 50.4946 76.8869C50.5062 76.8827 50.5187 76.879 50.5307 76.8752C51.0435 76.7094 51.5406 76.5312 52.0153 76.3363C55.2439 75.0151 57.3243 73.1503 58.0319 70.9457L63.0499 55.2927L66.85 47.9673C75.2989 47.1 80 41.0278 80 32.4209C80.0004 23.2328 72.5253 15.7577 63.3368 15.7577ZM31.1209 74.4554L26.074 52.8928C25.8978 52.1408 25.1449 51.6735 24.3929 51.8489C23.6404 52.0255 22.8238 52.7784 23 53.5312L27.9665 73.2573C26.1345 72.3274 24.0961 69.2163 23.7383 68.0999L19.615 54.4383L17.8908 49.0539C19.6104 48.9855 21.9548 48.738 23.7383 47.9673C25.1814 47.3429 26.5739 46.28 27.6929 45.4256C28.18 45.0533 28.85 45.0499 29.274 45.1499C30.2093 45.3986 30.8992 45.2145 31.8124 45.5603L32.55 60.0834L33.9819 75.0735C32.9513 74.9098 31.9957 74.7008 31.1209 74.4554ZM43.1887 75.3956C42.3293 75.4562 37.6716 75.4562 36.8117 75.3956L34.6817 46.4155C36.3553 46.7895 38.1185 46.9835 39.9388 46.9835C39.9596 46.9835 39.9799 46.9827 40.0002 46.9827C40.0205 46.9827 40.0412 46.9835 40.0616 46.9835C41.8824 46.9835 43.6451 46.7895 45.3187 46.4155L44.6247 62.0334L43.1887 75.3956ZM60.3846 54.4387L55.3667 70.0912C55.0093 71.2068 53.8655 72.3282 52.0335 73.2581L56.6506 53.5312C56.8272 52.7792 56.1195 52.5757 55.3667 52.3999C54.615 52.2241 54.1022 52.1408 53.9256 52.8936L48.8795 74.4566C48.0047 74.7012 47.0487 74.9102 46.0181 75.0748L48.1871 45.5615C49.1013 45.2158 49.8209 45.2659 50.65 44.7999C51.0335 45.0283 51.8192 45.0545 52.3067 45.4268C53.4256 46.2812 54.7573 47.7756 56.2 48.3999C57.9835 49.1706 60.3892 48.9867 62.1088 49.0551L60.3846 54.4387ZM63.9541 46.2696C63.9089 46.2713 63.6626 46.28 63.2812 46.28C62.1171 46.28 59.2126 46.1942 57.3719 45.3986C56.2443 44.9111 55.0549 44.0032 54.006 43.2018C52.621 42.1438 52.1788 41.0499 51.2 41.0499C50.8642 41.0499 50.0676 41.5336 49.7915 41.6986C47.0719 43.3249 43.7077 44.1847 40.0616 44.1847C40.0412 44.1847 40.0205 44.1839 40.0002 44.1839C39.9799 44.1839 36.4703 43.7999 36.45 43.7999C32.9 43.5499 32.9285 43.3249 30.2093 41.6986C29.9332 41.5336 29.6094 41.4453 29.274 41.4453C28.2948 41.4453 27.3799 42.1442 25.9948 43.2018C24.9455 44.0032 23.7561 44.9115 22.6285 45.3986C20.7882 46.1942 17.8829 46.28 16.7196 46.28C16.3378 46.28 16.0915 46.2713 16.0463 46.2696C8.61477 45.9409 2.3 40.8365 2.3 33.3999C2.3 25.7548 9.01814 18.5564 16.6632 18.5564C16.9642 18.5564 17.7415 18.595 17.8261 18.595C19.2729 18.595 22.0224 20.0157 22.6285 18.595C25.7722 10.9594 31.6997 3.69825 39.9388 3.69825C39.9596 3.69825 39.9799 3.69949 40.0002 3.69949C40.0209 3.69949 40.0412 3.69825 40.0616 3.69825C48.3003 3.69825 54.5563 5.94872 57.7 13.5834C58.3065 15.0042 60.7275 18.5946 62.1743 18.5946C62.2593 18.5946 63.0362 18.556 63.3372 18.556C70.9823 18.556 75.95 24.7762 75.95 32.4209C75.95 39.8579 71.3852 45.9409 63.9541 46.2696Z" fill="#EADDFF"/>
</svg>
