<svg xmlns="http://www.w3.org/2000/svg" width="30" height="24" fill="none"><path fill="white" fill-rule="evenodd" d="M12 3c-.6 0-1-.4-1-1V1c0-.6.4-1 1-1s1 .4 1 1v1c0 .6-.4 1-1 1ZM4.9 5.9a1 1 0 0 1-.7-.3L2.1 3.5a1 1 0 0 1 0-1.4 1 1 0 0 1 1.4 0l2.1 2.1c.4.4.4 1 0 1.4a1 1 0 0 1-.7.3ZM1 13h1c.6 0 1-.4 1-1s-.4-1-1-1H1c-.6 0-1 .4-1 1s.4 1 1 1Zm1.8 9.2a1 1 0 0 1-.7-.3 1 1 0 0 1 0-1.4l2.1-2.1a1 1 0 0 1 1.4 0c.4.4.4 1 0 1.4l-2.1 2.1a1 1 0 0 1-.7.3Zm8.2.8c0 .6.4 1 1 1s1-.4 1-1v-1c0-.6-.4-1-1-1s-1 .4-1 1v1Zm10-2c-5 0-9-4-9-9s4-9 9-9 9 4 9 9-4 9-9 9ZM13.3 4.1a11.2 11.2 0 0 0 0 15.8L12 20a8 8 0 0 1-8-8 8 8 0 0 1 9.3-7.9Z" clip-rule="evenodd"/></svg>