<svg width="37" height="33" fill="none" xmlns="http://www.w3.org/2000/svg"><circle cx="14.62" cy="30.62" r="2.18" fill="#fff"/><ellipse cx="14.62" cy="30.65" rx="1.14" ry="1.12" fill="#fff"/><circle cx="31.07" cy="30.62" r="2.18" fill="#fff"/><ellipse cx="31.07" cy="30.65" rx="1.14" ry="1.12" fill="#fff"/><path d="M35.34 26.54H11.03c-2.62 0-3.1-3.95 0-3.95l5.14-.52" stroke="#fff" stroke-width="1.11" stroke-linecap="round"/><path d="M6 1.5l5.05 21.04" stroke="#fff" stroke-width="1.18"/><path stroke="#fff" stroke-width="1.44" stroke-linecap="round" d="M7.66 6.11h28.62M11.65 22.29l21.33-1.94"/><path stroke="#fff" stroke-width=".52" d="M8.03 9.67l27.77-.06M9.82 19.14l23.42-.38M9.45 15.77l24.56.11M8.95 12.76l25.6-.03"/><path d="M36 6l-3 14.5" stroke="#fff" stroke-width="1.31"/><path d="M2 1.89l2.12-.03" stroke="#fff" stroke-width="2.03" stroke-linecap="round"/><path d="M3.21 1.2l.38-.17L5.06 1v1.69l-1.82.03-.08-.47.05-1.06z" fill="#fff"/><path stroke="#fff" stroke-width="1.44" d="M4.96 1.81l1.63-.06"/><path stroke="#fff" stroke-width=".52" d="M11.89 6.61v15.85M16.46 6.77l.05 15.3M21.03 6.66l-.05 14.38M25.5 6.61v14.65M29.91 5.79l.11 14.98"/></svg>