<svg width="37" height="33" viewBox="0 0 37 33" fill="none" xmlns="http://www.w3.org/2000/svg">
<path fill-rule="evenodd" clip-rule="evenodd" d="M4.69579 2.69611C4.53605 2.80634 4.343 2.87205 4.13436 2.875L2.01436 2.905C1.45385 2.91293 0.993033 2.46498 0.985102 1.90446C0.97717 1.34395 1.42513 0.883136 1.98564 0.875204L4.10564 0.845204C4.31421 0.842253 4.50897 0.902423 4.67173 1.00803L5.06 1.0001V1.08593L6.56352 1.03059L6.5761 1.37236L7.54271 5.39961C7.58088 5.39335 7.62006 5.3901 7.66 5.3901H36.28C36.6776 5.3901 37 5.71246 37 6.1101C37 6.42934 36.7922 6.70006 36.5045 6.7944L33.7 20.3494C33.7008 20.7183 33.4196 21.0331 33.0452 21.0671L16.3835 22.5826C16.3344 22.603 16.2815 22.6167 16.2259 22.6223L11.0859 23.1423L11.058 23.1451H11.03C10.3768 23.1451 9.98279 23.3497 9.7571 23.5885C9.52666 23.8323 9.41696 24.169 9.43898 24.5314C9.48354 25.2649 10.0508 25.9851 11.03 25.9851H35.34C35.6465 25.9851 35.895 26.2336 35.895 26.5401C35.895 26.8466 35.6465 27.0951 35.34 27.0951H11.03C9.38915 27.0951 8.40646 25.8403 8.33102 24.5988C8.29304 23.9737 8.48084 23.3229 8.9504 22.8261C9.29495 22.4615 9.76311 22.2092 10.3372 22.0985L5.63462 2.50576L5.06 2.52691V2.6901L4.69579 2.69611ZM11.432 21.6037C11.4807 21.5883 11.5318 21.5779 11.5848 21.5731L11.63 21.569V19.3708L10.8989 19.3826L11.432 21.6037ZM11.63 18.8507L10.7746 18.8646L10.0949 16.033L11.63 16.0399V18.8507ZM12.15 19.3623V21.5217L16.247 21.149L16.2409 19.296L12.15 19.3623ZM16.2392 18.7759L12.15 18.8423V16.0422L16.2304 16.0605L16.2392 18.7759ZM16.7609 19.2875L16.7668 21.1017L20.721 20.7421L20.7263 19.2232L16.7609 19.2875ZM20.7281 18.7031L16.7592 18.7675L16.7504 16.0628L20.7372 16.0807L20.7281 18.7031ZM21.2463 19.2147L21.2412 20.6948L25.24 20.3311V19.1499L21.2463 19.2147ZM25.24 18.6299L21.2482 18.6946L21.2572 16.083L25.24 16.1008V18.6299ZM25.76 19.1415V20.2838L29.7538 19.9206L29.7476 19.0768L25.76 19.1415ZM29.7437 18.5568L25.76 18.6214V16.1032L29.7259 16.1209L29.7437 18.5568ZM30.2675 19.0684L30.2734 19.8733L32.5028 19.6705L32.6353 19.0299L30.2675 19.0684ZM30.2637 18.5484L30.2459 16.1232L33.2339 16.1366L32.7433 18.5081L30.2637 18.5484ZM30.2421 15.6032L33.3414 15.6171L33.8848 12.9909L30.2229 12.9952L30.2421 15.6032ZM30.2191 12.4752L33.9924 12.4708L34.5299 9.87285L30.2001 9.8822L30.2191 12.4752ZM29.6801 9.88333L29.6991 12.4758L25.76 12.4804V9.8918L29.6801 9.88333ZM30.1962 9.36221L34.6375 9.35261L35.1594 6.8301H30.1776L30.1962 9.36221ZM29.6576 6.8301L29.6762 9.36333L25.76 9.37179V6.8301H29.6576ZM25.24 6.8301H21.2894L21.2805 9.38147L25.24 9.37292V6.8301ZM25.24 9.89292L21.2787 9.90148L21.2697 12.4857L25.24 12.481V9.89292ZM25.24 13.001L21.2679 13.0057L21.259 15.563L25.24 15.5808V13.001ZM25.76 15.5831L29.722 15.6009L29.7029 12.9958L25.76 13.0004V15.5831ZM20.739 15.5607L20.7479 13.0063L16.7404 13.011L16.7487 15.5428L20.739 15.5607ZM16.2287 15.5405L16.2204 13.0116L12.15 13.0164V15.5222L16.2287 15.5405ZM11.63 15.5199L9.96998 15.5124L9.37166 13.0196L11.63 13.017V15.5199ZM11.63 12.497L9.24688 12.4998L8.62981 9.92881L11.63 9.92232V12.497ZM12.15 12.4964L16.2187 12.4916L16.2103 9.91243L12.15 9.9212V12.4964ZM12.15 9.4012L16.2086 9.39243L16.2002 6.8301H12.15V9.4012ZM11.63 6.8301H7.88606L8.50506 9.40907L11.63 9.40232V6.8301ZM16.7202 6.8301L16.7286 9.39131L20.7605 9.3826L20.7694 6.8301H16.7202ZM20.7587 9.9026L16.7303 9.9113L16.7387 12.491L20.7497 12.4863L20.7587 9.9026ZM14.62 32.8001C15.824 32.8001 16.8 31.8241 16.8 30.6201C16.8 29.4161 15.824 28.4401 14.62 28.4401C13.416 28.4401 12.44 29.4161 12.44 30.6201C12.44 31.8241 13.416 32.8001 14.62 32.8001ZM33.25 30.6201C33.25 31.8241 32.274 32.8001 31.07 32.8001C29.866 32.8001 28.89 31.8241 28.89 30.6201C28.89 29.4161 29.866 28.4401 31.07 28.4401C32.274 28.4401 33.25 29.4161 33.25 30.6201Z" fill="#1C1B1F"/>
</svg>
