<svg width="150" height="152" viewBox="0 0 150 152" fill="none" xmlns="http://www.w3.org/2000/svg">
<path d="M75 0C95.71 0 114.46 8.49698 128.033 22.2349C141.605 35.9717 150 54.9495 150 75.9111C150 96.8727 141.605 115.85 128.033 129.588C114.46 143.325 95.71 151.822 75 151.822C54.29 151.822 35.54 143.325 21.968 129.588C8.39389 115.85 0 96.8727 0 75.9111C0 54.9495 8.39499 35.9729 21.968 22.2349C35.5389 8.49586 54.29 0 75 0ZM126.227 24.0599C113.117 10.7919 95.0058 2.58468 75 2.58468C54.9942 2.58468 36.8831 10.793 23.7722 24.061C10.6634 37.3312 2.55476 55.6623 2.55476 75.9111C2.55476 96.16 10.6634 114.491 23.7733 127.76C36.8831 141.028 54.9942 149.236 75.0011 149.236C95.0058 149.236 113.117 141.028 126.227 127.76C139.337 114.491 147.446 96.16 147.446 75.91C147.446 55.6623 139.337 37.3301 126.227 24.0621V24.0599Z" fill="#C39DC9"/>
<path d="M16.0313 73.8483V72.8447L17.9515 72.5862C18.3992 72.5213 18.6667 72.3479 18.7518 72.067C18.858 71.7649 18.9221 71.3554 18.9442 70.8362L19.9999 53.7673C20.0419 53.2056 19.9889 52.8274 19.8396 52.6339C19.6904 52.4392 19.4129 52.3094 19.0072 52.2456L17.1832 51.986V50.9499H23.2633L29.6308 68.1811L29.7281 68.0513L36.0957 50.9499H42.1437V51.986L40.1926 52.2132C39.8499 52.2557 39.6056 52.3743 39.4563 52.569C39.3071 52.7637 39.243 53.1956 39.264 53.8647L40.3518 71.0309C40.3949 71.6139 40.491 72.0133 40.6392 72.2293C40.7895 72.424 41.0559 72.5426 41.4395 72.5862L43.3598 72.8447V73.8495H34.9438V72.8447L36.9922 72.5862C37.3338 72.5415 37.5892 72.424 37.7594 72.2293C37.9518 72.0133 38.0269 71.5814 37.9838 70.9336L36.896 53.1519L36.864 53.0546L30.3041 70.4804H28.2236L21.6316 53.0546L21.5995 53.1519L20.5438 71.0634C20.5217 71.5389 20.5659 71.8947 20.672 72.1319C20.7992 72.3479 21.1087 72.4889 21.6006 72.5538L23.4556 72.8447V73.8495L16.0313 73.8483ZM49.5383 73.8483V72.8447L51.4585 72.5862C51.8642 72.5213 52.1306 72.3803 52.2588 72.1644C52.3871 71.9484 52.4512 71.549 52.4512 70.9672L52.4512 53.7662C52.4512 53.2045 52.376 52.8263 52.2268 52.6328C52.0986 52.4168 51.8211 52.2758 51.3944 52.212L49.5383 51.9849V50.9488L57.7299 50.9488V51.9849L55.7787 52.212C55.3951 52.2758 55.1386 52.428 55.0104 52.6652C54.8832 52.8812 54.8191 53.2806 54.8191 53.8636L54.8191 71.0623C54.8191 71.6027 54.8832 71.9798 55.0104 72.1957C55.1607 72.3904 55.4371 72.5202 55.8428 72.584L57.731 72.8436V73.8483H49.5394H49.5383ZM64.3494 73.8483V72.8447L66.2066 72.5862C66.6113 72.5213 66.8777 72.3803 67.0059 72.1644C67.1341 71.9484 67.1983 71.549 67.1983 70.9672V53.736C67.1983 53.1956 67.1231 52.8286 66.9739 52.6339C66.8456 52.4179 66.5681 52.2769 66.1414 52.2132L64.3506 51.986V50.9499H72.9257V51.9536L70.5899 52.2445C70.2063 52.2893 69.9387 52.4067 69.7895 52.6014C69.6403 52.7961 69.5662 53.1844 69.5662 53.7673V72.5538H73.9494C74.6967 72.5538 75.3047 72.4989 75.7734 72.3915C76.2643 72.283 76.6799 72.0558 77.0226 71.7112C77.3841 71.3655 77.7047 70.8474 77.9822 70.1559C78.2807 69.4656 78.6013 68.5481 78.9418 67.4034H80.0627L79.2623 73.8483H64.3494ZM84.3696 73.8483V72.8447L85.778 72.5862C86.1616 72.4989 86.4391 72.3591 86.6093 72.1644C86.8017 71.9697 87.004 71.5378 87.2174 70.8687L94.0658 50.9499H96.1772L102.899 70.9336C103.112 71.474 103.293 71.8511 103.442 72.067C103.592 72.283 103.901 72.4452 104.37 72.5538L105.586 72.7798V73.8495H98.0024V72.8447L99.8264 72.5862C100.231 72.5415 100.476 72.4016 100.562 72.1644C100.648 71.9272 100.605 71.5378 100.434 70.9985L98.8658 66.1726H90.3868L88.817 70.9011C88.6467 71.3767 88.5937 71.7649 88.6578 72.067C88.7429 72.3479 89.0314 72.5314 89.5223 72.6175L91.3773 72.8447V73.8495L84.3696 73.8483ZM90.8334 64.877L98.4169 64.877L94.7058 53.3791H94.6417L90.8334 64.877ZM108.598 56.8768L107.958 56.0991C108.727 55.4725 109.271 54.8795 109.59 54.3178C109.911 53.7561 110.081 53.1519 110.102 52.5052H109.558C109.195 52.5052 108.886 52.4392 108.63 52.3105C108.406 52.191 108.218 52.0115 108.087 51.7913C107.978 51.5473 107.924 51.2824 107.926 51.0148C107.926 50.4956 108.097 50.0637 108.438 49.7191C108.78 49.3723 109.206 49.2 109.718 49.2C110.401 49.2 110.913 49.4271 111.254 49.8802C111.595 50.3121 111.767 50.885 111.767 51.5978C111.767 52.1371 111.648 52.72 111.414 53.3466C111.201 53.9508 110.859 54.5662 110.39 55.1928C109.943 55.797 109.345 56.3587 108.598 56.8768ZM126.087 74.3026C124.871 74.3026 123.751 74.0867 122.727 73.6536C121.704 73.2016 120.85 72.6287 120.167 71.9384L119.752 74.0755H118.823L118.183 66.9178L119.24 66.8205C119.559 67.9002 119.954 68.8289 120.424 69.6066C120.892 70.3831 121.415 71.0197 121.991 71.5165C122.589 71.9921 123.229 72.3378 123.911 72.5538C124.595 72.7697 125.288 72.8783 125.992 72.8783C126.866 72.8783 127.656 72.7261 128.36 72.424C129.045 72.1161 129.625 71.6086 130.024 70.966C130.45 70.2969 130.664 69.4555 130.664 68.4395C130.664 67.5981 130.514 66.863 130.216 66.2375C129.918 65.5886 129.384 65.0067 128.615 64.4887C127.848 63.9695 126.781 63.4951 125.416 63.0632C124.178 62.6526 123.143 62.2319 122.312 61.8C121.479 61.3468 120.818 60.8601 120.327 60.342C119.852 59.8271 119.482 59.2216 119.24 58.5607C119.018 57.8594 118.91 57.1264 118.919 56.39C118.919 55.6348 119.026 54.9556 119.24 54.3503C119.474 53.7237 119.794 53.1732 120.199 52.6988C120.602 52.2257 121.078 51.8211 121.608 51.5004C122.179 51.1695 122.793 50.9188 123.432 50.7552C124.101 50.5814 124.788 50.4942 125.479 50.4956C126.397 50.4956 127.261 50.6691 128.071 51.0148C128.904 51.3393 129.661 51.7913 130.343 52.3743L130.76 50.4956H131.719L132.392 56.9417L131.24 57.1039C130.877 55.8295 130.418 54.8146 129.863 54.0594C129.31 53.2817 128.669 52.72 127.943 52.3743C127.218 52.0073 126.397 51.8238 125.479 51.8238C124.2 51.8238 123.175 52.1807 122.408 52.8935C121.64 53.5838 121.255 54.5237 121.255 55.7109C121.255 56.4885 121.404 57.1688 121.704 57.7517C122.002 58.3336 122.525 58.874 123.271 59.3708C124.04 59.8463 125.095 60.3107 126.44 60.7638C127.698 61.1957 128.743 61.659 129.576 62.1569C130.429 62.6313 131.101 63.1494 131.591 63.711C132.082 64.2727 132.435 64.8769 132.648 65.5248C132.861 66.1726 132.968 66.8742 132.968 67.6306C132.968 68.6018 132.807 69.498 132.488 70.3182C132.171 71.1129 131.691 71.8306 131.079 72.424C130.451 73.0275 129.712 73.5007 128.904 73.817C128.071 74.1404 127.133 74.3026 126.087 74.3026Z" fill="#C39DC9"/>
<path d="M76.6842 97.8466C75.0006 97.8466 73.538 97.474 72.2955 96.7299C71.0695 95.9691 70.1133 94.9095 69.4279 93.5534C68.7568 92.1805 68.4219 90.5681 68.4219 88.7152C68.4219 87.3916 68.6098 86.1753 68.9857 85.0676C69.3615 83.942 69.8922 82.9831 70.5798 82.1886C71.2551 81.403 72.0919 80.7763 73.0317 80.3525C73.9957 79.905 75.0581 79.6823 76.2188 79.6823C77.1176 79.6823 77.9179 79.8233 78.621 80.1041C79.2907 80.3636 79.9001 80.7605 80.4108 81.27L80.6562 79.6331H81.7351L82.6903 85.4144L81.4897 85.6628C81.1625 84.62 80.7546 83.7607 80.2626 83.0815C79.7895 82.4035 79.2257 81.8988 78.5713 81.5677C77.919 81.2376 77.1496 81.072 76.2674 81.072C75.1233 81.072 74.167 81.3618 73.3987 81.9402C72.6304 82.5198 72.0423 83.3792 71.6333 84.5216C71.2419 85.6461 71.0452 87.0357 71.0452 88.6895C71.0452 89.7983 71.1845 90.8154 71.4619 91.7419C71.7405 92.6683 72.1319 93.4706 72.6393 94.1486C73.1397 94.808 73.7751 95.35 74.502 95.7375C75.2588 96.1063 76.0897 96.2932 76.9296 96.2835C77.6482 96.2835 78.3026 96.1839 78.8907 95.9859C79.4975 95.7861 80.0627 95.4747 80.5578 95.0673C81.0807 94.6376 81.5638 94.0994 82.0038 93.4538L83.0098 94.199C82.6825 94.7607 82.2912 95.2653 81.8324 95.7129C81.3913 96.1593 80.8928 96.5476 80.3367 96.8788C79.2201 97.5099 77.9631 97.843 76.6842 97.8466ZM84.1793 97.4998V96.4323L85.3069 96.2332C85.601 96.1671 85.821 96.0597 85.968 95.9109C86.115 95.7453 86.2709 95.4074 86.4345 94.8927L91.6314 80.0292H94.1076L99.2315 94.9184C99.3951 95.3324 99.5256 95.6301 99.624 95.8113C99.7389 95.9769 99.9667 96.0933 100.31 96.1582L101.316 96.382V97.4986H94.7941V96.4323L96.1915 96.2589C96.5187 96.2085 96.7144 96.0933 96.7807 95.9109C96.8614 95.7285 96.8293 95.4309 96.6812 95.018L95.579 91.7173H89.0567L87.9789 94.9173C87.8639 95.2653 87.8241 95.564 87.8562 95.8124C87.8893 96.0429 88.1182 96.1839 88.5416 96.2332L89.94 96.4569V97.4986H84.1782L84.1793 97.4998ZM89.4989 90.4272H95.1368L92.3919 82.0644H92.3179L89.4989 90.4272ZM117.095 97.8455C116.638 97.8455 116.22 97.7974 115.845 97.6978C115.481 97.6034 115.134 97.4524 114.815 97.2502C114.487 97.0368 114.191 96.7781 113.933 96.4816C113.648 96.1354 113.386 95.7706 113.148 95.3895L109.25 89.0867L107.828 90.5267V95.0673C107.828 95.4812 107.877 95.7699 107.975 95.9355C108.09 96.0843 108.302 96.1839 108.613 96.2332L110.108 96.4323V97.4986H103.121V96.4323L104.641 96.2332C104.951 96.1839 105.156 96.0765 105.254 95.9109C105.353 95.7453 105.401 95.4309 105.401 94.9677V82.4617C105.401 82.0309 105.344 81.7422 105.23 81.5934C105.131 81.4278 104.919 81.3282 104.592 81.2958L103.121 81.0966V80.0292H110.108V81.0966L108.564 81.2946C108.285 81.3282 108.09 81.4188 107.975 81.5688C107.877 81.7165 107.828 82.0477 107.828 82.5612V88.864L114.031 82.5612C114.227 82.3621 114.333 82.1808 114.35 82.0152C114.367 81.9304 114.363 81.8424 114.337 81.7597C114.312 81.677 114.265 81.6024 114.203 81.543C114.071 81.3942 113.867 81.3114 113.589 81.2946L112.413 81.0966L112.633 80.0292H118.444V81.1212L117.537 81.2958C117.34 81.3293 117.152 81.3942 116.973 81.4938C116.78 81.5967 116.599 81.7217 116.434 81.8664C116.192 82.0753 115.963 82.2987 115.747 82.5355L110.918 87.4497L115.257 94.124C115.632 94.6868 115.96 95.1333 116.237 95.4645C116.531 95.7778 116.834 96.0015 117.145 96.1347C117.472 96.2499 117.848 96.3081 118.272 96.3081C118.436 96.3081 118.599 96.2913 118.763 96.2589C118.926 96.2085 119.139 96.1425 119.4 96.0597L119.621 96.8541C119.307 97.1813 118.92 97.4279 118.493 97.5736C118.051 97.7549 117.586 97.8455 117.095 97.8455ZM121.532 97.4986V96.4323L122.954 96.2332C123.265 96.1839 123.469 96.0765 123.568 95.9109C123.666 95.7453 123.715 95.4309 123.715 94.9677V82.4617C123.715 82.0309 123.657 81.7422 123.543 81.5934C123.445 81.4278 123.233 81.3282 122.905 81.2958L121.532 81.0966V80.0292H132.835L133.693 84.074L132.565 84.4466C132.32 83.7685 132.083 83.2225 131.854 82.8085C131.625 82.3945 131.363 82.0723 131.069 81.8407C130.792 81.609 130.44 81.4524 130.015 81.3696C129.607 81.27 129.108 81.2208 128.52 81.2208H126.141V87.9208H128.299C128.872 87.9208 129.296 87.8794 129.574 87.7966C129.707 87.759 129.83 87.69 129.933 87.5951C130.035 87.5002 130.114 87.3821 130.163 87.2506C130.293 86.9529 130.431 86.4819 130.58 85.8363L131.609 85.7132V91.2462L130.58 91.4196C130.481 90.774 130.366 90.303 130.236 90.0053C130.181 89.8666 130.094 89.7428 129.983 89.6437C129.873 89.5446 129.741 89.4731 129.598 89.4347C129.304 89.3351 128.872 89.2859 128.299 89.2859H126.141V96.2835H129.28C129.868 96.2835 130.358 96.2421 130.751 96.1593C131.159 96.0597 131.495 95.8941 131.756 95.6625C132.033 95.4309 132.271 95.0997 132.467 94.67C132.663 94.2225 132.842 93.6608 133.006 92.9827H134.208L133.644 97.4986H121.532Z" fill="#FF9999"/>
<path d="M68.2621 89.8699C67.9714 91.5438 66.7421 93.7123 65.7615 94.7126C64.8981 95.5961 63.8699 96.2974 62.7366 96.7757C61.6033 97.2539 60.3875 97.4997 59.1596 97.4986C57.9318 97.4995 56.716 97.2537 55.5828 96.7754C54.4495 96.2972 53.4213 95.596 52.5577 94.7126C51.4641 93.599 50.66 92.2286 50.2174 90.7237C49.7744 92.2283 48.9699 93.5983 47.876 94.7115C47.0128 95.5954 45.9847 96.2971 44.8514 96.7757C43.7181 97.2544 42.5021 97.5005 41.2741 97.4998C40.0461 97.5003 38.8303 97.2541 37.697 96.7755C36.5637 96.2969 35.5356 95.5953 34.6722 94.7115C33.5696 93.589 32.7613 92.2055 32.3209 90.6867C31.8804 92.2058 31.0718 93.5893 29.9684 94.7115C29.1051 95.5954 28.077 96.2971 26.9437 96.7757C25.8104 97.2544 24.5945 97.5005 23.3665 97.4998C22.1387 97.5002 20.923 97.2539 19.79 96.7753C18.6569 96.2966 17.6289 95.5951 16.7657 94.7115C15.0128 92.9281 14.0308 90.5136 14.0352 87.998C14.0352 85.6931 14.9527 83.6007 16.4385 82.0902C17.1983 81.3123 18.1032 80.6948 19.1006 80.2736C20.098 79.8524 21.1681 79.6358 22.2489 79.6364C24.5184 79.6364 26.5724 80.5752 28.0593 82.0902C29.6023 83.6592 30.4668 85.7842 30.4626 87.998C30.4626 89.9897 29.6699 91.7922 28.3876 93.1002C27.7311 93.7719 26.9495 94.3049 26.0879 94.6685C25.2264 95.0321 24.3021 95.219 23.3687 95.2183C22.4353 95.2188 21.5111 95.0318 20.6496 94.6682C19.7881 94.3047 19.0064 93.7717 18.3498 93.1002C17.0181 91.7455 16.2719 89.9113 16.2749 88.0002C16.2749 86.323 16.9437 84.8047 18.0215 83.7059C18.5743 83.1395 19.2326 82.6899 19.9584 82.383C20.6841 82.0761 21.4629 81.9181 22.2494 81.9181C23.036 81.9181 23.8147 82.0761 24.5404 82.383C25.2662 82.6899 25.9245 83.1395 26.4773 83.7059C27.5989 84.8464 28.2272 86.391 28.224 88.0002C28.2255 89.3073 27.7146 90.5617 26.8034 91.4879C26.3541 91.9481 25.819 92.3136 25.2291 92.563C24.6392 92.8124 24.0063 92.9408 23.3671 92.9408C22.7278 92.9408 22.0949 92.8124 21.505 92.563C20.9151 92.3136 20.38 91.9481 19.9307 91.4879C19.0203 90.5612 18.5099 89.3071 18.5112 88.0002C18.5112 86.9541 18.928 86.0052 19.6012 85.3182C19.9471 84.9644 20.3588 84.6835 20.8126 84.4918C21.2664 84.3001 21.7533 84.2014 22.245 84.2014C22.7367 84.2014 23.2236 84.3001 23.6774 84.4918C24.1312 84.6835 24.5429 84.9644 24.8887 85.3182C25.5631 86.0052 25.9799 86.9518 25.9799 88.0002C25.9807 88.7038 25.7056 89.3788 25.215 89.8771C24.7243 90.3754 24.0583 90.6562 23.3632 90.6577C22.6683 90.6559 22.0025 90.375 21.5121 89.8767C21.0217 89.3785 20.7467 88.7036 20.7476 88.0002C20.7486 87.7009 20.8372 87.4085 21.002 87.1599C21.1669 86.9113 21.4007 86.7176 21.6741 86.6033C21.9474 86.4889 22.2481 86.459 22.5383 86.5172C22.8284 86.5755 23.095 86.7193 23.3046 86.9306C23.5721 87.2047 23.7402 87.5829 23.7402 87.998H22.9851C22.9856 87.7939 22.9061 87.598 22.764 87.4531C22.6959 87.3832 22.6148 87.3276 22.5253 87.2897C22.4358 87.2518 22.3398 87.2323 22.2428 87.2323C22.1458 87.2323 22.0498 87.2518 21.9603 87.2897C21.8708 87.3276 21.7896 87.3832 21.7216 87.4531C21.5799 87.5981 21.5008 87.7941 21.5016 87.998C21.5016 88.5261 21.7116 89.005 22.0488 89.3485C22.2205 89.5241 22.425 89.6635 22.6503 89.7587C22.8757 89.8538 23.1174 89.9028 23.3615 89.9028C23.6057 89.9028 23.8474 89.8538 24.0727 89.7587C24.2981 89.6635 24.5025 89.5241 24.6743 89.3485C25.0258 88.9892 25.2226 88.5037 25.2215 87.998C25.2236 87.1892 24.9087 86.4127 24.346 85.8385C24.0709 85.5566 23.7433 85.3328 23.3821 85.1799C23.0209 85.0271 22.6334 84.9484 22.2419 84.9483C21.8504 84.9482 21.4629 85.0267 21.1016 85.1793C20.7404 85.332 20.4126 85.5556 20.1374 85.8374C19.5743 86.4113 19.2594 87.1881 19.2619 87.9969C19.2599 89.1077 19.6932 90.174 20.4668 90.962C20.8455 91.3491 21.2963 91.6562 21.7931 91.8656C22.2899 92.0749 22.8228 92.1823 23.361 92.1816C24.4919 92.1816 25.5167 91.7139 26.2573 90.962C27.0308 90.1741 27.4638 89.1076 27.4612 87.9969C27.4612 86.5233 26.8753 85.1884 25.9301 84.2251C25.4478 83.7318 24.8736 83.3403 24.2408 83.0733C23.6079 82.8063 22.929 82.6692 22.2433 82.6698C21.5576 82.6688 20.8786 82.8058 20.2457 83.0728C19.6128 83.3398 19.0386 83.7315 18.5566 84.2251C17.5733 85.2273 17.0227 86.5833 17.0255 87.9958C17.0255 89.7838 17.7363 91.404 18.886 92.5732C19.4715 93.1726 20.1687 93.6485 20.9373 93.9731C21.7058 94.2977 22.5304 94.4646 23.3632 94.4642C24.1963 94.4648 25.0213 94.298 25.7903 93.9734C26.5592 93.6488 27.2568 93.1729 27.8426 92.5732C29.0371 91.3574 29.7063 89.7115 29.7031 87.9969C29.7031 85.8922 28.8674 83.9878 27.5165 82.6105C26.8273 81.9048 26.0064 81.3448 25.1015 80.9629C24.1967 80.5811 23.2259 80.385 22.2455 80.3861C21.2652 80.3855 20.2944 80.5819 19.3896 80.964C18.4848 81.346 17.664 81.906 16.9746 82.6116C15.5701 84.0425 14.7838 85.9788 14.788 87.9958C14.7834 90.3154 15.6878 92.5422 17.303 94.1878C18.0961 94.9987 19.0404 95.6422 20.081 96.0811C21.1217 96.5199 22.238 96.7454 23.3654 96.7445C25.7333 96.7445 27.8757 95.7666 29.4267 94.1878C31.0052 92.5805 31.9063 90.4162 31.9406 88.1502L31.9384 87.9935C31.9384 85.6886 32.8559 83.5985 34.3417 82.0857C35.1016 81.308 36.0065 80.6908 37.0039 80.2698C38.0013 79.8488 39.0714 79.6324 40.1521 79.6331C42.4216 79.6331 44.4756 80.5707 45.9636 82.0868C47.5052 83.6566 48.3687 85.7813 48.3647 87.9947C48.3647 89.9852 47.5709 91.7889 46.2897 93.0946C45.6332 93.7663 44.8516 94.2993 43.99 94.6629C43.1285 95.0265 42.2042 95.2134 41.2708 95.2127C40.3374 95.2132 39.4132 95.0262 38.5517 94.6626C37.6902 94.2991 36.9085 93.7661 36.2519 93.0946C34.9202 91.7399 34.174 89.9057 34.177 87.9947C34.177 86.3185 34.8447 84.7991 35.9236 83.7003C36.4767 83.1346 37.135 82.6856 37.8607 82.3792C38.5863 82.0727 39.3647 81.9149 40.151 81.9149C40.9372 81.9149 41.7157 82.0727 42.4413 82.3792C43.1669 82.6856 43.8253 83.1346 44.3783 83.7003C45.4999 84.8408 46.1282 86.3855 46.125 87.9947C46.125 89.3564 45.5833 90.5883 44.7055 91.4823C44.2562 91.9424 43.7212 92.3076 43.1314 92.5569C42.5416 92.8062 41.9088 92.9346 41.2697 92.9346C40.6306 92.9346 39.9978 92.8062 39.408 92.5569C38.8182 92.3076 38.2832 91.9424 37.8339 91.4823C36.9235 90.5556 36.4131 89.3015 36.4144 87.9947C36.4144 86.9485 36.8312 85.9996 37.5056 85.3126C37.8514 84.959 38.263 84.6782 38.7167 84.4866C39.1704 84.295 39.6571 84.1964 40.1488 84.1964C40.6404 84.1964 41.1271 84.295 41.5808 84.4866C42.0345 84.6782 42.4461 84.959 42.7919 85.3126C43.4663 85.9996 43.8831 86.9485 43.8831 87.9947C43.8839 88.6982 43.6088 89.3732 43.1182 89.8715C42.6275 90.3698 41.9615 90.6506 41.2664 90.6521C40.5713 90.6506 39.9053 90.3698 39.4146 89.8715C38.924 89.3732 38.6488 88.6982 38.6497 87.9947C38.6497 87.5929 38.8074 87.2075 39.0881 86.9234C39.3688 86.6393 39.7496 86.4797 40.1465 86.4797C40.5435 86.4797 40.9242 86.6393 41.2049 86.9234C41.4857 87.2075 41.6434 87.5929 41.6434 87.9947H40.8883C40.8891 87.7907 40.81 87.5948 40.6683 87.4497C40.6002 87.3799 40.519 87.3245 40.4295 87.2867C40.34 87.2489 40.2441 87.2294 40.1471 87.2294C40.0501 87.2294 39.9541 87.2489 39.8647 87.2867C39.7752 87.3245 39.694 87.3799 39.6259 87.4497C39.4838 87.5946 39.4043 87.7906 39.4048 87.9947C39.4048 88.5228 39.6148 89.0017 39.952 89.3452C40.1235 89.5212 40.3279 89.661 40.5533 89.7563C40.7786 89.8517 41.0205 89.9009 41.2647 89.9009C41.509 89.9009 41.7508 89.8517 41.9762 89.7563C42.2016 89.661 42.4059 89.5212 42.5775 89.3452C42.929 88.9859 43.1258 88.5003 43.1247 87.9947C43.1268 87.1859 42.8119 86.4093 42.2492 85.8352C41.974 85.5538 41.6464 85.3303 41.2854 85.1778C40.9244 85.0252 40.5371 84.9466 40.1459 84.9463C39.7547 84.9461 39.3673 85.0244 39.0062 85.1766C38.645 85.3287 38.3172 85.5518 38.0417 85.8329C37.4782 86.4067 37.1629 87.1834 37.1651 87.9924C37.1631 89.1033 37.5964 90.1696 38.37 90.9575C38.7488 91.345 39.1997 91.6526 39.6966 91.8626C40.1936 92.0725 40.7268 92.1806 41.2653 92.1806C41.8038 92.1806 42.337 92.0725 42.8339 91.8626C43.3309 91.6526 43.7818 91.345 44.1605 90.9575C44.9341 90.1696 45.3675 89.1033 45.3655 87.9924C45.3655 86.5188 44.7796 85.184 43.8333 84.2217C43.3511 83.7284 42.7768 83.3369 42.144 83.07C41.5111 82.803 40.8322 82.6658 40.1465 82.6664C39.461 82.6656 38.7822 82.8027 38.1495 83.0696C37.5168 83.3366 36.9428 83.7282 36.4609 84.2217C35.4775 85.2239 34.9269 86.5799 34.9298 87.9924C34.9298 89.7827 35.6395 91.3995 36.7892 92.5687C37.3746 93.1682 38.0719 93.6441 38.8404 93.9687C39.609 94.2933 40.4336 94.4602 41.2664 94.4597C42.0994 94.4605 42.9242 94.2937 43.693 93.9691C44.4618 93.6444 45.1592 93.1685 45.7447 92.5687C46.9391 91.353 47.6079 89.707 47.6041 87.9924C47.6041 85.8889 46.7695 83.9834 45.4175 82.6071C44.728 81.9017 43.9071 81.3419 43.0023 80.9601C42.0975 80.5782 41.1268 80.382 40.1465 80.3827C39.1664 80.3822 38.196 80.5785 37.2914 80.9603C36.3868 81.3421 35.566 81.9019 34.8767 82.6071C33.472 84.0383 32.6856 85.975 32.6901 87.9924L32.6912 88.1479C32.7263 90.4138 33.6273 92.5778 35.2051 94.1856C35.998 94.9965 36.942 95.6402 37.9825 96.0792C39.0229 96.5183 40.1391 96.744 41.2664 96.7434C43.6354 96.7434 45.7767 95.7655 47.3288 94.1856C48.8289 92.658 49.72 90.6243 49.8316 88.4735C49.8243 88.314 49.8206 88.1544 49.8206 87.9947C49.8206 85.6897 50.7381 83.5996 52.2217 82.0868C52.9815 81.309 53.8864 80.6915 54.8838 80.2703C55.8812 79.8491 56.9513 79.6325 58.0321 79.6331C60.3016 79.6331 62.3556 80.5707 63.8424 82.0868C65.3854 83.6559 66.2498 85.7808 66.2457 87.9947C66.2457 89.9852 65.4531 91.7889 64.1719 93.0969C63.5153 93.7683 62.7336 94.3013 61.8721 94.6649C61.0106 95.0285 60.0864 95.2154 59.153 95.215C58.2193 95.2154 57.2949 95.0284 56.4332 94.6646C55.5715 94.3008 54.7896 93.7676 54.133 93.0957C52.8012 91.7402 52.055 89.9053 52.0581 87.9935C52.0581 86.3185 52.7269 84.7991 53.8047 83.7003C54.3575 83.1339 55.0158 82.6843 55.7416 82.3774C56.4673 82.0705 57.2461 81.9125 58.0326 81.9125C58.8191 81.9125 59.5979 82.0705 60.3236 82.3774C61.0494 82.6843 61.7077 83.1339 62.2605 83.7003C63.382 84.8409 64.0102 86.3855 64.0072 87.9947C64.0072 89.3564 63.4655 90.5883 62.5866 91.4823C62.1373 91.9425 61.6022 92.308 61.0123 92.5574C60.4224 92.8068 59.7895 92.9352 59.1502 92.9352C58.511 92.9352 57.878 92.8068 57.2882 92.5574C56.6983 92.308 56.1632 91.9425 55.7139 91.4823C54.8035 90.5556 54.2931 89.3015 54.2944 87.9947C54.2944 86.9485 54.7112 85.9996 55.3844 85.3126C55.7303 84.9588 56.142 84.6779 56.5958 84.4862C57.0496 84.2945 57.5364 84.1958 58.0282 84.1958C58.5199 84.1958 59.0068 84.2945 59.4606 84.4862C59.9144 84.6779 60.3261 84.9588 60.6719 85.3126C61.3463 85.9996 61.763 86.9485 61.763 87.9947C61.7639 88.6982 61.4888 89.3732 60.9981 89.8715C60.5075 90.3698 59.8414 90.6506 59.1464 90.6521C58.8019 90.6519 58.4609 90.5826 58.143 90.4482C57.8252 90.3138 57.5368 90.1168 57.2947 89.8688C56.8049 89.3712 56.5301 88.6971 56.5308 87.9947C56.5308 87.5929 56.6883 87.2076 56.9688 86.9234C57.2492 86.6391 57.6296 86.4791 58.0265 86.4785C58.4234 86.4788 58.804 86.6385 59.0846 86.9226C59.3653 87.2067 59.523 87.5918 59.5233 87.9935H58.7683C58.7685 87.7898 58.689 87.5943 58.5472 87.4497C58.4791 87.38 58.3981 87.3246 58.3087 87.2868C58.2193 87.249 58.1234 87.2295 58.0265 87.2295C57.9297 87.2295 57.8338 87.249 57.7444 87.2868C57.655 87.3246 57.5739 87.38 57.5058 87.4497C57.3638 87.5946 57.2843 87.7906 57.2848 87.9947C57.2848 88.5228 57.4948 89.0017 57.8342 89.3452C58.0059 89.5209 58.2103 89.6604 58.4356 89.7557C58.661 89.8509 58.9027 89.8999 59.1469 89.8999C59.3911 89.8999 59.6329 89.8509 59.8582 89.7557C60.0836 89.6604 60.288 89.5209 60.4597 89.3452C60.8112 88.9859 61.008 88.5003 61.0069 87.9947C61.0087 87.1857 60.6934 86.4091 60.1302 85.8352C59.855 85.5538 59.5273 85.3304 59.1662 85.1779C58.8051 85.0255 58.4178 84.947 58.0265 84.947C57.6353 84.947 57.2479 85.0255 56.8868 85.1779C56.5257 85.3304 56.1981 85.5538 55.9228 85.8352C55.3597 86.4091 55.0448 87.1858 55.0473 87.9947C55.0453 89.1055 55.4786 90.1718 56.2522 90.9598C56.631 91.3472 57.0819 91.6549 57.5788 91.8648C58.0758 92.0747 58.609 92.1828 59.1475 92.1828C59.686 92.1828 60.2192 92.0747 60.7161 91.8648C61.2131 91.6549 61.664 91.3472 62.0427 90.9598C62.8155 90.1715 63.2477 89.1051 63.2444 87.9947C63.2444 86.5211 62.6585 85.1862 61.7133 84.2239C61.231 83.7307 60.6568 83.3392 60.024 83.0722C59.3911 82.8052 58.7122 82.6681 58.0265 82.6687C57.341 82.668 56.6623 82.8052 56.0296 83.0721C55.3969 83.3391 54.8229 83.7306 54.3409 84.2239C53.357 85.2259 52.806 86.582 52.8087 87.9947C52.8087 89.7849 53.5195 91.4017 54.6692 92.571C55.2547 93.1704 55.9519 93.6462 56.7205 93.9708C57.489 94.2954 58.3136 94.4624 59.1464 94.4619C59.9792 94.4625 60.8038 94.2957 61.5724 93.9711C62.341 93.6465 63.0382 93.1706 63.6236 92.571C64.8181 91.3552 65.4872 89.7093 65.4841 87.9947C65.4882 85.9774 64.7019 84.0407 63.2974 82.6094C62.6082 81.9037 61.7874 81.3437 60.8825 80.9618C59.9777 80.5799 59.0069 80.3839 58.0265 80.385C57.0462 80.3842 56.0755 80.5805 55.1707 80.9623C54.2659 81.3442 53.445 81.904 52.7556 82.6094C51.3513 84.0399 50.5649 85.9758 50.569 87.9924C50.5601 88.1244 50.5856 88.4064 50.5822 88.4713C50.6935 90.6222 51.5846 92.656 53.085 94.1833C53.878 94.9943 54.822 95.6379 55.8625 96.077C56.9029 96.516 58.0191 96.7418 59.1464 96.7411C60.2738 96.7418 61.3902 96.5161 62.4308 96.077C63.4714 95.638 64.4157 94.9943 65.2088 94.1833C66.6006 92.7657 67.2351 91.084 67.9725 88.5664C68.1958 87.8 68.4622 86.5815 68.4622 86.5815L68.2621 89.8699Z" fill="#FF9999"/>
</svg>
