<svg xmlns="http://www.w3.org/2000/svg" width="39" height="36" fill="none"><g filter="url(#a)"><path fill="#515151" d="M17.758 1.091c.765-1.357 2.72-1.357 3.484 0l4.633 8.219a2 2 0 0 0 1.346.978l9.248 1.866c1.528.309 2.132 2.167 1.077 3.314l-6.385 6.946a2 2 0 0 0-.514 1.583l1.083 9.372c.179 1.548-1.402 2.697-2.82 2.048l-8.578-3.926a2 2 0 0 0-1.664 0l-8.579 3.926c-1.417.649-2.998-.5-2.819-2.048l1.083-9.372a2 2 0 0 0-.514-1.583l-6.385-6.946c-1.055-1.147-.45-3.005 1.077-3.314l9.247-1.866a2 2 0 0 0 1.347-.978l4.633-8.219Z"/></g><defs><filter id="a" width="37.152" height="39.529" x=".924" y=".073" color-interpolation-filters="sRGB" filterUnits="userSpaceOnUse"><feFlood flood-opacity="0" result="BackgroundImageFix"/><feBlend in="SourceGraphic" in2="BackgroundImageFix" result="shape"/><feColorMatrix in="SourceAlpha" result="hardAlpha" values="0 0 0 0 0 0 0 0 0 0 0 0 0 0 0 0 0 0 127 0"/><feOffset dy="4"/><feGaussianBlur stdDeviation="2"/><feComposite in2="hardAlpha" k2="-1" k3="1" operator="arithmetic"/><feColorMatrix values="0 0 0 0 0 0 0 0 0 0 0 0 0 0 0 0 0 0 0.25 0"/><feBlend in2="shape" result="effect1_innerShadow_341_357"/></filter></defs></svg>