<svg xmlns="http://www.w3.org/2000/svg" width="41" height="38" fill="none"><path fill="#FFBE00" stroke="#515151" d="m27.31 10.064-4.632-8.218c-.956-1.697-3.4-1.697-4.356 0l-4.632 8.218a1.5 1.5 0 0 1-1.01.734l-9.248 1.866c-1.91.385-2.664 2.709-1.346 4.143l6.385 6.945a1.5 1.5 0 0 1 .385 1.188l-1.083 9.372c-.223 1.934 1.753 3.37 3.524 2.56l8.579-3.926a1.5 1.5 0 0 1 1.248 0l8.579 3.926c1.77.81 3.747-.626 3.524-2.56l-1.083-9.372a1.5 1.5 0 0 1 .385-1.188l6.385-6.945c1.318-1.434.563-3.758-1.346-4.143l-9.248-1.866a1.5 1.5 0 0 1-1.01-.734Z"/></svg>